<svg width="56" height="60" viewBox="0 0 56 60" fill="none" xmlns="http://www.w3.org/2000/svg">
<g clip-path="url(#clip0_4110_33593)">
<path d="M27.8085 4.46724e-06C25.7577 -0.00166072 23.7332 0.462223 21.8877 1.3567C20.0422 2.25117 18.4237 3.55291 17.1543 5.1638C19.4768 5.66906 21.6679 6.65463 23.5868 8.05717C25.5058 9.45971 27.1102 11.2482 28.2969 13.3078C29.4835 15.3673 30.2263 17.6523 30.4774 20.016C30.7285 22.3797 30.4824 24.7698 29.755 27.0328C33.1537 26.5408 36.2401 24.7797 38.393 22.104C40.5459 19.4282 41.6057 16.0362 41.359 12.6106C41.1124 9.18501 39.5776 5.97993 37.0635 3.64025C34.5495 1.30057 31.2427 -7.93615e-05 27.8085 4.46724e-06V4.46724e-06Z" fill="#B5179E"/>
<path d="M53.8183 14.8759C52.7823 13.1045 51.358 11.5914 49.6526 10.4503C47.9471 9.30917 46.0051 8.56989 43.9726 8.28809C44.7104 10.5474 44.9674 12.936 44.7273 15.3005C44.4872 17.665 43.7553 19.9532 42.5784 22.018C41.4016 24.0829 39.8059 25.8787 37.8939 27.2901C35.9819 28.7016 33.7958 29.6975 31.4761 30.2139C33.6183 32.8971 36.697 34.6696 40.0929 35.175C43.4888 35.6803 46.9501 34.881 49.7807 32.9378C52.6113 30.9946 54.6012 28.0516 55.3503 24.7007C56.0994 21.3498 55.552 17.8396 53.8183 14.8759Z" fill="#7209B7"/>
<path d="M53.7918 45.0483C54.8244 43.2763 55.4414 41.2931 55.5966 39.248C55.7517 37.203 55.4408 35.1493 54.6873 33.2418C53.0828 34.9954 51.1292 36.3939 48.952 37.3474C46.7749 38.301 44.4224 38.7885 42.0456 38.7787C39.6689 38.7689 37.3205 38.262 35.1513 37.2905C32.9821 36.319 31.0401 34.9044 29.45 33.1377C28.1689 36.3225 28.1408 39.8743 29.3713 43.079C30.6019 46.2838 32.9998 48.9038 36.0831 50.4125C39.1665 51.9212 42.7066 52.2067 45.9918 51.2116C49.2769 50.2164 52.0637 48.0145 53.7918 45.0483V45.0483Z" fill="#4361EE"/>
<path d="M12.5892 38.8052C8.11856 38.5529 3.92856 36.5445 0.931499 33.2173C0.190494 35.1133 -0.114814 37.1517 0.038157 39.1817C0.191128 41.2117 0.798463 43.1813 1.81524 44.9449C2.83202 46.7084 4.23223 48.2208 5.9123 49.3702C7.59237 50.5196 9.50932 51.2765 11.5214 51.585C10.1999 47.3485 10.5831 42.7636 12.5892 38.8052V38.8052Z" fill="#4CC9F0"/>
<path d="M13.5928 35.357C21.0957 35.357 27.178 29.2741 27.178 21.7705C27.178 14.2669 21.0957 8.18408 13.5928 8.18408C6.08988 8.18408 0.00756836 14.2669 0.00756836 21.7705C0.00756836 29.2741 6.08988 35.357 13.5928 35.357Z" fill="#F72585"/>
<path d="M25.0612 38.1763C25.0711 36.6918 25.2748 35.215 25.667 33.7832C23.2335 36.247 20.1055 37.9086 16.7017 38.5456C14.6012 41.4244 13.7161 45.0135 14.2373 48.539C14.7586 52.0645 16.6445 55.2439 19.4883 57.3915C22.332 59.5391 25.9059 60.483 29.4391 60.0194C32.9724 59.5559 36.1819 57.7222 38.3756 54.9137C34.5783 54.0649 31.1861 51.9411 28.7636 48.8959C26.3412 45.8507 25.0345 42.0676 25.0612 38.1763V38.1763Z" fill="#4895EF"/>
</g>
<defs>
<clipPath id="clip0_4110_33593">
<rect width="55.6815" height="60" fill="white"/>
</clipPath>
</defs>
</svg>
