<svg width="2560" height="1600" viewBox="0 0 2560 1600" fill="none" xmlns="http://www.w3.org/2000/svg">
<g clip-path="url(#clip0_4014_34693)">
<rect width="2560" height="1600" fill="url(#paint0_linear_4014_34693)"/>
<rect width="2560" height="1600" transform="matrix(1 0 0 -1 0 1600)" fill="url(#paint1_linear_4014_34693)"/>
<g style="mix-blend-mode:hard-light" opacity="0.5">
<rect width="2560" height="1600" transform="matrix(1 0 0 -1 0 1600)" fill="url(#paint2_linear_4014_34693)"/>
</g>
<g style="mix-blend-mode:overlay">
<path d="M1.7406 1337.63C680.763 1414.42 465.955 401.198 805.448 407.212C1138.23 413.13 796.852 1215.7 1228.1 1168.22C1442.94 1144.58 1155.03 529.083 1432.96 427.322C1806.88 290.432 2008.9 1151.55 2560 338.353" stroke="white" stroke-width="1.25" stroke-miterlimit="10"/>
<path d="M1.7406 1323.44C419.917 1372.25 498.743 1004.92 580.588 720.224C630.284 547.441 679.519 406.223 807.26 409.024C1138.09 416.151 803.495 1209.78 1233.46 1161.41C1279.75 1156.22 1302.52 1123.61 1313.25 1074.73C1352.25 896.922 1227.6 507.093 1443.69 428.466C1818.17 293.357 2010.21 1151.29 2560 349.679" stroke="white" stroke-width="1.25" stroke-miterlimit="10"/>
<path d="M1.70502 1309.22C415.832 1359.08 496.825 998.176 581.334 716.822C632.522 546.425 681.899 407.498 808.965 410.807C1137.84 419.144 809.995 1203.8 1238.69 1154.57C1284.69 1149.35 1307.35 1116.99 1318.58 1068.69C1359.64 891.833 1239.61 506.586 1454.31 429.581C1828.94 295.268 2011.42 1151.04 2559.86 360.977" stroke="white" stroke-width="1.25" stroke-miterlimit="10"/>
<path d="M1.66943 1295.03C411.747 1345.97 494.906 991.495 582.115 713.482C634.796 545.503 684.315 408.836 810.741 412.654C1137.66 422.232 816.602 1197.91 1244.01 1147.83C1289.73 1142.54 1312.25 1110.47 1323.98 1062.71C1367.1 886.775 1251.79 506.396 1465 430.792C1840.02 297.752 2012.7 1150.85 2559.82 372.37" stroke="white" stroke-width="1.25" stroke-miterlimit="10"/>
<path d="M1.66943 1280.8C407.697 1332.83 493.024 984.78 582.897 710.077C637.069 544.485 686.73 410.076 812.517 414.436C1137.48 425.223 823.21 1191.93 1249.34 1140.99C1294.81 1135.67 1317.19 1103.85 1329.38 1056.66C1374.6 881.651 1264.01 506.173 1475.7 431.905C1851.07 300.169 2013.98 1150.56 2559.79 383.665" stroke="white" stroke-width="1.25" stroke-miterlimit="10"/>
<path d="M1.63409 1266.61C403.612 1319.69 491.07 978.13 583.678 706.704C639.343 543.53 689.146 411.381 814.294 416.249C1137.3 428.277 829.782 1186.01 1254.67 1134.18C1299.86 1128.8 1322.13 1097.26 1334.81 1050.65C1382.16 876.528 1276.27 506.014 1486.42 433.05C1862.19 302.62 2015.29 1150.34 2559.75 394.994" stroke="white" stroke-width="1.25" stroke-miterlimit="10"/>
<path d="M1.59863 1252.39C399.527 1306.55 489.116 971.449 584.424 703.301C641.545 542.545 691.526 412.623 816.034 418.033C1137.09 431.27 836.353 1180.06 1259.97 1127.34C1304.87 1121.89 1327.03 1090.62 1340.18 1044.57C1389.66 871.343 1288.45 505.761 1497.08 434.133C1873.23 305.007 2016.53 1150.02 2559.68 406.228" stroke="white" stroke-width="1.25" stroke-miterlimit="10"/>
<path d="M1.59863 1238.19C395.442 1293.4 487.198 964.796 585.241 699.956C643.854 541.651 693.977 413.957 817.81 419.875C1136.91 434.322 842.819 1173.28 1265.29 1120.56C1309.91 1114.99 1331.97 1084.06 1345.58 1038.59C1397.19 866.217 1300.67 505.631 1507.77 435.34C1884.32 307.518 2017.81 1149.83 2559.64 417.616" stroke="white" stroke-width="1.25" stroke-miterlimit="10"/>
<path d="M1.56305 1223.97C391.357 1280.26 485.209 958.177 585.987 696.551C646.021 540.664 696.357 415.229 819.551 421.657C1136.7 437.344 849.355 1167.2 1270.59 1113.75C1314.95 1108.11 1336.91 1077.44 1350.97 1032.57C1404.76 861.03 1312.89 505.471 1518.43 436.485C1895.36 310 2019.09 1149.61 2559.57 428.943" stroke="white" stroke-width="1.25" stroke-miterlimit="10"/>
<path d="M1.52747 1209.78C387.272 1267.12 483.219 951.558 586.733 693.178C648.223 539.741 698.737 416.502 821.291 423.502C1136.49 440.399 855.891 1161.22 1275.88 1106.97C1319.96 1101.27 1341.81 1070.88 1356.34 1026.59C1412.29 855.874 1325.08 505.344 1529.09 437.662C1906.45 312.482 2020.33 1149.38 2559.47 440.303" stroke="white" stroke-width="1.25" stroke-miterlimit="10"/>
<path d="M1.49188 1195.59C383.186 1254.01 481.194 945.003 587.515 689.805C650.426 538.819 701.153 418.03 823.068 425.316C1136.24 443.995 862.463 1155.18 1281.21 1100.16C1325.01 1094.4 1346.78 1064.26 1361.77 1020.54C1419.92 850.656 1337.37 505.153 1539.82 438.776C1917.6 314.932 2021.65 1149.1 2559.47 451.6" stroke="white" stroke-width="1.25" stroke-miterlimit="10"/>
<path d="M1.49188 1181.37C379.137 1240.84 479.17 938.387 588.296 686.435C652.628 537.898 703.568 419.336 824.844 427.132C1136.06 447.083 869.034 1149.13 1286.54 1093.35C1330.05 1087.53 1351.76 1057.68 1367.17 1014.53C1427.53 845.44 1349.62 505.028 1550.51 439.956C1928.72 317.448 2022.93 1148.91 2559.43 462.962" stroke="white" stroke-width="1.25" stroke-miterlimit="10"/>
<path d="M1.4563 1167.17C375.052 1227.73 477.145 931.865 589.078 683.063C654.795 536.976 705.984 420.642 826.584 428.947C1135.85 450.171 875.571 1143.09 1291.83 1086.54C1335.1 1080.66 1356.73 1051.06 1372.54 1008.52C1435.13 840.222 1361.81 504.902 1561.16 441.102C1939.8 319.931 2024.17 1148.65 2559.36 474.29" stroke="white" stroke-width="1.25" stroke-miterlimit="10"/>
<path d="M1.42108 1152.95C370.967 1214.55 475.049 925.276 589.824 679.656C656.927 536.052 708.364 421.913 828.325 430.727C1135.6 453.224 882.107 1137.04 1297.12 1079.73C1340.11 1073.78 1361.67 1044.47 1377.94 1002.5C1442.8 834.97 1374.07 504.772 1571.86 442.246C1950.92 322.411 2025.45 1148.43 2559.29 485.617" stroke="white" stroke-width="1.25" stroke-miterlimit="10"/>
<path d="M1.42108 1138.76C366.917 1201.44 472.989 918.784 590.641 676.283C659.129 535.129 710.815 423.249 830.137 432.54C1135.46 456.31 888.714 1130.99 1302.49 1072.92C1345.18 1066.94 1366.71 1037.86 1383.37 996.457C1450.51 829.688 1386.36 504.613 1582.59 443.391C1962.11 324.925 2026.76 1148.18 2559.29 496.945" stroke="white" stroke-width="1.25" stroke-miterlimit="10"/>
<path d="M1.3855 1124.53C362.832 1188.27 470.857 912.227 591.387 672.908C661.225 534.236 713.195 424.552 831.878 434.352C1135.24 459.395 895.286 1124.98 1307.78 1066.11C1350.23 1060.06 1371.68 1031.23 1388.77 990.441C1458.18 824.435 1398.65 504.515 1593.28 444.534C1973.27 327.436 2028.04 1147.92 2559.25 508.27" stroke="white" stroke-width="1.25" stroke-miterlimit="10"/>
<path d="M1.34991 1110.34C358.747 1175.16 468.726 905.738 592.133 669.537C663.285 533.347 715.575 425.858 833.583 436.168C1135 462.483 901.787 1118.96 1313.04 1059.3C1355.2 1053.19 1376.66 1024.62 1394.1 984.429C1465.86 819.155 1410.83 504.422 1603.86 445.682C1984.31 329.952 2029.22 1147.7 2559.11 519.6" stroke="white" stroke-width="1.25" stroke-miterlimit="10"/>
<path d="M1.34991 1096.12C354.662 1161.99 466.595 899.247 592.95 666.132C665.417 532.424 718.026 427.131 835.394 437.95C1134.82 465.506 908.394 1112.92 1318.4 1052.46C1360.28 1046.29 1381.7 1018 1399.54 978.352C1473.64 813.81 1423.12 504.263 1614.59 446.764C1995.5 332.402 2030.53 1147.38 2559.08 530.865" stroke="white" stroke-width="1.25" stroke-miterlimit="10"/>
<path d="M1.31433 1081.93C350.576 1148.88 464.392 892.755 593.696 662.759C667.477 531.533 720.406 428.435 837.135 439.763C1134.6 468.592 914.93 1106.9 1323.69 1045.68C1365.33 1039.45 1386.71 1011.41 1404.93 972.369C1481.42 808.559 1435.41 504.199 1625.28 447.973C2006.69 335.012 2031.81 1147.19 2559.04 542.256" stroke="white" stroke-width="1.25" stroke-miterlimit="10"/>
<path d="M1.27881 1067.73C346.491 1135.73 462.154 886.327 594.477 659.418C669.537 530.705 722.786 429.772 838.911 441.609C1134.43 471.679 921.502 1100.92 1329.02 1038.9C1370.37 1032.6 1391.76 1004.83 1410.33 966.387C1489.19 803.276 1447.7 504.167 1635.98 449.15C2017.85 337.557 2033.09 1147 2559.01 553.616" stroke="white" stroke-width="1.25" stroke-miterlimit="10"/>
<path d="M1.27881 1053.51C342.442 1122.59 459.952 879.837 595.259 656.014C671.562 529.783 725.202 431.045 840.687 443.391C1134.21 474.734 928.074 1094.88 1334.35 1032.06C1375.41 1025.73 1396.8 998.176 1415.73 960.342C1497.01 797.963 1459.99 504.073 1646.67 450.265C2029.04 340.103 2034.37 1146.71 2558.97 564.913" stroke="white" stroke-width="1.25" stroke-miterlimit="10"/>
<path d="M1.24323 1039.32C338.356 1109.45 457.643 873.41 596.005 652.642C673.551 528.893 727.582 432.351 842.392 445.207C1133.96 477.79 934.574 1088.86 1339.61 1025.26C1380.39 1018.86 1401.77 991.59 1421.1 954.297C1504.82 792.619 1472.25 503.978 1657.33 451.379C2040.19 342.618 2035.61 1146.43 2558.86 576.21" stroke="white" stroke-width="1.25" stroke-miterlimit="10"/>
<path d="M1.20782 1025.1C334.271 1096.31 455.334 866.95 596.786 649.236C675.576 528.002 729.998 433.623 844.169 446.987C1133.75 480.844 941.146 1082.82 1344.94 1018.41C1385.47 1011.95 1406.85 984.939 1426.5 948.25C1512.71 787.272 1484.54 503.882 1668.02 452.524C2051.38 345.195 2036.92 1146.2 2558.83 587.537" stroke="white" stroke-width="1.25" stroke-miterlimit="10"/>
<path d="M1.17224 1010.9C330.186 1083.17 452.989 860.521 597.532 645.894C677.495 527.141 732.378 434.958 845.909 448.831C1133.54 483.929 947.682 1076.87 1350.23 1011.67C1390.48 1005.14 1411.9 978.383 1431.9 942.299C1520.63 782.021 1496.83 503.912 1678.71 453.732C2062.61 347.834 2038.2 1146.01 2558.79 598.927" stroke="white" stroke-width="1.25" stroke-miterlimit="10"/>
<path d="M1.17224 996.681C326.137 1070.03 450.645 854.095 598.349 642.491C679.484 526.22 734.829 436.233 847.721 450.615C1133.4 486.954 954.29 1070.82 1355.59 1004.83C1395.56 998.24 1417.01 971.766 1437.33 936.254C1528.59 776.676 1509.16 503.85 1689.4 454.847C2073.83 350.382 2039.48 1145.76 2558.76 610.225" stroke="white" stroke-width="1.25" stroke-miterlimit="10"/>
<path d="M1.13666 982.489C322.051 1056.88 448.229 847.667 599.095 639.117C681.402 525.36 737.209 437.536 849.461 452.428C1133.15 490.04 960.826 1064.84 1360.89 998.017C1400.6 991.398 1422.09 965.146 1442.7 930.208C1536.51 771.298 1521.45 503.786 1700.06 455.992C2085.02 352.99 2040.73 1145.5 2558.65 621.552" stroke="white" stroke-width="1.25" stroke-miterlimit="10"/>
<path d="M1.10126 968.267C317.966 1043.74 445.778 841.241 599.877 635.714C683.32 524.439 739.624 438.811 851.202 454.212C1132.93 493.064 967.362 1058.83 1366.18 991.177C1405.61 984.495 1427.17 958.498 1448.09 924.164C1544.5 765.954 1533.74 503.724 1710.75 457.108C2096.25 355.57 2042 1145.22 2558.61 632.819" stroke="white" stroke-width="1.25" stroke-miterlimit="10"/>
<path d="M1.10126 954.072C313.881 1030.6 443.327 834.81 600.658 632.371C685.203 523.577 742.04 440.145 852.978 456.055C1132.76 496.148 973.934 1052.87 1371.51 984.429C1410.65 977.683 1432.25 951.972 1453.49 918.211C1552.53 760.701 1546.07 503.785 1721.44 458.314C2107.47 358.24 2043.28 1145.06 2558.58 644.208" stroke="white" stroke-width="1.25" stroke-miterlimit="10"/>
<path d="M1.06567 939.848C309.796 1017.46 440.805 828.382 601.404 628.965C687.015 522.654 744.42 441.417 854.719 457.836C1132.51 499.171 980.506 1046.86 1376.8 977.587C1415.66 970.777 1437.37 945.353 1458.89 912.133C1560.6 755.323 1558.39 503.721 1732.14 459.395C2118.7 360.816 2044.56 1144.74 2558.54 655.471" stroke="white" stroke-width="1.25" stroke-miterlimit="10"/>
<path d="M1.03009 925.658C305.711 1004.32 438.247 821.956 602.186 625.594C688.862 521.765 746.835 442.723 856.495 459.652C1132.33 502.227 987.077 1040.88 1382.13 970.779C1420.74 963.938 1442.48 938.736 1464.29 906.121C1568.66 750.043 1570.72 503.723 1742.83 460.575C2129.96 363.491 2045.84 1144.52 2558.47 666.833" stroke="white" stroke-width="1.25" stroke-miterlimit="10"/>
<path d="M1.03009 911.464C301.661 991.206 435.654 815.559 602.967 622.219C690.709 520.872 749.251 444.026 858.235 461.464C1132.08 505.28 993.614 1034.89 1387.42 963.968C1425.75 957.063 1447.6 932.148 1469.66 900.105C1576.76 744.727 1583.01 503.721 1753.49 461.718C2141.18 366.162 2047.08 1144.29 2558.4 678.159" stroke="white" stroke-width="1.25" stroke-miterlimit="10"/>
<path d="M0.994751 897.242C297.576 978.033 433.025 809.1 603.749 618.847C692.485 519.95 751.667 445.332 860.012 463.279C1131.9 508.336 1000.19 1028.91 1392.75 957.159C1430.8 950.191 1452.71 925.562 1475.09 894.092C1584.93 739.446 1595.37 503.754 1764.18 462.865C2152.44 368.836 2048.36 1144.04 2558.37 689.488" stroke="white" stroke-width="1.25" stroke-miterlimit="10"/>
<path d="M0.959167 883.051C293.491 964.924 430.361 802.642 604.495 615.476C694.226 519.029 754.047 446.606 861.752 465.093C1131.69 511.392 1006.72 1022.96 1398.04 950.383C1435.84 943.382 1457.83 919.008 1480.46 888.079C1593.1 734.164 1607.66 503.786 1774.84 464.011C2163.67 371.51 2049.61 1143.79 2558.29 700.817" stroke="white" stroke-width="1.25" stroke-miterlimit="10"/>
<path d="M0.959167 868.827C289.441 951.751 427.661 796.15 605.312 612.07C696.002 518.073 756.462 447.878 863.564 466.875C1131.51 514.382 1013.33 1016.95 1403.41 943.541C1440.92 936.477 1463.05 912.389 1485.93 882.032C1601.38 728.882 1620.06 503.786 1785.6 465.156C2175.04 374.214 2050.96 1143.56 2558.29 712.144" stroke="white" stroke-width="1.25" stroke-miterlimit="10"/>
<path d="M0.923584 854.635C285.356 938.641 424.89 789.691 606.058 608.698C697.707 517.151 758.842 449.183 865.305 468.689C1131.3 517.437 1019.9 1011 1408.66 936.731C1445.89 929.604 1468.13 905.802 1491.26 876.018C1609.55 723.6 1632.35 503.85 1796.22 466.302C2186.26 376.951 2052.16 1143.31 2558.19 723.473" stroke="white" stroke-width="1.25" stroke-miterlimit="10"/>
<path d="M0.888 840.412C281.271 925.467 422.084 783.167 606.804 605.324C699.377 516.196 761.222 450.488 867.01 470.502C1131.02 520.492 1026.4 1005.05 1413.92 929.922C1450.9 922.762 1473.25 899.216 1496.58 870.005C1617.75 718.382 1644.61 503.914 1806.84 467.448C2197.45 379.688 2053.41 1143.05 2558.08 734.801" stroke="white" stroke-width="1.25" stroke-miterlimit="10"/>
<path d="M0.8526 826.221C277.186 912.358 419.242 776.645 607.585 601.952C701.046 515.242 763.638 451.761 868.786 472.317C1130.84 523.515 1032.97 999.1 1419.25 923.113C1455.95 915.89 1478.43 892.629 1502.02 863.959C1626.1 713.132 1657.01 503.946 1817.57 468.594C2208.78 382.457 2054.72 1142.83 2558.05 746.129" stroke="white" stroke-width="1.25" stroke-miterlimit="10"/>
<path d="M0.8526 811.998C273.101 899.185 416.401 770.091 608.367 598.548C702.716 514.225 766.053 453.035 870.562 474.099C1130.66 526.539 1039.54 993.118 1424.58 916.304C1460.99 909.049 1483.62 886.075 1507.42 857.946C1634.45 707.914 1669.33 504.01 1828.26 469.74C2220.12 385.226 2056 1142.58 2558.01 757.458" stroke="white" stroke-width="1.25" stroke-miterlimit="10"/>
<path d="M0.817017 797.802C269.016 886.071 413.488 763.532 609.148 595.171C704.385 513.234 768.469 454.335 872.338 475.909C1130.45 529.558 1046.15 987.163 1429.91 909.49C1466.07 902.172 1488.8 879.484 1512.82 851.928C1642.83 702.755 1681.69 504.102 1838.95 470.882C2231.41 387.99 2057.28 1142.35 2557.98 768.782" stroke="white" stroke-width="1.25" stroke-miterlimit="10"/>
<path d="M0.781433 783.581C264.93 872.9 410.539 756.916 609.894 591.801C705.948 512.219 770.849 455.611 874.079 477.726C1130.23 532.616 1052.69 981.248 1435.2 902.684C1471.08 895.302 1493.95 872.932 1518.22 845.885C1651.22 697.571 1694.06 504.168 1849.61 471.998C2242.71 390.793 2058.52 1142.07 2557.9 780.081" stroke="white" stroke-width="1.25" stroke-miterlimit="10"/>
<path d="M0.781433 769.391C260.881 859.792 407.591 750.299 610.711 588.43C707.618 511.202 773.3 456.917 875.855 479.541C1130.06 535.64 1059.26 975.299 1440.53 895.876C1476.12 888.462 1499.18 866.379 1523.62 839.873C1659.67 692.45 1706.42 504.265 1860.3 473.177C2254 393.658 2059.8 1141.85 2557.83 791.442" stroke="white" stroke-width="1.25" stroke-miterlimit="10"/>
<path d="M0.746094 755.196C256.796 846.648 404.571 743.614 611.457 585.054C709.146 510.181 775.68 458.187 877.596 481.352C1129.81 538.66 1065.83 969.378 1445.82 889.064C1481.17 881.586 1504.36 859.821 1529.02 833.856C1668.16 687.324 1718.78 504.358 1871 474.32C2265.34 396.488 2061.08 1141.62 2557.8 802.768" stroke="white" stroke-width="1.25" stroke-miterlimit="10"/>
<path d="M0.71051 740.974C252.711 833.507 401.516 736.901 612.203 581.651C710.709 509.101 778.06 459.461 879.336 483.135C1129.6 541.653 1072.37 963.429 1451.11 882.256C1486.18 874.746 1509.51 853.268 1534.38 827.843C1676.61 682.266 1731.11 504.487 1881.65 475.467C2276.63 399.353 2062.32 1141.37 2557.73 814.097" stroke="white" stroke-width="1.25" stroke-miterlimit="10"/>
<path d="M0.71051 726.78C248.661 820.363 398.461 730.153 613.02 578.307C712.307 508.048 780.511 460.764 881.148 484.979C1129.45 544.705 1079.01 957.54 1456.48 875.476C1491.26 867.903 1514.77 846.742 1539.82 821.827C1685.18 677.204 1743.5 504.612 1892.38 476.61C2288.04 402.247 2063.64 1141.11 2557.73 825.423" stroke="white" stroke-width="1.25" stroke-miterlimit="10"/>
<path d="M0.674927 712.559C244.576 807.224 395.335 723.347 613.766 574.906C713.799 506.938 782.891 462.039 882.853 486.763C1129.2 547.699 1085.51 951.592 1461.74 868.637C1496.26 861.032 1519.96 840.19 1545.18 815.784C1693.7 672.148 1755.83 504.71 1903.04 477.758C2299.33 405.177 2064.88 1140.89 2557.62 836.753" stroke="white" stroke-width="1.25" stroke-miterlimit="10"/>
<path d="M0.639343 698.367C240.491 794.082 392.174 716.504 614.548 571.532C715.362 505.823 785.307 463.312 884.629 488.577C1128.99 550.722 1092.12 945.673 1467.06 861.827C1501.31 854.158 1525.18 833.634 1550.58 809.769C1702.3 667.183 1768.19 504.837 1913.73 478.903C2310.66 408.135 2066.16 1140.64 2557.58 848.081" stroke="white" stroke-width="1.25" stroke-miterlimit="10"/>
<path d="M0.639343 684.143C236.441 780.94 389.048 709.599 615.329 568.127C716.889 504.645 787.722 464.584 886.405 490.358C1128.81 553.712 1098.69 939.754 1472.39 854.985C1506.35 847.284 1530.4 827.079 1556.01 803.723C1710.96 662.218 1780.59 504.963 1924.46 480.016C2322.07 411.062 2067.47 1140.35 2557.58 859.376" stroke="white" stroke-width="1.25" stroke-miterlimit="10"/>
<path d="M0.603882 669.953C232.32 767.8 385.851 702.695 616.075 564.787C718.346 503.533 790.102 465.889 888.146 492.205C1128.6 556.768 1105.26 933.901 1477.69 848.241C1511.4 840.477 1535.59 820.621 1561.38 797.742C1719.6 657.32 1792.92 505.156 1935.08 481.227C2333.36 414.118 2068.68 1140.19 2557.48 870.738" stroke="white" stroke-width="1.25" stroke-miterlimit="10"/>
<path d="M0.568359 655.728C228.235 754.656 382.618 695.662 616.857 561.381C719.873 502.323 792.518 467.13 889.922 493.986C1128.42 559.726 1111.87 927.949 1483.01 841.399C1516.44 833.603 1540.85 814.065 1566.78 791.695C1728.26 652.418 1805.31 505.314 1945.77 482.34C2344.73 417.108 2070 1139.9 2557.41 882.033" stroke="white" stroke-width="1.25" stroke-miterlimit="10"/>
<path d="M0.53302 641.536C224.15 741.515 379.386 688.63 617.603 558.008C721.33 501.114 794.898 468.434 891.627 495.799C1128.17 562.749 1118.37 922.063 1488.27 834.589C1521.41 826.761 1546 807.542 1572.14 785.681C1736.93 647.614 1817.64 505.473 1956.43 483.485C2356.06 420.163 2071.24 1139.65 2557.34 893.361" stroke="white" stroke-width="1.25" stroke-miterlimit="10"/>
<path d="M0.53302 627.343C220.101 728.404 376.153 681.564 618.42 554.634C722.893 499.903 797.349 469.706 893.439 497.612C1128.03 565.771 1125.01 916.206 1493.64 827.778C1526.53 819.887 1551.29 801.049 1577.58 779.634C1745.71 642.776 1830.04 505.631 1967.16 484.598C2367.47 423.217 2072.55 1139.39 2557.34 904.655" stroke="white" stroke-width="1.25" stroke-miterlimit="10"/>
<path d="M0.497437 613.119C216.015 715.229 372.885 674.373 619.166 551.26C724.349 498.662 799.729 470.978 895.179 499.425C1127.82 568.761 1131.58 910.319 1498.93 820.968C1531.54 813.045 1556.51 794.525 1582.94 773.62C1754.44 638.034 1842.4 505.821 1977.81 485.775C2378.8 426.335 2073.8 1139.17 2557.26 916.015" stroke="white" stroke-width="1.25" stroke-miterlimit="10"/>
<path d="M0.461853 598.927C211.93 702.12 369.617 667.181 619.947 547.887C725.841 497.421 802.145 472.251 896.955 501.239C1127.61 571.753 1138.19 904.433 1504.26 814.191C1536.62 806.204 1561.77 788.066 1588.37 767.638C1763.25 633.357 1854.8 506.076 1988.54 486.952C2390.24 429.517 2075.11 1138.98 2557.23 927.375" stroke="white" stroke-width="1.25" stroke-miterlimit="10"/>
<path d="M0.461853 584.705C207.881 688.98 366.384 659.896 620.729 544.485C727.333 496.118 804.56 473.526 898.732 503.023C1127.46 574.745 1144.8 898.547 1509.59 807.351C1541.66 799.332 1566.99 781.545 1593.77 761.593C1772.06 628.681 1867.2 506.237 1999.23 488.068C2401.6 432.669 2076.39 1138.69 2557.19 938.673" stroke="white" stroke-width="1.25" stroke-miterlimit="10"/>
<path d="M0.42627 570.511C203.795 675.836 363.116 652.575 621.475 541.109C728.825 494.81 806.94 474.796 900.437 504.834C1127.22 577.734 1151.34 892.69 1514.84 800.539C1546.64 792.488 1572.18 775.051 1599.14 755.545C1780.84 624.032 1879.52 506.425 2009.86 489.178C2412.93 435.848 2077.6 1138.41 2557.09 949.966" stroke="white" stroke-width="1.25" stroke-miterlimit="10"/>
<path d="M0.390686 556.291C199.71 662.698 359.812 645.165 622.256 537.74C730.317 493.51 809.356 476.073 902.213 506.652C1127.04 580.729 1157.94 886.839 1520.17 793.733C1551.72 785.619 1577.43 768.595 1604.54 749.535C1789.68 619.486 1891.92 506.684 2020.55 490.36C2424.3 439.13 2078.88 1138.22 2557.05 961.33" stroke="white" stroke-width="1.25" stroke-miterlimit="10"/>
<path d="M0.390686 542.098C195.661 649.555 356.58 637.718 623.038 534.366C731.845 492.172 811.807 477.344 903.989 508.464C1126.86 583.719 1164.55 880.983 1525.5 786.922C1556.76 778.776 1582.69 762.103 1609.94 743.52C1798.53 614.967 1904.28 506.905 2031.24 491.504C2435.71 442.406 2080.16 1137.96 2556.98 972.657" stroke="white" stroke-width="1.25" stroke-miterlimit="10"/>
<path d="M0.355164 527.873C191.54 636.412 353.312 630.207 623.819 530.96C733.372 490.771 814.222 478.584 905.765 510.245C1126.68 586.677 1171.19 875.127 1530.83 780.112C1561.84 771.934 1587.91 755.642 1615.37 737.504C1807.45 610.51 1916.68 507.158 2041.97 492.648C2447.11 445.745 2081.47 1137.71 2556.98 983.983" stroke="white" stroke-width="1.25" stroke-miterlimit="10"/>
<path d="M0.319824 513.683C187.455 623.271 350.079 622.667 624.565 527.588C734.864 489.404 816.603 479.858 907.47 512.06C1126.43 589.67 1177.73 869.273 1536.09 773.304C1566.81 765.062 1593.1 749.184 1620.7 731.46C1816.26 606.089 1929.01 507.382 2052.59 493.795C2458.44 449.12 2082.68 1137.49 2556.87 995.313" stroke="white" stroke-width="1.25" stroke-miterlimit="10"/>
<path d="M0.319824 499.458C183.405 610.129 346.847 615.029 625.382 524.215C736.427 488.003 819.054 481.13 909.282 513.905C1126.33 592.692 1184.37 863.481 1541.45 766.525C1571.89 758.252 1598.39 742.724 1626.17 725.477C1825.21 601.76 1941.44 507.7 2063.35 494.972C2469.88 452.555 2084.03 1137.26 2556.91 1006.67" stroke="white" stroke-width="1.25" stroke-miterlimit="10"/>
<path d="M0.284241 485.268C179.32 596.988 343.65 607.362 626.128 520.843C737.955 486.572 821.434 482.404 911.023 515.72C1126.11 595.684 1190.98 857.659 1546.74 759.717C1576.94 751.412 1603.61 736.297 1631.54 719.464C1834.09 597.434 1953.76 507.956 2074.01 496.119C2481.25 456.025 2085.27 1137.01 2556.8 1018" stroke="white" stroke-width="1.25" stroke-miterlimit="10"/>
<path d="M0.248657 471.076C175.235 583.879 340.452 599.661 626.874 517.47C739.482 485.172 823.849 483.677 912.763 517.534C1125.9 598.675 1197.59 851.868 1552.03 752.907C1581.95 744.57 1608.8 729.837 1636.9 713.418C1842.97 593.138 1966.13 508.21 2084.67 497.232C2492.61 459.494 2086.51 1136.75 2556.73 1029.3" stroke="white" stroke-width="1.25" stroke-miterlimit="10"/>
<path d="M0.213074 456.851C171.15 570.703 337.255 591.864 627.656 514.063C741.081 483.675 826.265 484.916 914.539 519.314C1125.76 601.601 1204.19 846.011 1557.36 746.096C1587.03 737.696 1614.06 723.376 1642.33 707.403C1851.92 588.936 1978.52 508.495 2095.36 498.408C2503.98 463.088 2087.83 1136.53 2556.7 1040.66" stroke="white" stroke-width="1.25" stroke-miterlimit="10"/>
<path d="M0.213074 442.66C167.1 557.595 334.129 584.069 628.437 510.724C742.679 482.245 828.68 486.222 916.28 521.161C1125.55 604.625 1210.8 840.253 1562.66 739.319C1592.03 730.887 1619.24 716.982 1647.7 701.422C1860.8 584.832 1990.85 508.846 2106.02 499.587C2515.31 466.716 2089.07 1136.31 2556.59 1052.02" stroke="white" stroke-width="1.25" stroke-miterlimit="10"/>
<path d="M0.17749 428.437C163.015 544.422 331.003 576.178 629.219 507.319C744.278 480.749 831.131 487.463 918.056 522.943C1125.4 607.553 1217.44 834.43 1567.98 732.479C1597.11 724.014 1624.5 710.523 1653.1 695.377C1869.72 580.697 2003.21 509.101 2116.71 500.701C2526.71 470.344 2090.35 1136.05 2556.55 1063.31" stroke="white" stroke-width="1.25" stroke-miterlimit="10"/>
<path d="M0.14209 414.245C158.93 531.311 327.913 568.255 629.965 503.946C745.876 479.254 833.511 488.704 919.797 524.757C1125.23 610.544 1224.05 828.639 1573.28 725.669C1602.12 717.173 1629.69 704.095 1658.5 689.33C1878.67 576.592 2015.57 509.387 2127.4 501.814C2538.08 474.035 2091.63 1135.77 2556.52 1074.61" stroke="white" stroke-width="1.25" stroke-miterlimit="10"/>
<path d="M0.14209 400.02C154.88 518.137 324.893 560.298 630.782 500.54C747.581 477.725 836.069 489.785 921.608 526.537C1125.3 613.12 1230.73 822.815 1578.64 718.827C1607.2 710.299 1634.95 697.634 1663.93 683.283C1887.62 572.581 2027.97 509.704 2138.13 502.958C2549.49 477.789 2092.94 1135.54 2556.52 1085.94" stroke="white" stroke-width="1.25" stroke-miterlimit="10"/>
<path d="M0.10675 385.829C150.76 505.027 321.874 552.312 631.528 497.199C749.216 476.261 838.449 491.121 923.349 528.383C1125.08 616.174 1237.37 817.087 1583.9 712.081C1612.21 703.489 1640.13 691.27 1669.3 677.333C1896.5 568.667 2040.26 510.086 2148.79 504.168C2560.78 481.703 2094.19 1135.35 2556.41 1097.3" stroke="white" stroke-width="1.25" stroke-miterlimit="10"/>
<path d="M0.071167 371.604C146.675 491.853 318.854 544.26 632.274 493.793C750.85 474.701 840.829 492.393 925.054 530.164C1124.84 619.197 1244.16 811.868 1589.16 705.238C1617.22 696.679 1645.28 684.842 1674.63 671.286C1905.35 564.752 2052.55 510.404 2159.41 505.281C2572.08 485.552 2095.39 1135.07 2556.31 1108.59" stroke="white" stroke-width="1.25" stroke-miterlimit="10"/>
<path d="M0.071167 357.411C142.625 478.742 315.942 536.209 633.091 490.42C752.59 473.173 843.28 493.665 926.866 531.977C1124.69 622.219 1250.8 805.917 1594.52 698.428C1622.3 689.805 1650.54 678.413 1680.06 665.24C1914.26 560.869 2064.92 510.721 2170.14 506.425C2583.45 489.529 2096.71 1134.84 2556.31 1119.92" stroke="white" stroke-width="1.25" stroke-miterlimit="10"/>
<path d="M0.0355835 343.192C138.54 465.572 313.029 528.099 633.837 487.019C754.26 471.586 845.661 494.943 928.607 533.763C1124.48 625.246 1257.34 799.97 1599.81 691.591C1627.34 682.904 1655.69 671.99 1685.46 659.198C1923.18 557.024 2077.28 511.044 2180.79 507.543C2594.74 493.511 2097.95 1134.56 2556.23 1131.22" stroke="white" stroke-width="1.25" stroke-miterlimit="10"/>
<path d="M0 329C134.455 452.462 310.151 519.985 634.618 483.646C1064.87 435.47 1126.72 886.903 1690.86 653.184C2913.38 146.703 1986.94 1132.3 2556.2 1142.55" stroke="white" stroke-width="1.25" stroke-miterlimit="10"/>
</g>
<g style="mix-blend-mode:overlay">
<path d="M2870.94 1513.48C1560.03 1611.64 1974.73 316.299 1319.31 323.988C676.851 331.554 1335.91 1357.59 503.344 1296.89C88.5711 1266.67 644.413 479.793 107.842 349.698C-614.033 174.692 -1004.05 1275.58 -2068 235.956" stroke="white" stroke-width="0.25" stroke-miterlimit="10"/>
<path d="M2870.94 1495.33C2063.61 1557.73 1911.43 1088.12 1753.42 724.156C1657.48 503.263 1562.43 322.724 1315.81 326.304C677.126 335.417 1323.08 1350.02 492.988 1288.19C403.628 1281.56 359.668 1239.86 338.957 1177.37C263.656 950.053 504.304 451.681 87.1309 351.16C-635.841 178.432 -1006.59 1275.25 -2068 250.436" stroke="white" stroke-width="0.25" stroke-miterlimit="10"/>
<path d="M2871 1477.15C2071.5 1540.89 1915.13 1079.5 1751.98 719.805C1653.16 501.963 1557.83 324.353 1312.52 328.584C677.606 339.242 1310.53 1342.37 482.907 1279.44C394.095 1272.77 350.341 1231.4 328.67 1169.65C249.391 943.546 481.124 451.032 66.6254 352.586C-656.621 180.875 -1008.92 1274.93 -2067.73 264.879" stroke="white" stroke-width="0.25" stroke-miterlimit="10"/>
<path d="M2871.07 1459.01C2079.38 1524.14 1918.84 1070.96 1750.47 715.536C1648.77 500.786 1553.17 326.064 1309.09 330.946C677.949 343.19 1297.78 1334.85 472.62 1270.82C384.357 1264.07 340.878 1223.06 318.246 1162C234.99 937.08 457.601 450.79 45.9832 354.134C-678.017 184.05 -1011.38 1274.68 -2067.66 279.445" stroke="white" stroke-width="0.25" stroke-miterlimit="10"/>
<path d="M2871.07 1440.82C2087.2 1507.33 1922.47 1062.37 1748.96 711.182C1644.38 499.483 1548.5 327.649 1305.66 333.223C678.291 347.013 1285.02 1327.2 462.332 1262.07C374.55 1255.28 331.344 1214.6 307.821 1154.27C220.519 930.529 434.009 450.504 25.3397 355.556C-699.346 187.14 -1013.85 1274.32 -2067.59 293.885" stroke="white" stroke-width="0.25" stroke-miterlimit="10"/>
<path d="M2871.14 1422.68C2095.09 1490.53 1926.24 1053.87 1747.46 706.87C1639.99 498.262 1543.84 329.317 1302.23 335.542C678.634 350.919 1272.33 1319.64 452.045 1253.37C364.811 1246.49 321.812 1206.18 297.329 1146.58C205.911 923.98 410.349 450.3 4.62862 357.021C-720.812 190.273 -1016.39 1274.03 -2067.52 308.367" stroke="white" stroke-width="0.25" stroke-miterlimit="10"/>
<path d="M2871.21 1404.5C2102.97 1473.73 1930.02 1045.33 1746.01 702.52C1635.74 497.004 1539.25 330.906 1298.87 337.822C679.046 354.745 1259.64 1312.03 441.827 1244.62C355.142 1237.67 312.348 1197.68 286.973 1138.81C191.441 917.352 386.826 449.977 -15.9454 358.406C-742.14 193.326 -1018.79 1273.63 -2067.38 322.73" stroke="white" stroke-width="0.25" stroke-miterlimit="10"/>
<path d="M2871.21 1386.35C2110.86 1456.93 1933.72 1036.82 1744.44 698.244C1631.28 495.86 1534.51 332.61 1295.44 340.177C679.388 358.646 1247.16 1303.36 431.54 1235.95C345.403 1228.84 302.815 1189.29 276.549 1131.16C176.902 910.798 363.234 449.81 -36.5881 359.948C-763.537 196.535 -1021.26 1273.38 -2067.31 337.289" stroke="white" stroke-width="0.25" stroke-miterlimit="10"/>
<path d="M2871.28 1368.16C2118.75 1440.13 1937.56 1028.36 1743 693.891C1627.1 494.599 1529.92 334.238 1292.08 342.455C679.8 362.51 1234.54 1295.59 421.322 1227.25C335.665 1220.05 293.283 1180.83 266.125 1123.47C162.295 904.167 339.643 449.607 -57.1619 361.412C-784.866 199.709 -1023.73 1273.09 -2067.18 351.771" stroke="white" stroke-width="0.25" stroke-miterlimit="10"/>
<path d="M2871.35 1350.02C2126.63 1423.33 1941.4 1019.9 1741.56 689.579C1622.85 493.419 1525.32 335.865 1288.72 344.814C680.211 366.415 1221.93 1287.94 411.103 1218.58C325.995 1211.3 283.818 1172.45 255.769 1115.83C147.755 897.576 316.12 449.444 -77.7361 362.917C-806.263 202.881 -1026.13 1272.81 -2066.97 366.293" stroke="white" stroke-width="0.25" stroke-miterlimit="10"/>
<path d="M2871.42 1331.88C2134.52 1406.57 1945.31 1011.52 1740.05 685.266C1618.59 492.239 1520.66 337.817 1285.29 347.133C680.692 371.012 1209.24 1280.21 400.816 1209.88C316.257 1202.51 274.217 1163.99 245.276 1108.1C133.011 890.904 292.391 449.199 -98.4472 364.341C-827.797 206.013 -1028.67 1272.44 -2066.97 380.735" stroke="white" stroke-width="0.25" stroke-miterlimit="10"/>
<path d="M2871.42 1313.7C2142.34 1389.73 1949.22 1003.06 1738.54 680.958C1614.34 491.063 1516 339.489 1281.87 349.455C681.035 374.962 1196.55 1272.49 390.529 1201.18C306.519 1193.73 264.616 1155.57 234.853 1100.41C118.335 884.237 268.731 449.041 -119.089 365.85C-849.262 209.231 -1031.14 1272.2 -2066.9 395.261" stroke="white" stroke-width="0.25" stroke-miterlimit="10"/>
<path d="M2871.48 1295.55C2150.23 1372.97 1953.13 994.725 1737.03 676.646C1610.16 489.884 1511.33 341.157 1278.5 351.774C681.446 378.908 1183.93 1264.76 380.311 1192.47C296.78 1184.94 255.015 1147.11 224.497 1092.72C103.659 877.565 245.208 448.878 -139.664 367.314C-870.659 212.404 -1033.54 1271.88 -2066.76 409.743" stroke="white" stroke-width="0.25" stroke-miterlimit="10"/>
<path d="M2871.55 1277.37C2158.11 1356.13 1957.17 986.303 1735.59 672.293C1606.04 488.703 1506.74 342.784 1275.14 354.052C681.926 382.813 1171.31 1257.03 370.092 1183.76C287.11 1176.16 245.482 1138.69 214.072 1085.03C88.8448 870.853 221.547 448.715 -160.307 368.778C-892.125 215.577 -1036.01 1271.59 -2066.63 424.226" stroke="white" stroke-width="0.25" stroke-miterlimit="10"/>
<path d="M2871.55 1259.22C2165.93 1339.36 1961.15 978.002 1734.01 667.978C1601.79 487.521 1502.01 344.489 1271.65 356.368C682.2 386.756 1158.56 1249.3 359.736 1175.06C277.303 1167.41 235.743 1130.23 203.579 1077.3C73.963 864.097 197.819 448.508 -181.018 370.24C-913.728 218.787 -1038.54 1271.27 -2066.63 438.705" stroke="white" stroke-width="0.25" stroke-miterlimit="10"/>
<path d="M2871.62 1241.04C2173.82 1322.52 1965.27 969.62 1732.57 663.665C1597.74 486.38 1497.41 346.156 1268.29 358.686C682.612 390.701 1145.87 1241.61 349.518 1166.35C267.565 1158.62 226.142 1121.76 193.155 1069.61C59.1497 857.384 174.09 448.385 -201.661 371.703C-935.262 222 -1041.01 1270.94 -2066.56 453.185" stroke="white" stroke-width="0.25" stroke-miterlimit="10"/>
<path d="M2871.69 1222.9C2181.7 1305.76 1969.38 961.323 1731.13 659.354C1593.77 485.243 1492.82 347.825 1264.99 361.005C683.092 394.648 1133.32 1233.92 339.368 1157.65C257.964 1149.83 216.541 1113.3 182.868 1061.92C44.3364 850.632 150.567 448.264 -222.097 373.169C-956.59 225.215 -1043.28 1270.65 -2066.29 467.669" stroke="white" stroke-width="0.25" stroke-miterlimit="10"/>
<path d="M2871.69 1204.71C2189.59 1288.92 1973.5 953.025 1729.56 655.002C1589.65 484.064 1488.09 349.453 1261.5 363.285C683.435 398.514 1120.56 1226.19 329.012 1148.9C248.157 1141.01 206.803 1104.84 172.375 1054.16C29.3174 843.799 126.838 448.062 -242.809 374.553C-978.193 228.349 -1045.81 1270.25 -2066.22 482.071" stroke="white" stroke-width="0.25" stroke-miterlimit="10"/>
<path d="M2871.76 1186.57C2197.48 1272.16 1977.75 944.726 1728.12 650.69C1585.67 482.925 1483.49 351.121 1258.14 365.603C683.846 402.459 1107.95 1218.5 318.794 1140.23C238.418 1132.26 197.133 1096.42 161.951 1046.51C14.2985 837.086 103.11 447.981 -263.451 376.099C-999.796 231.684 -1048.28 1270 -2066.15 496.634" stroke="white" stroke-width="0.25" stroke-miterlimit="10"/>
<path d="M2871.83 1168.43C2205.36 1255.36 1982.07 936.508 1726.61 646.417C1581.7 481.866 1478.9 352.829 1254.71 367.962C684.189 406.405 1095.26 1210.85 308.507 1131.57C228.68 1123.51 187.394 1088 151.527 1038.86C-0.720804 830.332 79.3809 447.939 -284.094 377.603C-1021.33 234.938 -1050.75 1269.76 -2066.08 511.156" stroke="white" stroke-width="0.25" stroke-miterlimit="10"/>
<path d="M2871.83 1150.24C2213.18 1238.56 1986.32 928.211 1725.1 642.067C1577.79 480.689 1474.23 354.458 1251.28 370.242C684.601 410.312 1082.57 1203.13 298.22 1122.82C218.942 1114.73 177.656 1079.5 141.103 1031.13C-15.8081 823.54 55.6523 447.819 -304.736 379.029C-1042.93 238.194 -1053.22 1269.4 -2066.01 525.599" stroke="white" stroke-width="0.25" stroke-miterlimit="10"/>
<path d="M2871.9 1132.1C2221.07 1221.76 1990.78 919.995 1723.66 637.756C1573.95 479.551 1469.64 356.128 1247.99 372.563C685.081 414.219 1070.02 1195.44 288.071 1114.12C209.341 1105.94 168.055 1071.08 130.748 1023.4C-30.8956 816.709 31.9923 447.699 -325.31 380.454C-1064.47 241.409 -1055.62 1269.03 -2065.8 540.042" stroke="white" stroke-width="0.25" stroke-miterlimit="10"/>
<path d="M2871.96 1113.92C2228.96 1204.96 1995.24 911.735 1722.15 633.402C1570.04 478.41 1464.97 357.753 1244.56 374.838C685.492 418.122 1057.33 1187.71 277.783 1105.37C199.533 1097.11 158.248 1062.58 120.323 1015.67C-46.1206 809.872 8.26347 447.574 -345.953 381.917C-1086.07 244.702 -1058.16 1268.74 -2065.74 554.523" stroke="white" stroke-width="0.25" stroke-miterlimit="10"/>
<path d="M2872.03 1095.77C2236.84 1188.15 1999.76 903.515 1720.71 629.127C1566.34 477.309 1460.38 359.458 1241.2 377.195C685.904 422.065 1044.72 1180.1 267.565 1096.75C189.864 1088.41 148.51 1054.19 109.9 1008.06C-61.4135 803.157 -15.4649 447.612 -366.595 383.46C-1107.74 248.076 -1060.63 1268.5 -2065.67 569.083" stroke="white" stroke-width="0.25" stroke-miterlimit="10"/>
<path d="M2872.03 1077.59C2244.66 1171.36 2004.29 895.301 1719.13 624.778C1562.49 476.133 1455.65 361.089 1237.7 379.477C686.178 425.933 1031.96 1172.37 257.209 1088C180.057 1079.58 138.635 1045.74 99.4067 1000.34C-76.7757 796.326 -39.2625 447.534 -387.238 384.887C-1129.41 251.334 -1063.1 1268.18 -2065.6 583.528" stroke="white" stroke-width="0.25" stroke-miterlimit="10"/>
<path d="M2872.1 1059.44C2252.55 1154.56 2008.95 887.083 1717.69 620.465C1558.79 475.033 1451.05 362.756 1234.34 381.794C686.658 429.878 1019.34 1164.73 246.991 1079.3C170.318 1070.84 128.827 1037.27 89.0508 992.607C-92.0693 789.45 -62.9914 447.452 -407.812 386.351C-1151.02 254.669 -1065.5 1267.85 -2065.39 598.01" stroke="white" stroke-width="0.25" stroke-miterlimit="10"/>
<path d="M2872.17 1041.26C2260.43 1137.76 2013.68 878.867 1716.18 616.114C1555.09 473.855 1446.39 364.384 1230.98 384.074C687.069 433.744 1006.72 1157.04 236.772 1070.55C160.648 1062.01 119.02 1028.77 78.6266 984.879C-107.5 782.617 -86.7203 447.372 -428.455 387.776C-1172.69 257.965 -1067.96 1267.48 -2065.33 612.412" stroke="white" stroke-width="0.25" stroke-miterlimit="10"/>
<path d="M2872.17 1023.12C2268.32 1120.95 2018.42 870.646 1714.67 611.839C1551.45 472.754 1441.73 366.09 1227.55 386.43C687.413 437.687 994.034 1149.43 226.486 1061.92C150.91 1053.3 109.214 1020.43 68.2027 977.269C-122.999 775.902 -110.517 447.451 -449.097 389.319C-1194.36 261.38 -1070.43 1267.28 -2065.26 626.972" stroke="white" stroke-width="0.25" stroke-miterlimit="10"/>
<path d="M2872.24 1004.93C2276.21 1104.15 2023.28 862.429 1713.23 607.486C1547.96 471.574 1437.13 367.717 1224.19 388.708C687.893 441.551 981.347 1141.74 216.267 1053.18C141.24 1044.47 99.3381 1011.97 57.7785 969.499C-138.566 769.027 -134.314 447.369 -469.74 390.701C-1216.03 264.674 -1072.9 1266.87 -2065.19 641.372" stroke="white" stroke-width="0.25" stroke-miterlimit="10"/>
<path d="M2872.31 986.79C2284.1 1087.35 2028.22 854.214 1711.73 603.176C1544.39 470.437 1432.47 369.387 1220.76 391.029C688.236 445.459 968.66 1134.09 205.98 1044.47C131.434 1035.73 89.4627 1003.51 47.3545 961.813C-154.134 762.277 -158.112 447.372 -490.382 392.209C-1237.77 268.094 -1075.37 1266.59 -2065.05 655.898" stroke="white" stroke-width="0.25" stroke-miterlimit="10"/>
<path d="M2872.31 968.644C2291.91 1070.59 2033.23 846.035 1710.22 598.862C1540.82 469.296 1427.8 371.053 1217.4 393.346C688.715 449.362 956.041 1126.44 195.761 1035.77C121.763 1026.94 79.5867 995.087 36.9984 954.122C-169.771 755.48 -181.841 447.369 -510.957 393.671C-1259.44 271.508 -1077.77 1266.3 -2064.91 670.378" stroke="white" stroke-width="0.25" stroke-miterlimit="10"/>
<path d="M2872.38 950.46C2299.8 1053.75 2038.3 837.776 1708.71 594.55C1537.39 468.116 1423.14 372.72 1213.97 395.664C689.058 453.267 943.353 1118.79 185.474 1027.06C112.025 1018.15 69.711 986.666 26.5055 946.433C-185.544 748.727 -205.707 447.409 -531.6 395.135C-1281.18 274.925 -1080.24 1265.98 -2064.85 684.859" stroke="white" stroke-width="0.25" stroke-miterlimit="10"/>
<path d="M2872.44 932.319C2307.69 1036.99 2043.45 829.52 1707.27 590.24C1534.03 466.938 1418.55 374.35 1210.61 397.985C689.47 457.175 930.735 1111.19 175.256 1018.4C102.287 1009.45 59.8357 978.287 16.1502 938.746C-201.317 741.976 -229.435 447.452 -552.173 396.602C-1302.85 278.344 -1082.64 1265.65 -2064.71 699.344" stroke="white" stroke-width="0.25" stroke-miterlimit="10"/>
<path d="M2872.44 914.136C2315.5 1020.15 2048.66 821.222 1705.69 585.888C1530.6 465.718 1413.88 375.978 1207.11 400.264C689.813 460.999 917.979 1103.5 164.9 1009.65C92.4799 1000.62 49.7542 969.827 5.58856 931.018C-217.297 735.224 -253.37 447.453 -572.953 398.067C-1324.8 281.803 -1085.25 1265.37 -2064.71 713.826" stroke="white" stroke-width="0.25" stroke-miterlimit="10"/>
<path d="M2872.51 895.991C2323.39 1003.39 2054.01 812.963 1704.25 581.575C1527.31 464.538 1409.29 377.645 1203.75 402.582C690.225 464.904 905.292 1095.89 154.751 1000.95C82.8788 991.834 39.9476 961.405 -4.69805 923.328C-233.07 728.47 -277.098 447.533 -593.458 399.531C-1346.47 285.301 -1087.58 1265.04 -2064.5 728.308" stroke="white" stroke-width="0.25" stroke-miterlimit="10"/>
<path d="M2872.58 877.808C2331.28 986.546 2059.43 804.624 1702.81 577.263C1524.09 463.318 1404.69 379.313 1200.46 404.901C690.773 468.81 892.742 1088.29 144.601 992.241C73.2091 983.088 30.0721 952.985 -14.985 915.641C-248.912 721.8 -300.758 447.615 -613.964 400.996C-1368.07 288.8 -1089.98 1264.72 -2064.3 742.791" stroke="white" stroke-width="0.25" stroke-miterlimit="10"/>
<path d="M2872.65 859.666C2339.16 969.787 2064.91 796.286 1701.3 572.952C1520.87 462.099 1400.03 380.941 1197.03 407.221C691.116 472.675 880.054 1080.68 134.314 983.537C63.4708 974.302 20.0593 944.565 -25.4779 907.913C-265.028 715.089 -324.693 447.657 -634.675 402.462C-1389.95 292.34 -1092.52 1264.43 -2064.23 757.274" stroke="white" stroke-width="0.25" stroke-miterlimit="10"/>
<path d="M2872.65 841.482C2347.05 952.946 2070.4 787.907 1699.79 568.6C1517.64 460.797 1395.36 382.569 1193.6 409.5C691.458 476.541 867.367 1073.03 124.026 974.832C53.7318 965.557 10.0462 936.186 -35.9024 900.225C-281.145 708.418 -348.491 447.739 -655.318 403.927C-1411.83 295.88 -1094.99 1264.11 -2064.16 771.757" stroke="white" stroke-width="0.25" stroke-miterlimit="10"/>
<path d="M2872.72 823.334C2354.94 936.181 2076.02 779.522 1698.28 564.283C1514.42 459.532 1390.7 384.233 1190.17 411.814C691.87 480.401 854.611 1065.42 113.74 966.122C43.9253 956.765 0.0341 927.76 -46.3261 892.531C-297.329 701.823 -372.356 447.857 -675.96 405.386C-1433.63 299.415 -1097.45 1263.82 -2064.09 786.234" stroke="white" stroke-width="0.25" stroke-miterlimit="10"/>
<path d="M2872.79 805.153C2362.82 919.342 2081.71 771.063 1696.84 559.974C1511.4 458.233 1386.11 385.863 1186.81 414.136C692.282 484.309 841.992 1057.86 103.521 957.419C34.2552 947.981 -9.9104 919.383 -56.7506 884.805C-313.515 695.195 -396.222 447.941 -696.534 406.813C-1455.44 302.997 -1099.85 1263.46 -2063.95 800.679" stroke="white" stroke-width="0.25" stroke-miterlimit="10"/>
<path d="M2872.79 787.012C2370.64 902.585 2087.41 762.604 1695.27 555.664C1508.18 456.933 1381.37 387.533 1183.38 416.456C692.625 488.175 829.305 1050.25 93.2341 948.716C24.5168 939.237 -19.9916 911.005 -67.1747 877.118C-329.837 688.647 -420.088 448.065 -717.177 408.32C-1477.25 306.66 -1102.32 1263.17 -2063.82 815.203" stroke="white" stroke-width="0.25" stroke-miterlimit="10"/>
<path d="M2872.86 768.865C2378.53 885.779 2093.24 754.057 1693.83 551.348C1505.23 455.628 1376.78 389.156 1180.02 418.771C693.104 492.036 816.617 1042.68 83.0156 940.006C14.7784 930.447 -30.0043 902.621 -77.5989 869.426C-346.227 682.094 -443.954 448.183 -737.82 409.781C-1499.13 310.277 -1104.79 1262.88 -2063.75 829.682" stroke="white" stroke-width="0.25" stroke-miterlimit="10"/>
<path d="M2872.92 750.683C2386.42 868.981 2099.13 745.476 1692.39 546.997C1502.21 454.247 1372.19 390.785 1176.66 421.051C693.516 495.862 803.999 1035.08 72.7976 931.303C5.10903 921.702 -39.9481 894.243 -87.9542 861.74C-362.549 675.628 -467.751 448.348 -758.394 411.248C-1520.94 313.941 -1107.19 1262.56 -2063.61 844.166" stroke="white" stroke-width="0.25" stroke-miterlimit="10"/>
<path d="M2872.92 732.536C2394.23 852.176 2105.03 736.848 1690.81 542.722C1499.13 452.901 1367.45 392.45 1173.17 423.408C693.79 499.764 791.174 1027.55 62.4419 922.634C-4.698 912.953 -50.098 885.9 -98.447 854.048C-379.077 669.156 -491.686 448.507 -779.105 412.709C-1542.95 317.639 -1109.73 1262.23 -2063.61 858.645" stroke="white" stroke-width="0.25" stroke-miterlimit="10"/>
<path d="M2872.99 714.356C2402.12 835.379 2111.07 728.147 1689.37 538.374C1496.25 451.481 1362.86 394.081 1169.87 425.69C694.271 503.592 778.624 1019.95 52.2925 913.892C-14.3674 904.17 -60.1105 877.524 -108.802 846.322C-395.536 662.692 -515.483 448.633 -799.679 414.177C-1564.76 321.386 -1112.13 1261.95 -2063.4 873.131" stroke="white" stroke-width="0.25" stroke-miterlimit="10"/>
<path d="M2873.06 696.212C2410.01 818.578 2117.17 719.4 1687.86 534.061C1493.23 450.057 1358.19 395.708 1166.44 428.008C694.682 507.456 765.869 1012.38 42.0054 905.186C-24.1058 895.382 -70.1917 869.144 -119.226 838.633C-412.132 656.346 -539.348 448.795 -820.321 415.641C-1586.63 325.168 -1114.6 1261.63 -2063.34 887.613" stroke="white" stroke-width="0.25" stroke-miterlimit="10"/>
<path d="M2873.06 678.026C2417.83 801.775 2123.21 710.571 1686.35 529.707C1490.28 448.55 1353.53 397.333 1163.02 430.284C695.025 511.278 753.181 1004.81 31.7184 896.438C-33.8442 886.593 -80.273 860.761 -129.719 830.902C-428.866 649.997 -563.283 448.956 -841.032 417.063C-1608.65 328.909 -1117.14 1261.26 -2063.34 902.052" stroke="white" stroke-width="0.25" stroke-miterlimit="10"/>
<path d="M2873.13 659.887C2425.78 784.978 2129.38 701.747 1684.91 525.439C1487.47 447.129 1348.94 399.005 1159.66 432.647C695.437 515.187 740.494 997.328 21.4998 887.817C-43.5827 877.892 -90.2858 852.507 -140.075 823.258C-445.531 643.736 -587.08 449.204 -861.538 418.613C-1630.46 332.818 -1119.47 1261.06 -2063.13 916.579" stroke="white" stroke-width="0.25" stroke-miterlimit="10"/>
<path d="M2873.2 641.699C2433.67 768.174 2135.62 692.754 1683.4 521.083C1484.52 445.581 1344.27 400.588 1156.23 434.922C695.779 518.968 727.738 989.719 11.2124 879.069C-53.3215 869.102 -100.436 844.124 -150.499 815.526C-462.265 637.469 -611.015 449.404 -882.181 420.033C-1652.4 336.639 -1122.01 1260.69 -2062.99 931.017" stroke="white" stroke-width="0.25" stroke-miterlimit="10"/>
<path d="M2873.27 623.557C2441.55 751.374 2141.86 683.763 1681.96 516.771C1481.71 444.035 1339.68 402.257 1152.93 437.241C696.259 522.833 715.187 982.193 1.06241 870.364C-62.9228 860.356 -110.38 835.785 -160.855 807.838C-478.999 631.327 -634.812 449.608 -902.755 421.498C-1674.28 340.545 -1124.41 1260.36 -2062.86 945.5" stroke="white" stroke-width="0.25" stroke-miterlimit="10"/>
<path d="M2873.27 605.411C2449.37 734.612 2148.1 674.73 1680.38 512.457C1478.69 442.487 1334.95 403.882 1149.44 439.558C696.533 526.695 702.363 974.706 -9.29326 861.656C-72.7985 851.567 -120.599 827.484 -171.348 800.107C-495.938 625.141 -658.747 449.81 -923.466 422.92C-1696.3 344.448 -1126.94 1260.04 -2062.86 959.939" stroke="white" stroke-width="0.25" stroke-miterlimit="10"/>
<path d="M2873.34 587.227C2457.26 717.769 2154.41 665.536 1678.94 508.145C1475.88 440.9 1330.35 405.509 1146.08 441.877C696.945 530.519 689.676 967.18 -19.5115 852.95C-82.468 842.821 -130.68 819.145 -181.704 792.418C-512.808 619.08 -682.613 450.054 -944.04 424.425C-1718.17 348.435 -1129.34 1259.75 -2062.72 974.461" stroke="white" stroke-width="0.25" stroke-miterlimit="10"/>
<path d="M2873.4 569.084C2465.15 701.01 2160.72 656.343 1677.44 503.833C1473 439.314 1325.69 407.136 1142.65 444.196C697.357 534.343 676.92 959.654 -29.7984 844.285C-92.2749 834.074 -140.83 810.887 -192.196 784.77C-529.816 613.1 -706.547 450.379 -964.751 425.931C-1740.26 352.503 -1131.88 1259.51 -2062.65 988.984" stroke="white" stroke-width="0.25" stroke-miterlimit="10"/>
<path d="M2873.4 550.903C2472.96 684.212 2166.96 647.03 1675.93 499.483C1470.12 437.649 1321.02 408.766 1139.22 446.477C697.631 538.17 664.164 952.131 -40.0856 835.542C-102.013 825.29 -150.911 802.55 -202.621 777.044C-546.824 607.123 -730.482 450.586 -985.394 427.357C-1762.2 356.533 -1134.35 1259.14 -2062.58 1003.43" stroke="white" stroke-width="0.25" stroke-miterlimit="10"/>
<path d="M2873.47 532.757C2480.85 667.408 2173.27 637.671 1674.49 495.168C1467.24 435.978 1316.43 410.391 1135.93 448.793C698.111 541.991 651.545 944.643 -50.2356 826.833C-111.615 816.541 -160.924 794.249 -212.976 769.312C-563.764 601.181 -754.279 450.827 -1005.9 428.778C-1784.08 360.598 -1136.68 1258.78 -2062.38 1017.87" stroke="white" stroke-width="0.25" stroke-miterlimit="10"/>
<path d="M2873.54 514.577C2488.74 650.611 2179.65 628.197 1672.98 490.86C1464.36 434.315 1311.77 412.022 1132.5 451.116C698.454 545.819 638.789 937.162 -60.5223 818.132C-121.421 807.759 -171.073 785.995 -223.4 761.627C-580.84 595.368 -778.213 451.157 -1026.54 430.288C-1806.02 364.793 -1139.15 1258.54 -2062.31 1032.39" stroke="white" stroke-width="0.25" stroke-miterlimit="10"/>
<path d="M2873.54 496.433C2496.56 633.81 2185.89 618.677 1671.47 486.548C1461.41 432.606 1307.03 413.649 1129.07 453.435C698.797 549.643 626.033 929.677 -70.8091 809.426C-131.16 799.012 -181.223 777.696 -233.824 753.939C-597.916 589.591 -802.079 451.441 -1047.18 431.752C-1828.04 368.982 -1141.62 1258.21 -2062.17 1046.88" stroke="white" stroke-width="0.25" stroke-miterlimit="10"/>
<path d="M2873.61 478.246C2504.51 617.006 2192.2 609.073 1669.96 482.192C1458.46 430.813 1302.37 415.232 1125.64 455.709C699.14 553.423 613.209 922.189 -81.0962 800.718C-140.967 790.263 -191.304 769.435 -244.317 746.247C-615.13 583.892 -826.013 451.763 -1067.9 433.213C-1850.05 373.25 -1144.16 1257.88 -2062.17 1061.36" stroke="white" stroke-width="0.25" stroke-miterlimit="10"/>
<path d="M2873.68 460.106C2512.4 600.208 2198.44 599.435 1668.52 477.883C1455.58 429.067 1297.78 416.863 1122.35 458.031C699.62 557.25 600.59 914.707 -91.2465 792.015C-150.568 781.479 -201.317 761.18 -254.604 738.521C-632.138 578.241 -849.811 452.051 -1088.4 434.68C-1871.93 377.565 -1146.49 1257.6 -2061.96 1075.84" stroke="white" stroke-width="0.25" stroke-miterlimit="10"/>
<path d="M2873.68 441.92C2520.22 583.406 2204.68 589.671 1666.94 473.57C1452.56 427.275 1293.04 418.489 1118.85 460.389C699.825 561.113 587.765 907.301 -101.602 783.349C-160.375 772.772 -211.536 752.92 -265.166 730.871C-649.42 572.707 -873.814 452.456 -1109.18 436.184C-1894.01 381.958 -1149.09 1257.31 -2062.03 1090.36" stroke="white" stroke-width="0.25" stroke-miterlimit="10"/>
<path d="M2873.75 423.777C2528.1 566.605 2210.85 579.866 1665.5 469.257C1449.61 425.445 1288.45 420.116 1115.49 462.708C700.237 564.937 575.009 899.857 -111.821 774.643C-170.114 764.026 -221.617 744.703 -275.521 723.183C-666.565 567.174 -897.612 452.782 -1129.76 437.649C-1915.96 386.392 -1151.5 1256.99 -2061.83 1104.84" stroke="white" stroke-width="0.25" stroke-miterlimit="10"/>
<path d="M2873.82 405.634C2535.99 549.845 2217.02 570.022 1664.06 464.946C1446.66 423.655 1283.79 421.743 1112.13 465.027C700.649 568.761 562.254 892.453 -122.038 765.938C-179.783 755.28 -231.629 736.445 -285.876 715.454C-683.71 561.683 -921.476 453.108 -1150.33 439.073C-1937.9 390.826 -1153.89 1256.66 -2061.69 1119.29" stroke="white" stroke-width="0.25" stroke-miterlimit="10"/>
<path d="M2873.88 387.447C2543.88 533.001 2223.2 560.053 1662.55 460.59C1443.58 421.74 1279.12 423.327 1108.7 467.302C700.923 572.501 549.498 884.966 -132.325 757.23C-189.59 746.49 -241.779 728.184 -296.369 707.763C-700.992 556.31 -945.411 453.471 -1170.97 440.576C-1959.85 395.421 -1156.43 1256.38 -2061.62 1133.81" stroke="white" stroke-width="0.25" stroke-miterlimit="10"/>
<path d="M2873.88 369.307C2551.69 516.244 2229.23 550.09 1661.04 456.322C1440.49 419.913 1274.46 424.998 1105.34 469.665C701.334 576.369 536.742 877.605 -142.544 748.568C-199.26 737.788 -251.792 720.01 -306.725 700.118C-718.137 551.066 -969.209 453.922 -1191.55 442.084C-1981.73 400.061 -1158.83 1256.09 -2061.42 1148.33" stroke="white" stroke-width="0.25" stroke-miterlimit="10"/>
<path d="M2873.95 351.122C2559.58 499.402 2235.27 540 1659.54 451.968C1437.41 418 1269.73 426.584 1101.91 471.942C701.609 580.111 523.918 870.16 -152.83 739.821C-209.066 729 -261.942 711.752 -317.149 692.388C-735.35 545.777 -993.074 454.247 -1212.19 443.507C-2003.74 404.698 -1161.3 1255.77 -2061.35 1162.77" stroke="white" stroke-width="0.25" stroke-miterlimit="10"/>
<path d="M2874.02 332.98C2567.47 482.642 2241.23 529.872 1658.1 447.657C1434.32 416.09 1265.13 428.172 1098.55 474.262C701.952 583.936 511.162 862.757 -163.05 731.116C-218.737 720.255 -271.955 703.536 -327.573 684.66C-752.633 540.53 -1016.94 454.613 -1232.83 444.932C-2025.69 409.418 -1163.77 1255.4 -2061.28 1177.22" stroke="white" stroke-width="0.25" stroke-miterlimit="10"/>
<path d="M2874.02 314.794C2575.29 465.799 2247.06 519.7 1656.52 443.302C1431.03 414.135 1260.19 429.553 1095.05 476.538C701.814 587.229 498.269 855.311 -173.405 722.369C-228.543 711.466 -282.105 695.275 -338.066 676.929C-769.915 535.402 -1040.88 455.018 -1253.54 446.394C-2047.7 414.216 -1166.31 1255.12 -2061.28 1191.7" stroke="white" stroke-width="0.25" stroke-miterlimit="10"/>
<path d="M2874.09 296.65C2583.24 449.038 2252.89 509.489 1655.08 439.031C1427.87 412.264 1255.6 431.261 1091.69 478.897C702.225 591.134 485.444 847.989 -183.556 713.744C-238.214 702.761 -292.118 687.139 -348.422 669.321C-787.061 530.399 -1064.6 455.506 -1274.12 447.94C-2069.51 419.22 -1168.71 1254.87 -2061.07 1206.22" stroke="white" stroke-width="0.25" stroke-miterlimit="10"/>
<path d="M2874.16 278.465C2591.13 432.196 2258.72 499.196 1653.64 434.677C1424.72 410.269 1251 432.887 1088.4 481.174C702.705 594.998 472.345 841.316 -193.705 704.997C-247.884 694.054 -302.062 678.921 -358.709 661.591C-804.137 525.394 -1088.33 455.912 -1294.62 449.363C-2091.32 424.141 -1171.04 1254.5 -2060.87 1220.66" stroke="white" stroke-width="0.25" stroke-miterlimit="10"/>
<path d="M2874.16 260.321C2598.95 415.434 2264.34 488.903 1652.06 430.364C1421.36 408.316 1246.27 434.513 1084.9 483.492C702.98 598.861 459.521 833.708 -204.061 696.291C-257.69 685.266 -312.212 670.702 -369.202 653.861C-821.35 520.43 -1112.2 456.318 -1315.33 450.826C-2113.26 429.225 -1173.58 1254.22 -2060.87 1235.14" stroke="white" stroke-width="0.25" stroke-miterlimit="10"/>
<path d="M2874.23 242.143C2606.83 398.598 2269.97 478.535 1650.62 426.017C1418.13 406.287 1241.68 436.146 1081.54 485.776C703.391 602.732 446.902 826.106 -214.279 687.55C-267.429 676.444 -322.156 662.491 -379.626 646.138C-838.564 515.514 -1136.07 456.731 -1335.91 452.256C-2135.07 434.316 -1175.98 1253.86 -2060.73 1249.59" stroke="white" stroke-width="0.25" stroke-miterlimit="10"/>
<path d="M2874.3 224C2614.72 381.839 2275.52 468.162 1649.11 421.705C818.469 360.116 699.071 937.245 -390.05 638.449C-2750.23 -9.05662 -961.666 1250.97 -2060.66 1264.07" stroke="white" stroke-width="0.25" stroke-miterlimit="10"/>
</g>
</g>
<defs>
<linearGradient id="paint0_linear_4014_34693" x1="0" y1="0" x2="2560" y2="1600" gradientUnits="userSpaceOnUse">
<stop stop-color="#F72585"/>
<stop offset="0.526042" stop-color="#7209B7"/>
<stop offset="1" stop-color="#4CC9F0"/>
</linearGradient>
<linearGradient id="paint1_linear_4014_34693" x1="1280" y1="0" x2="1280" y2="1600" gradientUnits="userSpaceOnUse">
<stop stop-color="#212121" stop-opacity="0"/>
<stop offset="1" stop-color="#212121"/>
</linearGradient>
<linearGradient id="paint2_linear_4014_34693" x1="1280" y1="0" x2="1280" y2="1600" gradientUnits="userSpaceOnUse">
<stop stop-color="#333333" stop-opacity="0"/>
<stop offset="1" stop-color="#333333"/>
</linearGradient>
<clipPath id="clip0_4014_34693">
<rect width="2560" height="1600" fill="white"/>
</clipPath>
</defs>
</svg>
