<svg width="119" height="41" viewBox="0 0 119 41" fill="none" xmlns="http://www.w3.org/2000/svg">
<path d="M20.3885 23.6113C22.2675 23.6113 23.7906 22.088 23.7906 20.2088C23.7906 18.3297 22.2675 16.8063 20.3885 16.8063C18.5096 16.8063 16.9863 18.3297 16.9863 20.2088C16.9863 22.088 18.5096 23.6113 20.3885 23.6113Z" fill="#E83090"/>
<path d="M59.8529 8.99957C58.0617 8.98379 56.2941 9.40761 54.7048 10.2339C53.1156 11.0602 51.7532 12.2636 50.7372 13.7389C49.7211 15.2142 49.0824 16.9162 48.877 18.6957C48.6715 20.4752 48.9056 22.278 49.5588 23.946C50.212 25.614 51.2642 27.0963 52.6234 28.2631C53.9826 29.4298 55.6071 30.2454 57.3546 30.6382C59.1023 31.031 60.9194 30.9892 62.6472 30.5164C64.3748 30.0435 65.9601 29.1541 67.2642 27.9261V29.9099H70.6978V20.472C70.7066 20.269 70.7117 20.0644 70.71 19.858C70.6759 16.9887 69.5211 14.2466 67.4924 12.2176C65.4636 10.1886 62.7217 9.03363 59.8529 8.99957ZM59.9001 27.4975C58.3957 27.5258 56.9171 27.1037 55.6545 26.2853C54.3917 25.4671 53.4025 24.2899 52.8137 22.9051C52.2249 21.5203 52.0636 19.9911 52.3502 18.5139C52.637 17.0366 53.3588 15.6789 54.4228 14.6149C55.4869 13.551 56.8447 12.8295 58.3218 12.5431C59.7989 12.2567 61.3279 12.4185 62.7124 13.0076C64.0969 13.5968 65.2737 14.5865 66.0916 15.8496C66.9097 17.1126 67.3313 18.5913 67.3026 20.0958C67.3026 20.1711 67.3026 20.2445 67.2921 20.318H67.2659V20.6872C67.0795 22.5256 66.2278 24.2325 64.8709 25.4868C63.514 26.741 61.7455 27.4562 59.8983 27.4975H59.9001Z" fill="white"/>
<path d="M83.773 8.99948C80.9368 8.97071 78.2008 10.0474 76.1448 12.0014V2.44983H72.7129V20.3179H72.7321C72.8039 22.4634 73.5043 24.5403 74.7466 26.291C75.9889 28.0415 77.7181 29.3884 79.7194 30.1643C81.7206 30.9402 83.9058 31.1107 86.0032 30.6549C88.1007 30.1992 90.018 29.137 91.5168 27.6003C93.0156 26.0638 94.0298 24.1207 94.4337 22.0124C94.8376 19.9041 94.6132 17.7236 93.7882 15.7419C92.963 13.7602 91.5739 12.0647 89.7934 10.8659C88.0128 9.66719 85.9194 9.01816 83.773 8.99948ZM83.815 27.4974C81.8539 27.5348 79.9553 26.8068 78.5218 25.4679C77.0882 24.1289 76.2326 22.2842 76.136 20.3249V19.557C76.2133 18.0897 76.7171 16.6771 77.5858 15.4923C78.4544 14.3075 79.6501 13.402 81.026 12.8872C82.4018 12.3722 83.8981 12.2703 85.3311 12.5939C86.7641 12.9173 88.0715 13.6523 89.0927 14.7084C90.1141 15.7643 90.8048 17.0957 91.0803 18.5387C91.3557 19.9819 91.204 21.4741 90.6435 22.8322C90.0831 24.1902 89.1384 25.3551 87.9253 26.1839C86.7123 27.0126 85.2837 27.4691 83.815 27.4974Z" fill="white"/>
<path d="M107.696 8.99849C106.241 8.98566 104.8 9.26264 103.453 9.81328C102.108 10.3639 100.885 11.1772 99.8562 12.2056C98.8287 13.2339 98.0151 14.457 97.464 15.803C96.9139 17.1491 96.6366 18.5915 96.6493 20.0458C96.6493 20.1367 96.6493 20.2207 96.6493 20.3169H96.6309V38.1868H100.062V27.883C101.357 29.11 102.932 30.002 104.65 30.4815C106.368 30.9609 108.177 31.0134 109.919 30.6342C111.662 30.255 113.286 29.4556 114.649 28.3056C116.013 27.1557 117.075 25.6899 117.742 24.0359C118.41 22.3819 118.664 20.5898 118.481 18.8154C118.298 17.0411 117.685 15.3383 116.694 13.8551C115.703 12.3719 114.365 11.1533 112.796 10.3054C111.226 9.45744 109.474 9.00579 107.69 8.98975L107.696 8.99849ZM107.745 27.4964C105.788 27.5335 103.893 26.8087 102.461 25.4751C101.029 24.1413 100.17 22.3031 100.068 20.3485V20.3169C100.068 20.142 100.055 19.9793 100.068 19.8079C100.098 18.3281 100.562 16.8897 101.403 15.6719C102.243 14.4539 103.423 13.5101 104.796 12.9579C106.17 12.4057 107.675 12.2694 109.125 12.5661C110.575 12.8627 111.905 13.5791 112.951 14.6264C113.997 15.6735 114.711 17.005 115.007 18.4555C115.302 19.9058 115.164 21.4109 114.61 22.7834C114.057 24.1559 113.111 25.3354 111.892 26.1749C110.674 27.0145 109.235 27.477 107.756 27.5051L107.745 27.4964Z" fill="white"/>
<path d="M20.3916 8.96673e-06C17.3007 -0.00289353 14.2498 0.698889 11.4707 2.05202V6.4342C13.9467 4.85335 16.7982 3.95853 19.7335 3.84128C22.6687 3.72401 25.5824 4.38851 28.1766 5.76682C30.7708 7.14512 32.9525 9.18778 34.4986 11.6858C36.0445 14.184 36.8994 17.0479 36.9756 19.9849V32.311C39.164 29.2606 40.4688 25.6659 40.7465 21.9221C41.0243 18.1782 40.2643 14.4302 38.55 11.0903C36.8358 7.75049 34.2338 4.94814 31.0302 2.99152C27.8265 1.03488 24.1453 -0.000234388 20.3916 8.96673e-06Z" fill="white"/>
<path d="M20.3899 36.9949C16.1293 36.9947 12.0323 35.3541 8.94894 32.4135C5.86569 29.4728 4.03266 25.4577 3.83037 21.2015H3.81115V8.51331C0.829625 12.6806 -0.475362 17.8169 0.155211 22.9021C0.785783 27.9873 3.30589 32.6492 7.21498 35.9618C11.1241 39.2744 16.136 40.9951 21.2551 40.7825C26.3744 40.5697 31.2262 38.4389 34.847 34.8134V28.5331C33.4056 31.1004 31.3065 33.2375 28.7657 34.7246C26.2249 36.2117 23.3339 36.9954 20.3899 36.9949Z" fill="white"/>
<path d="M20.3888 25.636C19.1561 25.6372 17.9587 25.2244 16.9885 24.464V28.3651C18.7573 29.0928 20.7131 29.2325 22.5674 28.7639C24.4219 28.2953 26.0764 27.243 27.2873 25.7623C28.4981 24.2816 29.2011 22.4508 29.2924 20.5401C29.3838 18.6295 28.8588 16.7401 27.7947 15.1506C26.7307 13.561 25.1841 12.3557 23.3829 11.7122C21.5817 11.0687 19.6214 11.0212 17.7912 11.5767C15.961 12.1321 14.3578 13.2613 13.218 14.7973C12.0782 16.3335 11.4622 18.1953 11.4609 20.1081V31.5787C12.4982 32.3955 13.6423 33.0664 14.8614 33.573V20.1029C14.8614 19.0095 15.1856 17.9407 15.7929 17.0316C16.4003 16.1226 17.2636 15.414 18.2735 14.9956C19.2836 14.5772 20.3949 14.4678 21.4671 14.681C22.5393 14.8943 23.5243 15.4208 24.2973 16.1939C25.0704 16.967 25.5968 17.952 25.81 19.0243C26.0234 20.0967 25.9138 21.2082 25.4956 22.2183C25.0772 23.2285 24.3687 24.0918 23.4597 24.6992C22.5507 25.3066 21.4821 25.6309 20.3888 25.6309V25.636Z" fill="white"/>
<path d="M9.3372 29.5244V20.2089C9.33823 17.8763 10.0773 15.6037 11.4487 13.7168C12.8201 11.8299 14.7532 10.4254 16.9715 9.70436C19.1897 8.98336 21.5792 8.98286 23.7977 9.70295C26.0163 10.423 27.95 11.8268 29.3222 13.7131C30.6943 15.5994 31.4344 17.8717 31.4364 20.2043C31.4384 22.5371 30.7023 24.8106 29.3335 26.6994C27.9646 28.5881 26.0333 29.9951 23.8161 30.7191C21.5988 31.4431 19.2093 31.4468 16.9898 30.7297V34.2634C19.4926 34.8694 22.1118 34.796 24.5766 34.0506C27.0414 33.3052 29.2625 31.9148 31.01 30.0233C32.7577 28.1318 33.9684 25.8079 34.5171 23.2917C35.0658 20.7755 34.9325 18.1584 34.1311 15.7109C33.3297 13.2636 31.8891 11.0746 29.9584 9.37046C28.0278 7.66632 25.677 6.50886 23.1492 6.0177C20.6213 5.52655 18.0083 5.71956 15.5801 6.57675C13.1518 7.43394 10.9966 8.92424 9.3372 10.8935V6.17021V3.25226C8.1062 4.04498 6.9638 4.96752 5.92969 6.00403V20.6428C6.02623 23.904 7.22765 27.0356 9.3372 29.5244Z" fill="white"/>
</svg>
