<svg xmlns="http://www.w3.org/2000/svg" viewBox="0 0 595.72 195.08"><defs><style>.cls-1{fill:#fff;}.cls-2{fill:#031649;}</style></defs><title>zero-logo-2</title><g id="Layer_2" data-name="Layer 2"><g id="Layer_1_copy" data-name="Layer 1 copy"><path class="cls-1" d="M32,32H141.82L173.38.39A30.22,30.22,0,0,0,168.5,0H30.94A30.94,30.94,0,0,0,0,30.94V168.5a30.22,30.22,0,0,0,.39,4.88L32,141.82Z"/><path class="cls-2" d="M163.13,163.13H53.26L21.7,194.69a31.4,31.4,0,0,0,4.88.39H164.14a30.94,30.94,0,0,0,30.94-30.94V26.58a31.4,31.4,0,0,0-.39-4.88L163.13,53.26Z"/><polyline class="cls-2" points="83.74 132.63 132.15 132.63 132.15 84.23"/><polyline class="cls-1" points="110.37 62.93 61.96 62.93 61.96 111.33"/><path class="cls-1" d="M313.68,150.27V170H234.77v-15.6l44.42-52.74H235.9V81.93h75.89V97.54l-44.43,52.73Z"/><path class="cls-1" d="M395.36,150.78V170H324.63V81.93h69.09v19.26H349.3V116h39.14v18.63H349.3v16.11Z"/><path class="cls-1" d="M447.72,146.62h-13.6V170H409.2V81.93h40.28q12,0,20.76,4a30.77,30.77,0,0,1,13.6,11.33,31.08,31.08,0,0,1,4.78,17.3,30.68,30.68,0,0,1-4.47,16.68,30.3,30.3,0,0,1-12.77,11.14l19,27.68H463.7ZM459.55,105q-3.92-3.41-11.58-3.4H434.12v25.8H448q7.66,0,11.58-3.34t3.9-9.5Q463.45,108.37,459.55,105Z"/><path class="cls-1" d="M521.66,165.88a45,45,0,0,1,0-79.79,56.19,56.19,0,0,1,50.21,0,45,45,0,0,1,0,79.79,56.19,56.19,0,0,1-50.21,0ZM558.85,148a22.61,22.61,0,0,0,8.55-8.87,29,29,0,0,0,0-26.31,22.67,22.67,0,0,0-8.55-8.87,24.76,24.76,0,0,0-24.17,0,22.7,22.7,0,0,0-8.56,8.87,29.13,29.13,0,0,0,0,26.31,22.63,22.63,0,0,0,8.56,8.87,24.76,24.76,0,0,0,24.17,0Z"/><path class="cls-2" d="M264.05,53.72H249l-2.8,6.92H235.94l15.71-35.58h9.91l15.76,35.58H266.85ZM261.1,46.3l-4.57-11.38L252,46.3Z"/><path class="cls-2" d="M287.58,60.28a20.42,20.42,0,0,1-6.6-2.85l3.3-7.42a21.24,21.24,0,0,0,5.54,2.54,20.9,20.9,0,0,0,6.2,1c3.86,0,5.8-1,5.8-2.9a2.41,2.41,0,0,0-1.66-2.26,30.24,30.24,0,0,0-5.31-1.55A51.57,51.57,0,0,1,288.14,45a11.33,11.33,0,0,1-4.62-3.18,8.58,8.58,0,0,1-1.93-5.9A10.25,10.25,0,0,1,283.36,30a12,12,0,0,1,5.32-4.14,21.77,21.77,0,0,1,8.66-1.52,30.83,30.83,0,0,1,6.91.78,21.26,21.26,0,0,1,6,2.32l-3.1,7.47a20.71,20.71,0,0,0-9.86-2.75,8.28,8.28,0,0,0-4.37.89,2.69,2.69,0,0,0-1.37,2.31,2.29,2.29,0,0,0,1.62,2.14A29.26,29.26,0,0,0,298.41,39a49.23,49.23,0,0,1,6.73,1.86A11.67,11.67,0,0,1,309.77,44a8.44,8.44,0,0,1,2,5.87A10,10,0,0,1,310,55.65a12.22,12.22,0,0,1-5.34,4.15A21.63,21.63,0,0,1,296,61.35,33,33,0,0,1,287.58,60.28Z"/><path class="cls-2" d="M344.31,26.66a12.08,12.08,0,0,1,7.42,11.56,12,12,0,0,1-7.42,11.51,20.29,20.29,0,0,1-8.39,1.6h-6.2v9.31H319.66V25.06h16.26A20.29,20.29,0,0,1,344.31,26.66ZM340,42.06a4.78,4.78,0,0,0,1.57-3.84A4.83,4.83,0,0,0,340,34.36,6.94,6.94,0,0,0,335.31,33h-5.59V43.41h5.59A7,7,0,0,0,340,42.06Z"/><path class="cls-2" d="M358.59,59.47a5.5,5.5,0,0,1-1.68-4.12,5.45,5.45,0,0,1,1.65-4.12,6.28,6.28,0,0,1,8.31,0,5.47,5.47,0,0,1,1.63,4.12,5.55,5.55,0,0,1-1.65,4.12,6.07,6.07,0,0,1-8.26,0Z"/><path class="cls-2" d="M410.63,25.06V60.64h-8.28l-15.71-19v19h-9.86V25.06h8.29l15.7,19v-19Z"/><path class="cls-2" d="M449.62,52.86v7.78H421.05V25.06H449v7.77H431v6h15.8v7.52H431v6.51Z"/><path class="cls-2" d="M466.09,33H455.16v-8H487v8H476.15v27.6H466.09Z"/></g></g></svg>