<svg xmlns="http://www.w3.org/2000/svg" viewBox="0 0 1232.46 300.98"><defs><style>.cls-1{fill:#fff;}</style></defs><title>volosoft-logo-light</title><g id="Layer_2" data-name="Layer 2"><g id="Layer_1-2" data-name="Layer 1"><g id="KsMsLV.tif"><path class="cls-1" d="M151.29,221.52,220.1,152.7,197.43,130l-21.27,21.27-25,25-25.19-25.2L78.06,103.25l25-25,71.5-71.51a46.54,46.54,0,0,0-57,6.9l-87.1,87.1Z"/><path class="cls-1" d="M287.36,117.59,200.74,31l-72.46,72.45L151,126.1l21.27-21.27,25-25L222.45,105l47.87,47.87L247.8,175.39l-2.5,2.51-68.82,68.81-25,25-145-145a46.53,46.53,0,0,0,7.14,56.62l104,104a46.52,46.52,0,0,0,65.81,0l104-104A46.53,46.53,0,0,0,287.36,117.59Z"/><path class="cls-1" d="M337.52,67.18h42.72l42,111.36h.48L465.44,67.18h40.08L435.44,237.1h-30Z"/><path class="cls-1" d="M483.2,178.78a61.11,61.11,0,0,1,5-25.2A57.87,57.87,0,0,1,502,134.26a60.94,60.94,0,0,1,20.64-12.36,76.36,76.36,0,0,1,50.64,0A61,61,0,0,1,594,134.26a58,58,0,0,1,13.8,19.32,65.52,65.52,0,0,1,0,50.4A58,58,0,0,1,594,223.3a61,61,0,0,1-20.64,12.36,76.36,76.36,0,0,1-50.64,0A60.94,60.94,0,0,1,502,223.3,57.87,57.87,0,0,1,488.24,204,61.11,61.11,0,0,1,483.2,178.78Zm36,0q0,13.2,7.56,21.36T548,208.3q13.68,0,21.24-8.16t7.56-21.36q0-13.2-7.56-21.36T548,149.26q-13.68,0-21.24,8.16T519.2,178.78Z"/><path class="cls-1" d="M628.39,55.66h36V237.1h-36Z"/><path class="cls-1" d="M680,178.78a61.11,61.11,0,0,1,5-25.2,58,58,0,0,1,13.8-19.32,60.94,60.94,0,0,1,20.64-12.36,76.36,76.36,0,0,1,50.64,0,60.94,60.94,0,0,1,20.64,12.36,58,58,0,0,1,13.8,19.32,65.52,65.52,0,0,1,0,50.4,58,58,0,0,1-13.8,19.32,60.94,60.94,0,0,1-20.64,12.36,76.36,76.36,0,0,1-50.64,0,60.94,60.94,0,0,1-20.64-12.36A58,58,0,0,1,685,204,61.11,61.11,0,0,1,680,178.78Zm36,0q0,13.2,7.56,21.36t21.24,8.16q13.68,0,21.24-8.16t7.56-21.36q0-13.2-7.56-21.36t-21.24-8.16q-13.68,0-21.24,8.16T716,178.78Z"/><path class="cls-1" d="M890.71,154.78q-7.92-9.84-20.88-9.84A19.64,19.64,0,0,0,861,147.1q-4.32,2.16-4.32,7.44,0,4.32,4.44,6.36a58.73,58.73,0,0,0,11.28,3.6L887,167.86a55,55,0,0,1,14.64,5.64,32.77,32.77,0,0,1,11.28,10.44q4.44,6.6,4.44,17.64,0,11.28-4.92,18.6a37.74,37.74,0,0,1-12.6,11.76,54.19,54.19,0,0,1-17.28,6.24,102.72,102.72,0,0,1-19,1.8,91.72,91.72,0,0,1-24.72-3.48,46.18,46.18,0,0,1-21.12-12.36l21.84-24.24a36.23,36.23,0,0,0,11.16,9.48A30.09,30.09,0,0,0,865,212.62a33.37,33.37,0,0,0,11.28-1.8q5-1.8,5-6.6,0-4.56-4.44-6.84a48.62,48.62,0,0,0-11.28-3.84L851,190.18a60.49,60.49,0,0,1-14.64-5.4,30.63,30.63,0,0,1-11.28-10.2q-4.44-6.6-4.44-17.64,0-10.32,4.2-17.76a36.9,36.9,0,0,1,11-12.24,47.77,47.77,0,0,1,15.72-7.08,72.1,72.1,0,0,1,18-2.28,84.44,84.44,0,0,1,23.28,3.36,43.18,43.18,0,0,1,19.92,12Z"/><path class="cls-1" d="M925.51,178.78a61.11,61.11,0,0,1,5-25.2,58,58,0,0,1,13.8-19.32A60.94,60.94,0,0,1,965,121.9a76.36,76.36,0,0,1,50.64,0,60.94,60.94,0,0,1,20.64,12.36,58,58,0,0,1,13.8,19.32,65.52,65.52,0,0,1,0,50.4,58,58,0,0,1-13.8,19.32,60.94,60.94,0,0,1-20.64,12.36,76.36,76.36,0,0,1-50.64,0,60.94,60.94,0,0,1-20.64-12.36A58,58,0,0,1,930.55,204,61.11,61.11,0,0,1,925.51,178.78Zm36,0q0,13.2,7.56,21.36t21.24,8.16q13.68,0,21.24-8.16t7.56-21.36q0-13.2-7.56-21.36t-21.24-8.16q-13.68,0-21.24,8.16T961.51,178.78Z"/><path class="cls-1" d="M1082.7,149.26h-23.76v-28.8h23.76V99.82a93.58,93.58,0,0,1,1.68-18.12,36.79,36.79,0,0,1,6.48-15q4.8-6.48,13.8-10.2t23.64-3.72q5.52,0,10.8.48a73.05,73.05,0,0,1,10.32,1.68l-1.68,30.48a42.33,42.33,0,0,0-5.76-1.8,27.19,27.19,0,0,0-6-.6q-8.64,0-13,3.72T1118.7,102v18.48h26.64v28.8H1118.7V237.1h-36Z"/><path class="cls-1" d="M1232.46,149.26h-31.68v38.88a73.18,73.18,0,0,0,.48,8.76,17.65,17.65,0,0,0,2.16,6.84,10.91,10.91,0,0,0,5.16,4.44,22.88,22.88,0,0,0,9.24,1.56,62.23,62.23,0,0,0,7.56-.6,12.81,12.81,0,0,0,7.08-2.76v30a54.47,54.47,0,0,1-12.48,2.88,115.15,115.15,0,0,1-12.72.72,69.2,69.2,0,0,1-16.8-1.92,38.32,38.32,0,0,1-13.44-6.12,28.66,28.66,0,0,1-9-10.92q-3.24-6.72-3.24-16.32V149.26h-23v-28.8h23V85.9h36v34.56h31.68Z"/></g></g></g></svg>