<?xml version="1.0" standalone="no"?>
<!DOCTYPE svg PUBLIC "-//W3C//DTD SVG 20010904//EN"
 "http://www.w3.org/TR/2001/REC-SVG-20010904/DTD/svg10.dtd">
<svg version="1.0" xmlns="http://www.w3.org/2000/svg"
 width="328.000000pt" height="328.000000pt" viewBox="0 0 328.000000 328.000000"
 preserveAspectRatio="xMidYMid meet">
<metadata>
Created by potrace 1.11, written by Peter Selinger 2001-2013
</metadata>
<g transform="translate(0.000000,328.000000) scale(0.100000,-0.100000)"
fill="#000000" stroke="none">
<path d="M2219 3266 c-58 -21 -105 -53 -155 -109 -26 -29 -42 -42 -35 -29 8
14 8 22 1 22 -5 0 -10 -5 -10 -12 0 -6 -6 -3 -14 8 -8 10 -18 16 -22 12 -4 -4
-13 -3 -20 3 -16 13 -68 3 -59 -11 3 -6 11 -10 16 -10 6 0 8 4 5 8 -3 5 1 9 9
9 8 0 15 -4 15 -8 0 -4 11 -6 25 -4 14 1 23 0 21 -3 -3 -2 0 -14 6 -26 15 -28
17 -55 4 -53 -6 1 -10 -3 -9 -10 2 -7 -4 -10 -12 -7 -8 4 -15 1 -15 -5 0 -6 6
-11 14 -11 10 0 15 -21 18 -83 3 -67 10 -92 33 -136 57 -104 167 -171 283
-171 75 0 120 14 180 54 l49 33 26 -23 c14 -12 23 -25 19 -29 -4 -4 -2 -5 3
-4 11 4 75 -57 75 -71 0 -4 7 -11 16 -14 8 -3 13 -10 10 -15 -12 -18 29 -36
86 -37 54 -1 67 4 51 19 -3 4 -12 2 -19 -4 -17 -14 -37 -2 -30 18 4 9 1 13 -6
10 -7 -2 -12 -10 -11 -16 4 -15 -14 -14 -20 2 -4 10 -6 10 -6 0 -1 -7 -8 -13
-16 -13 -9 0 -15 6 -13 14 2 8 -6 22 -17 31 -11 9 -15 14 -9 11 7 -3 17 1 24
10 12 13 10 14 -13 10 -17 -3 -26 0 -24 7 1 7 -6 11 -15 11 -10 -1 -15 3 -11
9 4 6 1 7 -7 2 -8 -5 -11 -4 -6 3 3 6 -4 18 -16 27 -13 8 -23 19 -23 23 0 4
-4 8 -10 8 -5 1 -14 2 -19 3 -5 0 -3 7 3 14 6 8 8 17 4 21 -4 4 3 9 15 13 12
3 19 9 16 15 -3 5 -1 14 4 21 15 20 32 103 32 161 0 174 -146 317 -323 316
-34 -1 -78 -7 -98 -14z"/>
<path d="M1504 3188 c-8 -13 18 -20 28 -7 6 10 7 6 2 -11 -6 -22 -5 -23 9 -11
9 7 15 16 13 20 -3 4 5 7 17 8 12 0 16 -1 9 -4 -6 -3 -9 -9 -6 -14 3 -6 0 -16
-6 -25 -11 -12 -9 -14 11 -10 13 3 26 5 29 5 3 1 -2 6 -10 11 -12 7 -12 12 -2
22 6 6 12 15 12 18 0 9 -101 7 -106 -2z"/>
<path d="M1626 3188 c3 -5 12 -7 20 -4 8 3 14 0 14 -6 0 -6 7 -5 18 3 15 13
16 12 3 -3 -9 -12 -10 -18 -2 -18 6 0 14 7 17 15 7 17 30 20 39 5 4 -6 -1 -7
-11 -3 -14 5 -15 3 -5 -15 7 -12 16 -22 22 -22 6 0 8 4 5 8 -2 4 -1 14 4 22 8
12 11 13 22 2 11 -11 10 -16 -5 -27 -14 -10 -15 -14 -5 -19 7 -3 4 -4 -8 -1
-14 4 -21 0 -21 -10 0 -17 3 -17 31 -6 11 4 20 14 22 23 1 9 5 24 8 35 4 12 2
20 -6 21 -87 8 -167 9 -162 0z"/>
<path d="M1391 3178 c-24 -4 -48 -11 -55 -16 -6 -5 -25 -8 -43 -7 -18 1 -30
-2 -27 -7 3 -5 12 -7 20 -4 8 3 14 2 14 -3 0 -13 29 -8 34 6 3 8 10 12 15 8 5
-3 12 -1 16 5 4 6 11 8 16 4 5 -3 7 -10 4 -15 -4 -5 -2 -16 3 -25 8 -15 10
-15 15 0 4 9 3 16 -2 16 -4 0 -8 7 -8 15 0 21 17 19 18 -2 1 -10 2 -22 4 -28
1 -5 3 -16 3 -23 1 -7 6 -11 10 -8 10 6 9 36 -2 55 -5 7 -3 18 3 24 9 9 10 7
5 -8 -7 -17 -6 -18 8 -7 9 7 18 9 20 5 3 -4 3 -1 1 7 -2 10 2 8 12 -4 8 -11
15 -16 15 -11 0 4 9 0 20 -10 11 -10 20 -14 20 -8 0 17 -44 48 -70 49 -14 0
-45 -3 -69 -8z"/>
<path d="M1806 3174 c-3 -9 -4 -20 0 -25 3 -5 0 -9 -7 -9 -7 0 -9 -3 -6 -7 4
-3 2 -12 -4 -19 -6 -7 -8 -18 -4 -24 9 -14 28 -1 21 16 -3 7 -1 16 5 20 5 3 7
14 4 24 -3 10 -1 21 4 25 7 4 8 -1 4 -12 -6 -16 -5 -16 11 -4 14 12 19 12 26
2 6 -11 9 -11 14 0 3 8 3 3 0 -10 -4 -16 -3 -21 5 -17 6 4 14 1 17 -8 3 -8 12
-12 20 -9 13 5 19 -8 15 -30 -1 -5 9 -5 21 -1 13 4 31 7 40 6 14 -1 15 2 6 18
-11 17 -13 17 -23 3 -14 -19 -39 -8 -31 14 5 11 1 13 -15 8 -25 -8 -43 13 -28
32 8 9 6 12 -8 11 -10 0 -32 2 -49 6 -24 4 -33 2 -38 -10z"/>
<path d="M1605 3170 c-6 -11 -3 -12 30 -14 14 -1 19 -7 17 -19 -3 -17 -2 -17
23 -1 14 9 28 14 32 10 3 -3 2 -6 -3 -6 -5 0 -10 -9 -10 -20 0 -13 5 -19 14
-15 7 3 17 5 20 5 4 0 0 5 -8 10 -10 7 -11 10 -2 10 10 0 10 4 0 19 -8 14 -16
17 -24 10 -7 -6 -21 -4 -40 6 -34 18 -41 18 -49 5z"/>
<path d="M1551 3156 c-7 -8 -9 -21 -5 -27 4 -7 3 -9 -3 -6 -6 4 -16 1 -22 -6
-8 -11 -5 -14 19 -14 24 0 27 3 20 17 -6 11 -5 21 2 28 7 7 9 14 6 17 -3 3
-11 -1 -17 -9z"/>
<path d="M1755 3160 c-3 -5 -1 -10 4 -10 6 0 11 5 11 10 0 6 -2 10 -4 10 -3 0
-8 -4 -11 -10z"/>
<path d="M1365 3150 c-4 -6 -10 -8 -15 -5 -4 3 -11 -2 -14 -11 -9 -24 -7 -31
5 -14 8 11 9 9 3 -10 -6 -23 -5 -24 10 -11 15 13 19 13 27 0 5 -8 9 -18 9 -24
0 -5 5 -3 11 5 8 12 9 10 4 -8 -6 -21 -5 -23 12 -13 11 5 29 8 40 5 12 -4 22
0 26 9 3 7 -1 14 -9 14 -7 0 -11 -4 -8 -9 3 -4 1 -8 -5 -8 -14 0 -25 20 -12
21 6 1 17 2 23 3 7 0 14 10 16 21 3 17 1 18 -8 5 -9 -12 -10 -11 -6 5 5 15 1
21 -13 22 -14 1 -18 -4 -17 -21 2 -13 -3 -31 -10 -40 -11 -16 -13 -16 -19 3
-3 12 -10 19 -15 16 -11 -7 -33 32 -25 45 3 6 4 10 1 10 -3 0 -8 -5 -11 -10z"/>
<path d="M1835 3150 c-3 -5 -3 -10 2 -10 4 0 0 -5 -10 -11 -9 -6 -15 -15 -11
-20 3 -5 0 -17 -7 -25 -10 -13 -14 -12 -30 2 -15 14 -21 14 -34 4 -8 -7 -15
-8 -15 -3 0 5 -15 10 -32 10 -18 0 -27 -2 -20 -5 6 -2 10 -7 8 -11 -3 -4 14
-8 37 -9 45 -1 110 -8 167 -18 19 -3 41 -6 48 -7 6 0 12 -4 12 -8 0 -4 11 2
24 14 13 12 22 26 19 30 -3 5 -8 5 -12 1 -9 -13 -42 -14 -62 -3 -12 6 -19 4
-23 -6 -3 -8 -11 -15 -18 -15 -9 0 -9 3 2 10 8 5 11 12 7 16 -3 4 -13 2 -20
-5 -11 -9 -17 -8 -27 4 -9 11 -9 15 -1 15 7 0 10 4 6 9 -3 5 -1 12 4 16 6 3 8
-6 5 -21 -4 -23 -3 -25 10 -15 8 7 20 10 26 6 13 -8 13 5 0 25 -9 13 -10 13
-10 0 -1 -8 -7 -3 -16 13 -16 30 -20 32 -29 17z m0 -70 c3 -5 1 -10 -4 -10 -6
0 -11 5 -11 10 0 6 2 10 4 10 3 0 8 -4 11 -10z m100 -20 c3 -6 -1 -7 -9 -4
-18 7 -21 14 -7 14 6 0 13 -4 16 -10z"/>
<path d="M1490 3144 c0 -17 17 -36 24 -26 3 5 -1 15 -9 22 -8 7 -15 9 -15 4z"/>
<path d="M1617 3139 c-9 -6 -15 -14 -12 -20 4 -5 1 -9 -5 -9 -6 0 -9 -4 -5
-10 3 -5 12 -7 20 -4 8 4 12 11 8 17 -3 5 2 16 12 24 22 15 8 17 -18 2z"/>
<path d="M1205 3131 c-3 -6 -14 -8 -25 -6 -11 2 -20 -1 -20 -7 0 -6 -3 -9 -6
-5 -4 3 -19 0 -34 -8 -15 -8 -31 -11 -35 -7 -5 4 -5 1 -1 -5 4 -8 1 -13 -8
-14 -34 -3 -86 -28 -86 -42 0 -5 8 -3 17 4 11 10 14 10 9 2 -10 -17 2 -16 19
1 8 7 11 17 7 21 -4 5 -1 5 5 1 7 -4 22 -2 33 4 17 9 25 6 45 -14 28 -28 30
-27 14 8 -7 14 -16 23 -22 19 -6 -3 -7 -1 -3 6 4 6 12 9 17 6 5 -4 9 -2 9 4 0
5 12 8 26 5 18 -3 23 -1 18 7 -5 8 -3 9 6 4 7 -4 16 -2 22 6 8 11 8 10 4 -4
-4 -12 -2 -17 6 -14 7 2 12 10 11 16 -2 6 2 11 7 11 6 0 10 -6 10 -12 0 -9 4
-8 10 2 6 10 10 11 10 3 0 -7 7 -13 15 -13 23 0 18 17 -7 24 -34 9 -66 7 -73
-3z"/>
<path d="M1956 3131 c-4 -7 -5 -15 -2 -18 9 -9 19 4 14 18 -4 11 -6 11 -12 0z"/>
<path d="M1307 3116 c-4 -9 -2 -27 3 -41 6 -16 6 -27 -2 -31 -7 -5 -8 -2 -3 6
6 10 4 12 -11 6 -10 -4 -23 -8 -29 -9 -5 -1 -16 -8 -23 -15 -8 -7 -18 -10 -22
-7 -5 3 -18 0 -30 -7 -36 -23 -21 -27 29 -8 28 10 53 15 57 11 4 -3 4 0 -1 8
-6 10 -2 12 13 7 11 -4 23 -3 25 1 3 5 20 10 38 11 18 1 35 4 37 6 8 8 -19 46
-29 41 -5 -4 -7 -10 -4 -15 6 -9 -20 -21 -29 -13 -3 4 -6 11 -6 17 0 6 5 4 10
-4 14 -22 11 1 -4 29 -11 20 -14 21 -19 7z"/>
<path d="M1575 3120 c-3 -5 -1 -10 4 -10 6 0 11 5 11 10 0 6 -2 10 -4 10 -3 0
-8 -4 -11 -10z"/>
<path d="M1630 3120 c0 -5 5 -10 11 -10 5 0 7 5 4 10 -3 6 -8 10 -11 10 -2 0
-4 -4 -4 -10z"/>
<path d="M1643 3107 c-40 -27 -41 -33 -3 -33 17 0 29 4 29 10 -3 24 2 37 11
31 6 -3 10 -1 10 4 0 15 -10 12 -47 -12z"/>
<path d="M1231 3097 c-6 -8 -9 -23 -5 -33 4 -14 3 -16 -4 -5 -8 11 -10 11 -15
0 -5 -12 -8 -11 -17 1 -9 12 -10 10 -5 -10 5 -19 4 -21 -4 -10 -6 8 -8 22 -5
32 6 21 -7 30 -26 17 -13 -8 -13 -10 0 -19 8 -5 11 -10 7 -10 -4 0 -3 -9 3
-19 8 -16 7 -19 -8 -16 -9 2 -20 4 -25 4 -4 1 -6 5 -5 10 2 5 -1 9 -7 10 -5 0
-10 -7 -10 -17 0 -9 -3 -22 -8 -29 -5 -8 -1 -11 13 -10 13 1 19 6 15 15 -3 7
0 10 6 7 12 -8 7 -29 -7 -31 -25 -4 -54 -17 -54 -25 0 -13 5 -11 44 10 19 11
37 17 42 13 4 -4 5 0 2 8 -3 9 7 23 28 37 19 12 34 17 34 11 0 -7 5 -6 15 2 8
7 12 16 9 21 -3 5 0 9 5 9 6 0 11 4 11 10 0 5 -8 7 -17 4 -15 -5 -15 -4 -3 5
8 5 12 13 9 16 -4 3 -11 -1 -18 -8z"/>
<path d="M1263 3080 c0 -25 3 -28 19 -19 10 5 18 14 18 19 0 5 -8 14 -18 19
-16 9 -19 6 -19 -19z"/>
<path d="M1910 3100 c0 -5 5 -10 11 -10 5 0 7 5 4 10 -3 6 -8 10 -11 10 -2 0
-4 -4 -4 -10z"/>
<path d="M1190 3085 c0 -8 5 -15 10 -15 6 0 10 7 10 15 0 8 -4 15 -10 15 -5 0
-10 -7 -10 -15z"/>
<path d="M1493 3086 c1 -6 6 -14 11 -18 12 -8 37 2 30 13 -3 5 0 9 5 9 6 0 11
-4 11 -9 0 -4 9 -8 20 -7 11 0 19 5 18 11 -4 14 -97 15 -95 1z"/>
<path d="M1056 3045 c-21 -14 -42 -23 -47 -20 -11 8 -11 3 0 -28 5 -13 5 -30
1 -37 -7 -11 -11 -11 -26 1 -16 13 -17 12 -11 -4 4 -10 7 -21 7 -23 0 -3 5 -2
10 1 6 4 17 1 25 -5 11 -9 15 -9 15 -1 0 6 7 11 16 11 10 0 14 6 11 14 -4 9 2
17 13 21 11 3 19 9 19 13 -1 4 0 9 1 12 3 7 8 70 5 70 -1 0 -19 -11 -39 -25z
m19 -5 c-3 -5 -1 -10 4 -10 6 0 11 -5 11 -11 0 -5 -4 -7 -10 -4 -5 3 -10 2
-10 -4 0 -5 -9 -8 -21 -6 -13 3 -19 0 -16 -8 2 -7 13 -11 23 -9 18 2 18 2 1
-8 -9 -6 -15 -15 -12 -20 3 -4 -2 -11 -10 -14 -12 -4 -13 -2 -6 13 7 12 6 22
-1 29 -15 15 8 43 28 35 8 -3 14 -2 13 3 -2 14 0 24 7 24 3 0 2 -4 -1 -10z"/>
<path d="M960 3029 c0 -5 6 -7 13 -3 9 6 9 4 -1 -8 -8 -10 -9 -19 -3 -22 5 -3
12 0 15 6 3 7 3 3 1 -9 -6 -23 9 -40 20 -23 3 5 1 10 -5 10 -6 0 -8 4 -5 10 7
12 -12 50 -25 50 -6 0 -10 -5 -10 -11z"/>
<path d="M940 3020 c0 -6 -4 -8 -10 -5 -15 9 -12 -1 4 -14 10 -9 15 -8 19 3 4
9 2 18 -3 21 -6 4 -10 1 -10 -5z"/>
<path d="M900 3000 c0 -5 -7 -10 -15 -10 -8 0 -15 -8 -15 -17 0 -13 3 -14 11
-6 6 6 18 9 27 6 11 -5 13 -3 7 8 -8 12 -6 12 8 0 11 -8 17 -9 17 -3 0 6 -9
16 -20 22 -14 7 -20 7 -20 0z"/>
<path d="M949 2983 c0 -5 -2 -18 -5 -30 -2 -15 1 -22 9 -20 7 1 11 -8 11 -21
-1 -17 1 -21 10 -12 8 8 6 19 -6 40 -9 17 -13 30 -8 30 6 0 10 5 10 10 0 11
-20 14 -21 3z"/>
<path d="M828 2956 c-13 -10 -15 -15 -6 -24 17 -17 33 -15 19 1 -15 19 -2 28
22 15 16 -8 22 -8 25 1 3 9 7 9 18 0 10 -8 18 -9 25 -2 8 8 7 13 0 17 -6 4
-11 2 -11 -5 0 -8 -4 -9 -13 0 -10 7 -17 7 -24 0 -8 -8 -13 -8 -17 0 -9 14
-17 13 -38 -3z"/>
<path d="M851 2932 c10 -16 17 -19 32 -10 15 7 18 7 12 -2 -5 -9 -2 -10 13 -6
24 8 34 -4 21 -24 -5 -8 -9 -10 -9 -5 0 6 -5 3 -11 -5 -9 -12 -10 -12 -5 3 4
12 2 17 -6 14 -7 -2 -12 -14 -11 -25 2 -18 -2 -20 -28 -17 -24 3 -29 0 -25
-11 4 -9 -4 -19 -19 -26 -24 -11 -32 -34 -10 -26 6 2 9 6 8 11 -2 4 3 7 9 7 7
0 38 17 68 37 30 20 56 38 58 39 9 5 8 41 -1 42 -61 6 -86 10 -96 17 -9 5 -9
2 0 -13z"/>
<path d="M775 2920 c-3 -5 -4 -14 0 -19 3 -5 1 -12 -4 -15 -5 -4 -13 -1 -17 5
-5 8 -3 9 6 4 9 -6 11 -4 6 4 -6 9 -13 8 -29 -6 -41 -36 -57 -53 -49 -54 4 -1
-4 -4 -18 -8 -14 -4 -24 -13 -22 -19 1 -7 -2 -12 -8 -12 -19 0 -10 -16 10 -17
17 -1 18 1 10 17 -8 16 -6 18 15 15 23 -2 30 6 26 28 -1 4 8 3 19 -3 11 -6 20
-7 20 -3 0 4 7 -3 16 -15 12 -18 13 -26 4 -37 -10 -11 -10 -15 -1 -15 7 0 9
-5 5 -12 -5 -9 -2 -8 9 1 11 8 15 21 12 32 -5 14 1 22 19 30 14 7 23 16 20 20
-3 5 -16 2 -29 -7 -23 -15 -43 -5 -30 16 3 5 -7 8 -25 5 -17 -2 -28 0 -25 5 3
5 13 7 23 4 13 -5 14 -4 3 4 -9 7 -10 12 -2 16 6 4 11 2 11 -3 0 -15 25 -14
39 2 8 10 8 16 -1 25 -8 8 -6 10 8 7 20 -3 20 -25 1 -37 -13 -8 -7 -10 50 -12
17 -1 29 2 26 7 -2 4 1 15 9 24 11 14 11 16 -3 11 -9 -4 -29 0 -44 8 -32 17
-51 18 -60 4z m80 -29 c3 -5 0 -13 -6 -17 -8 -4 -9 -3 -5 4 4 7 2 12 -3 12 -6
0 -11 -5 -11 -12 0 -6 -3 -9 -6 -5 -7 7 4 27 16 27 5 0 11 -4 15 -9z"/>
<path d="M990 2919 c0 -5 5 -7 10 -4 6 3 10 8 10 11 0 2 -4 4 -10 4 -5 0 -10
-5 -10 -11z"/>
<path d="M776 2853 c-4 -9 -4 -18 -1 -21 3 -3 5 0 5 7 0 7 4 10 9 6 5 -3 12
-1 15 4 3 5 0 11 -8 14 -8 3 -17 -1 -20 -10z"/>
<path d="M706 2815 c-3 -8 -12 -12 -21 -9 -8 3 -15 1 -15 -6 0 -6 5 -8 10 -5
6 3 10 2 10 -3 0 -12 -29 -24 -40 -17 -5 3 -11 1 -14 -4 -4 -5 -1 -13 5 -17 8
-5 9 -3 4 6 -5 9 -4 11 4 6 6 -4 8 -12 5 -18 -5 -8 -1 -9 10 -5 10 4 21 7 24
7 4 0 0 5 -8 11 -12 8 -11 9 5 5 16 -5 21 -1 22 15 1 12 7 27 13 33 8 8 9 6 4
-9 -7 -18 -6 -19 12 -5 18 14 18 14 5 -2 -8 -11 -9 -18 -3 -18 21 0 25 23 7
37 -24 17 -32 16 -39 -2z"/>
<path d="M2621 2806 c-10 -12 -10 -41 2 -52 4 -4 7 -2 7 6 0 10 4 10 17 -1 15
-12 16 -12 10 4 -4 11 -3 16 4 12 5 -4 7 -15 4 -24 -3 -12 0 -18 10 -18 10 0
14 6 10 16 -5 12 -3 13 5 5 11 -11 4 -44 -10 -44 -5 0 -12 5 -15 10 -3 6 -11
10 -17 10 -7 0 -7 -4 0 -13 6 -7 7 -18 3 -26 -6 -9 -11 -10 -15 -2 -4 6 -2 11
4 11 6 0 8 5 5 10 -4 6 -11 7 -17 4 -7 -5 -8 -2 -3 6 5 8 4 11 -3 6 -6 -3 -14
-1 -18 5 -5 8 -3 9 6 4 8 -5 11 -3 8 6 -3 8 -13 16 -24 18 -10 2 -16 0 -12 -4
4 -5 2 -15 -5 -23 -9 -13 -9 -14 0 -8 8 4 32 -12 64 -44 38 -38 54 -48 64 -40
16 14 28 -13 13 -28 -8 -8 -8 -15 0 -25 7 -8 8 -18 4 -22 -4 -5 -2 -5 5 -2 6
4 10 23 9 42 -2 19 1 33 6 32 6 -1 15 6 21 16 10 15 8 21 -10 36 -12 10 -21
20 -19 22 2 2 -21 27 -50 56 -39 38 -55 49 -63 39z m24 -16 c3 -5 1 -10 -4
-10 -6 0 -11 5 -11 10 0 6 2 10 4 10 3 0 8 -4 11 -10z m70 -81 c-4 -5 -2 -9 4
-9 16 0 42 -31 35 -41 -3 -6 -13 -8 -21 -5 -9 4 -21 2 -27 -3 -7 -6 -16 -3
-25 6 -12 13 -11 14 10 8 23 -7 23 -6 7 11 -15 15 -20 15 -35 4 -17 -13 -17
-13 -1 5 14 15 19 16 33 5 14 -12 15 -10 11 14 -3 15 -1 24 5 21 5 -4 7 -11 4
-16z"/>
<path d="M2716 2681 c-3 -5 1 -12 10 -15 22 -8 25 -4 9 11 -8 7 -16 9 -19 4z"/>
<path d="M593 2766 c-25 -24 -29 -41 -11 -52 7 -5 9 0 6 14 -4 16 -2 19 11 15
14 -4 14 -3 1 6 -8 6 -10 11 -4 11 5 0 19 -7 30 -15 18 -14 18 -15 0 -8 -18 6
-18 5 -1 -20 9 -15 22 -24 31 -20 8 3 11 9 8 14 -3 5 -10 7 -15 4 -5 -3 -6 0
-3 8 3 8 -2 20 -10 27 -9 7 -14 16 -11 20 12 19 -12 16 -32 -4z"/>
<path d="M726 2764 c10 -8 14 -13 7 -9 -19 9 -78 -24 -65 -37 13 -13 35 -1 26
14 -4 7 -2 8 5 4 15 -10 -2 -32 -31 -42 -11 -3 -17 -12 -14 -19 3 -10 0 -12
-12 -8 -15 6 -15 5 -3 -10 13 -16 14 -16 26 0 7 10 11 21 9 25 -3 5 0 8 6 8
16 0 70 52 70 66 0 7 -7 15 -16 18 -26 10 -29 7 -8 -10z"/>
<path d="M2630 2739 c0 -5 5 -7 10 -4 6 3 10 8 10 11 0 2 -4 4 -10 4 -5 0 -10
-5 -10 -11z"/>
<path d="M596 2715 c-3 -8 -1 -15 4 -15 13 0 22 18 11 24 -5 3 -11 -1 -15 -9z"/>
<path d="M542 2708 c-15 -15 -16 -38 -1 -38 5 0 7 4 4 10 -4 6 1 7 12 3 16 -6
17 -5 3 13 -14 18 -14 18 3 5 17 -13 17 -16 4 -26 -14 -10 -13 -13 4 -23 17
-11 20 -10 17 5 -2 13 3 18 19 18 13 0 22 5 20 10 -1 6 -12 9 -23 7 -12 -1
-24 4 -28 13 -7 18 -18 19 -34 3z"/>
<path d="M503 2665 c-7 -7 -8 -17 -2 -26 8 -13 13 -5 10 14 -1 5 3 6 9 2 6 -3
8 -10 5 -15 -3 -4 3 -14 12 -21 14 -12 15 -11 10 11 -4 14 -4 19 -1 12 3 -6
10 -10 14 -7 5 3 12 0 16 -6 5 -8 3 -9 -6 -4 -9 6 -10 1 -5 -16 5 -19 4 -21
-5 -9 -9 13 -10 12 -7 -5 2 -11 9 -19 16 -17 7 1 9 -2 5 -9 -5 -8 -3 -9 5 -5
7 5 10 15 7 23 -3 8 3 26 14 40 11 14 20 21 20 16 0 -6 -7 -16 -15 -23 -16
-13 -20 -30 -7 -30 4 0 16 13 25 30 17 28 17 29 -2 40 -22 11 -42 14 -24 2 7
-4 9 -13 4 -21 -7 -10 -17 -8 -47 12 -31 19 -42 22 -51 12z"/>
<path d="M2761 2634 c-23 -30 -24 -33 -12 -52 6 -10 10 -10 21 3 10 12 10 18
-1 33 -13 15 -12 16 4 3 12 -9 17 -10 17 -2 0 7 5 9 11 5 7 -4 8 -9 1 -13 -5
-3 -10 -18 -10 -33 1 -28 11 -37 23 -18 10 17 21 11 33 -16 7 -14 8 -23 3 -20
-5 3 -12 -1 -15 -10 -9 -23 -7 -28 7 -17 6 6 19 10 28 10 20 0 53 -63 39 -72
-6 -3 -10 -11 -10 -17 0 -6 7 -5 18 3 9 7 14 9 10 5 -4 -5 0 -15 10 -23 9 -8
12 -12 6 -9 -13 7 -29 -10 -38 -40 -4 -15 -2 -21 9 -21 10 0 14 6 10 15 -7 19
3 32 20 26 8 -4 13 -10 10 -14 -3 -5 -1 -11 4 -14 18 -12 21 13 4 30 -10 10
-16 19 -14 21 6 7 -60 123 -70 123 -5 0 -9 7 -9 15 0 8 -4 15 -9 15 -5 0 -11
10 -14 21 -4 14 -11 20 -21 16 -8 -3 -18 -1 -22 5 -4 7 -3 8 4 4 19 -11 14 13
-7 40 l-19 24 -21 -26z m4 -34 c3 -5 1 -10 -4 -10 -6 0 -11 5 -11 10 0 6 2 10
4 10 3 0 8 -4 11 -10z"/>
<path d="M466 2622 c-17 -20 -17 -63 2 -70 12 -4 11 16 -2 36 -5 8 -3 19 3 25
9 9 11 8 6 -4 -3 -9 1 -21 8 -28 12 -10 14 -7 13 18 -2 39 -9 45 -30 23z"/>
<path d="M506 2615 c-3 -8 -3 -21 0 -29 3 -8 -4 -23 -17 -34 l-21 -21 31 1
c25 1 29 4 19 15 -8 11 -8 17 2 26 10 10 11 9 5 -2 -5 -9 -1 -19 10 -28 11 -7
13 -13 6 -13 -7 0 -9 -5 -5 -12 4 -6 3 -8 -3 -5 -6 4 -20 -9 -32 -28 -15 -25
-25 -33 -37 -28 -13 5 -15 3 -9 -7 5 -8 4 -11 -2 -7 -6 4 -13 0 -17 -8 -7 -18
-2 -19 27 -4 23 12 62 49 52 49 -4 0 7 14 24 31 25 25 29 34 21 50 -6 10 -15
19 -20 19 -5 0 -7 6 -4 13 3 8 -2 19 -9 26 -12 9 -16 8 -21 -4z m19 -15 c3 -5
1 -10 -4 -10 -6 0 -11 5 -11 10 0 6 2 10 4 10 3 0 8 -4 11 -10z m29 -46 c3 -8
2 -12 -4 -9 -6 3 -10 10 -10 16 0 14 7 11 14 -7z"/>
<path d="M420 2558 c-8 -13 -13 -26 -12 -30 1 -5 -2 -8 -6 -8 -4 0 -8 -11 -8
-25 0 -14 5 -24 11 -21 5 2 9 9 7 16 -1 7 2 18 9 26 6 7 8 18 4 25 -6 8 -2 8
13 0 23 -12 34 -35 26 -55 -11 -28 16 -26 31 3 18 36 20 50 3 30 -7 -8 -12
-13 -12 -11 1 2 -9 15 -22 29 -13 14 -21 29 -18 34 12 20 -12 7 -26 -13z"/>
<path d="M431 2516 c-11 -13 -11 -19 0 -33 7 -10 9 -15 5 -11 -5 4 -15 3 -22
-3 -15 -12 -37 -3 -29 12 4 5 1 9 -4 9 -6 0 -11 -6 -11 -14 0 -8 -3 -16 -7
-19 -5 -2 -2 -2 4 -1 7 2 12 -2 10 -8 -1 -7 7 -13 18 -15 15 -3 16 -2 7 5 -11
7 -9 10 7 15 17 4 19 2 11 -13 -5 -10 -16 -20 -25 -24 -8 -3 -15 -10 -15 -16
0 -7 6 -8 18 -1 26 14 65 97 54 116 -8 15 -10 15 -21 1z m19 -16 c0 -5 -4 -10
-10 -10 -5 0 -10 5 -10 10 0 6 5 10 10 10 6 0 10 -4 10 -10z"/>
<path d="M2742 2520 c3 -8 13 -14 22 -14 9 1 16 -3 16 -8 0 -6 8 -4 17 3 15
12 16 12 8 -1 -15 -24 -14 -38 2 -44 11 -5 13 -1 8 17 -4 14 -3 18 3 9 6 -9 9
-3 9 18 0 17 -3 27 -6 23 -8 -11 -35 -10 -43 2 -5 6 -8 5 -8 -4 0 -11 -3 -11
-17 0 -14 12 -16 12 -11 -1z"/>
<path d="M1505 2513 c-224 -48 -396 -157 -516 -327 -110 -155 -144 -270 -144
-476 1 -136 3 -151 32 -236 93 -269 270 -440 545 -526 99 -31 327 -33 428 -4
304 89 527 335 581 640 11 66 8 247 -5 309 -31 142 -127 310 -233 408 -107 99
-243 173 -380 205 -33 8 -279 14 -308 7z"/>
<path d="M2835 2470 c-17 -32 -20 -54 -5 -30 6 9 10 10 10 3 0 -17 -14 -23
-30 -12 -8 5 -10 9 -5 9 6 0 3 5 -5 10 -8 5 -15 15 -15 22 0 7 -8 14 -18 16
-18 4 -18 3 0 -17 10 -12 17 -24 15 -27 -2 -3 7 -14 20 -24 13 -11 19 -19 15
-20 -5 0 0 -12 11 -27 10 -16 21 -34 24 -42 4 -15 48 -23 48 -9 0 8 -16 12
-33 9 -5 -1 -6 3 -2 9 3 5 1 10 -5 10 -7 0 -9 8 -5 20 4 11 3 20 -2 19 -30 -5
-35 2 -18 21 10 11 18 34 18 50 0 17 4 30 9 30 5 0 6 -4 3 -10 -3 -5 2 -10 11
-10 16 0 16 -1 -1 -14 -19 -14 -19 -15 0 -36 11 -12 19 -25 18 -29 -2 -3 2 -6
9 -6 6 0 13 7 15 15 4 12 3 12 -5 2 -7 -11 -11 -10 -16 4 -4 9 -2 22 3 27 16
16 -16 66 -41 67 -4 0 -14 -13 -23 -30z m55 -30 c0 -5 -2 -10 -4 -10 -3 0 -8
5 -11 10 -3 6 -1 10 4 10 6 0 11 -4 11 -10z"/>
<path d="M340 2431 c0 -6 8 -8 18 -5 10 4 13 2 7 -3 -15 -12 -15 -41 0 -47 9
-3 12 5 11 27 -1 21 -7 33 -19 35 -9 2 -17 -1 -17 -7z"/>
<path d="M433 2408 c-24 -11 -40 -24 -37 -30 3 -5 12 -1 20 9 13 17 14 17 7
-2 -6 -18 -5 -19 13 -5 18 14 18 14 5 -3 -8 -9 -12 -20 -9 -23 3 -2 13 7 23
22 9 15 12 23 6 20 -6 -4 -11 -2 -11 3 0 6 6 11 14 11 8 0 18 5 21 10 9 15 -5
12 -52 -12z"/>
<path d="M2845 2410 c-4 -6 -4 -14 -1 -17 3 -4 6 0 6 8 1 10 4 9 11 -4 5 -9 8
-21 5 -26 -3 -5 1 -14 8 -20 23 -19 31 7 9 31 -10 11 -17 23 -15 26 6 12 -16
13 -23 2z"/>
<path d="M317 2381 c-16 -27 -16 -29 1 -27 9 0 19 4 22 8 3 4 12 3 20 -2 12
-8 11 -10 -5 -11 -11 -1 -24 -2 -30 -4 -5 -1 -16 -3 -23 -3 -7 -1 -11 -6 -8
-10 6 -10 36 -9 54 2 7 4 20 2 28 -5 13 -11 15 -10 12 2 -3 16 15 26 20 11 6
-19 -27 -40 -57 -36 -28 3 -30 2 -19 -16 9 -13 14 -16 20 -7 4 6 10 8 14 4 4
-4 13 -2 21 5 11 8 12 7 7 -6 -3 -9 -1 -16 5 -16 11 0 15 20 12 49 -2 7 2 10
8 7 15 -10 21 7 8 24 -7 9 -25 17 -42 18 -16 2 -38 4 -48 5 -16 1 -17 3 -3 13
17 12 21 24 8 24 -4 0 -15 -13 -25 -29z"/>
<path d="M2933 2332 c1 -20 -2 -46 -6 -57 -6 -16 -2 -21 14 -22 17 -2 18 1 9
13 -9 10 -9 18 -1 27 8 10 7 17 -2 27 -10 12 -9 12 4 2 13 -10 19 -9 29 3 11
13 10 14 -3 10 -9 -4 -21 2 -29 14 -14 20 -15 19 -15 -17z"/>
<path d="M346 2322 c-2 -4 4 -8 14 -8 10 0 16 4 14 8 -3 4 -9 8 -14 8 -5 0
-11 -4 -14 -8z"/>
<path d="M2908 2318 c-3 -7 -4 -27 -3 -45 1 -18 -2 -30 -7 -27 -5 3 -6 15 -2
26 4 13 2 18 -4 14 -6 -3 -14 -1 -18 5 -4 8 -3 9 4 5 7 -4 12 -2 12 3 0 12
-13 15 -23 5 -6 -7 23 -74 33 -74 3 0 6 -10 7 -22 1 -11 6 -24 10 -27 5 -3 9
-13 9 -21 2 -35 17 -79 25 -74 5 3 5 13 -1 24 -7 13 -7 21 1 25 6 5 4 12 -8
21 -10 8 -12 13 -5 12 8 -2 19 5 25 15 10 14 9 20 -3 27 -22 14 -30 12 -24 -5
4 -8 11 -12 17 -8 6 3 7 1 3 -5 -4 -6 -13 -9 -21 -6 -8 4 -13 10 -10 14 3 5
-1 11 -7 13 -10 4 -10 6 0 6 9 1 10 6 3 19 -10 20 -10 54 1 62 4 3 3 11 -1 19
-7 10 -9 10 -13 -1z"/>
<path d="M273 2281 c-9 -20 -20 -45 -26 -56 -5 -10 -11 -32 -12 -47 -1 -15 -7
-34 -12 -41 -11 -14 -11 -47 0 -47 4 0 12 0 18 0 5 0 7 5 4 10 -4 6 -12 7 -18
3 -8 -5 -8 -2 0 9 7 8 10 17 7 21 -3 3 2 4 13 2 10 -2 22 -4 26 -4 5 -1 5 -5
2 -11 -3 -5 -2 -10 3 -10 6 0 13 7 16 16 8 21 8 20 -9 22 -8 1 -22 3 -30 4 -8
1 -12 5 -9 10 3 4 14 3 25 -2 11 -6 19 -7 19 -1 0 11 -29 23 -39 16 -4 -2 -8
2 -8 9 0 8 6 12 14 9 7 -3 13 0 13 7 0 6 -4 8 -10 5 -6 -4 -7 1 -3 11 5 15 7
15 15 0 5 -9 6 -21 3 -26 -3 -6 -3 -10 2 -10 4 0 13 11 20 25 10 22 9 25 -4
23 -9 -2 -18 3 -21 11 -3 10 0 12 11 8 11 -4 14 -2 10 8 -3 8 -10 12 -15 9 -6
-4 -5 3 1 14 7 13 17 19 26 16 8 -4 13 -10 10 -14 -3 -5 -2 -10 2 -13 5 -2 2
-2 -6 0 -9 2 -11 -2 -7 -13 3 -8 6 -18 6 -20 0 -2 4 -4 9 -4 16 0 21 31 9 53
-7 12 -12 25 -11 28 1 3 -5 6 -14 6 -8 0 -22 -16 -30 -36z"/>
<path d="M2969 2301 c-19 -15 -21 -22 -12 -32 17 -17 5 -43 -13 -28 -10 8 -14
8 -14 0 0 -10 13 -15 32 -12 4 0 10 -8 13 -19 4 -11 12 -17 20 -13 8 3 18 -2
21 -11 3 -9 11 -13 17 -9 6 3 7 1 3 -6 -4 -6 -2 -18 4 -26 10 -12 10 -15 0
-15 -6 0 -10 -8 -8 -17 2 -10 10 -18 17 -18 8 0 16 -7 18 -15 3 -11 2 -12 -4
-3 -6 9 -12 7 -20 -6 -10 -16 -8 -18 12 -18 25 0 27 18 6 70 -6 15 -8 27 -5
27 2 0 -1 10 -8 23 -6 12 -13 30 -15 40 -2 10 -9 28 -15 40 -7 12 -11 28 -10
35 2 6 -2 12 -8 12 -6 0 -8 5 -5 10 10 15 0 12 -26 -9z m23 -25 c-2 -9 3 -16
10 -16 8 0 6 -4 -4 -11 -10 -5 -15 -17 -12 -27 5 -14 4 -15 -5 -2 -6 9 -7 18
-1 24 6 6 3 15 -8 23 -9 7 -12 13 -7 12 23 -3 29 2 15 12 -13 9 -13 10 0 6 8
-2 14 -11 12 -21z m28 -56 c8 -15 8 -18 -3 -14 -8 3 -14 11 -14 19 0 20 4 19
17 -5z"/>
<path d="M346 2251 c-9 -16 -23 -31 -32 -35 -9 -3 -14 -12 -10 -21 3 -8 1 -15
-5 -15 -6 0 -6 -7 1 -20 8 -14 8 -26 0 -40 -13 -24 -26 -26 -38 -4 -5 9 -12
13 -15 8 -3 -5 5 -19 18 -31 23 -20 25 -20 30 -2 4 10 11 19 16 19 6 0 7 5 4
10 -3 6 -1 10 4 10 14 0 14 -17 0 -26 -8 -4 -7 -9 2 -16 11 -8 10 -9 -3 -4
-18 5 -25 -8 -10 -18 12 -7 29 7 30 24 0 14 3 26 14 69 1 7 -3 16 -10 18 -7 3
-10 -1 -6 -10 7 -18 -12 -32 -22 -16 -4 8 -3 9 4 5 7 -4 12 -2 12 3 0 6 -6 11
-12 11 -9 0 -8 4 2 10 10 6 11 10 3 10 -8 0 -5 8 7 20 11 11 25 20 30 20 6 0
10 5 10 11 0 5 -6 7 -12 3 -7 -4 -9 -3 -5 1 4 5 14 10 22 11 12 2 12 -2 5 -17
-6 -10 -14 -19 -18 -19 -4 0 -8 -9 -8 -20 0 -30 9 -24 28 20 16 38 16 41 -2
50 -16 9 -22 5 -34 -19z"/>
<path d="M335 2200 c-3 -5 -1 -10 4 -10 6 0 11 5 11 10 0 6 -2 10 -4 10 -3 0
-8 -4 -11 -10z"/>
<path d="M2975 2177 c-10 -8 -15 -19 -11 -25 3 -6 2 -13 -4 -17 -6 -4 -8 -11
-4 -16 11 -19 15 -61 4 -54 -5 3 -10 2 -10 -3 0 -5 15 -17 34 -26 40 -19 50
-20 40 -5 -4 8 0 8 15 0 12 -7 25 -10 30 -7 4 3 8 0 8 -7 0 -7 2 -19 4 -27 3
-9 -2 -14 -12 -12 -9 1 -16 -5 -16 -13 0 -10 7 -14 21 -10 12 3 15 2 9 -1 -10
-4 -10 -9 1 -20 16 -16 30 -19 22 -5 -3 5 -8 28 -11 51 -6 49 -13 63 -26 55
-5 -4 -9 -2 -9 3 0 4 -17 8 -37 8 -34 -1 -38 1 -35 23 2 13 0 21 -5 18 -4 -3
-8 15 -9 39 0 27 3 40 7 32 8 -12 13 -4 10 15 -1 5 3 6 9 2 8 -5 7 -11 -1 -21
-9 -11 -9 -17 1 -29 9 -10 9 -15 1 -15 -6 0 -11 -5 -11 -11 0 -5 4 -7 10 -4 6
4 7 -1 3 -12 -6 -16 -5 -17 13 -3 18 14 18 14 5 -2 -8 -11 -9 -18 -3 -18 19 0
25 23 9 34 -10 8 -12 17 -6 28 6 11 5 26 -3 42 -13 30 -17 31 -43 13z"/>
<path d="M261 2073 c10 -11 10 -14 2 -9 -22 13 -52 15 -59 5 -6 -10 -9 -29
-18 -94 -4 -27 -1 -30 22 -32 l27 -1 -24 19 c-13 10 -19 19 -14 19 5 0 15 -6
21 -12 10 -10 12 -7 9 12 -2 13 -9 26 -16 28 -9 3 -7 10 6 25 17 20 17 20 -2
14 l-20 -7 20 15 c18 15 21 14 36 -4 14 -17 18 -18 23 -6 7 19 -3 45 -16 45
-6 0 -4 -8 3 -17z"/>
<path d="M282 2044 c-15 -31 -15 -31 3 -31 11 0 14 7 10 21 -5 19 -5 19 5 3 6
-9 8 -23 4 -29 -8 -12 -12 -33 -16 -70 -1 -9 -6 -14 -10 -12 -4 3 -8 1 -8 -5
0 -5 6 -12 13 -14 9 -4 9 -6 0 -6 -16 -1 -36 36 -28 50 4 5 1 16 -5 24 -8 9
-8 15 -2 15 13 0 8 49 -7 61 -6 5 -9 6 -6 3 3 -4 0 -13 -6 -21 -9 -10 -8 -17
1 -28 7 -8 9 -15 5 -15 -4 0 -2 -7 5 -15 9 -10 9 -15 1 -15 -6 0 -10 -3 -9 -7
1 -5 -4 -19 -11 -32 -11 -19 -11 -22 1 -18 7 2 12 10 10 16 -1 7 2 10 8 6 8
-5 7 -11 -1 -22 -11 -12 -10 -14 2 -13 28 4 49 0 49 -11 0 -5 -4 -8 -9 -4 -6
3 -8 -3 -6 -14 2 -13 -1 -18 -9 -15 -7 3 -13 -2 -13 -11 0 -9 6 -14 12 -11 6
2 12 -2 12 -9 0 -7 -6 -11 -12 -9 -7 3 -17 -1 -23 -9 -9 -11 -6 -14 16 -14 21
0 28 5 29 21 2 31 11 121 13 121 1 0 8 41 14 90 1 12 6 27 11 35 4 8 5 12 0 8
-4 -4 -13 -3 -20 2 -8 7 -15 2 -23 -16z"/>
<path d="M2960 2030 c8 -5 11 -10 6 -10 -6 0 -1 -7 10 -16 10 -8 13 -13 7 -9
-9 4 -11 -3 -8 -27 10 -67 16 -124 17 -165 1 -23 5 -40 10 -37 4 3 8 0 8 -7 0
-7 3 -10 6 -7 3 4 0 16 -6 28 -8 15 -8 20 -1 16 6 -4 11 -2 11 3 0 6 -5 11
-12 11 -9 0 -9 3 0 12 15 15 16 31 0 22 -6 -4 -8 -3 -4 4 3 6 2 14 -4 17 -8 5
-7 11 1 21 8 10 8 14 0 14 -6 0 -11 5 -11 11 0 5 6 7 13 3 9 -6 9 -5 0 7 -10
12 -10 18 -1 27 6 6 8 15 4 19 -4 4 -11 1 -16 -7 -7 -11 -10 -11 -10 -2 0 7 6
15 14 18 8 3 14 11 12 17 -1 7 -1 9 1 5 3 -5 9 -8 15 -8 6 0 5 6 -2 15 -7 9
-19 14 -26 11 -7 -3 -15 2 -18 10 -3 8 -11 14 -18 14 -9 0 -8 -3 2 -10z"/>
<path d="M3034 2005 c3 -9 -1 -18 -9 -21 -8 -4 -12 -10 -9 -15 3 -6 0 -17 -7
-25 -10 -13 -8 -14 14 -10 16 3 26 0 24 -6 -1 -6 4 -13 12 -16 9 -3 11 0 6 8
-5 9 -4 11 4 6 6 -4 9 -11 6 -16 -6 -9 25 -23 33 -15 7 6 6 7 -42 39 -21 14
-33 26 -25 26 11 0 11 2 -1 10 -12 7 -12 10 -1 10 8 0 11 6 7 17 -6 15 -4 15
14 -2 23 -21 27 -14 4 9 -20 20 -38 21 -30 1z"/>
<path d="M264 1968 c-1 -31 1 -36 9 -22 15 26 17 61 3 61 -7 0 -12 -16 -12
-39z"/>
<path d="M190 1925 c0 -8 5 -15 10 -15 6 0 10 7 10 15 0 8 -4 15 -10 15 -5 0
-10 -7 -10 -15z"/>
<path d="M3016 1914 c-4 -10 0 -14 11 -12 10 2 18 -3 19 -9 3 -26 4 -28 12
-16 5 8 13 9 22 3 13 -8 12 -10 -2 -11 -45 -4 -53 -2 -50 9 3 15 -14 16 -23 2
-3 -6 1 -13 9 -16 12 -4 15 -17 11 -49 -2 -30 1 -48 11 -56 9 -7 14 -8 14 -1
0 6 -3 12 -7 15 -5 2 -3 2 4 1 14 -3 26 23 13 31 -4 3 -10 0 -12 -7 -3 -7 -7
-5 -11 6 -4 11 -3 15 4 10 7 -4 9 1 5 17 -3 13 -3 18 0 11 5 -10 9 -9 19 5 11
15 16 16 27 5 11 -11 10 -14 -2 -22 -8 -5 -18 -6 -22 -4 -4 3 -8 1 -8 -5 0 -6
10 -15 22 -22 18 -10 20 -9 15 5 -4 10 -3 15 3 11 15 -9 12 -32 -5 -39 -8 -3
-15 -11 -15 -17 0 -8 6 -7 18 2 15 13 16 12 3 -3 -8 -11 -9 -18 -3 -18 6 0 9
-6 6 -14 -3 -8 -1 -17 4 -20 7 -4 9 22 6 71 -6 104 -6 103 -14 103 -4 0 -23
11 -43 24 -29 20 -37 22 -41 10z"/>
<path d="M173 1895 c0 -11 7 -14 21 -9 17 4 18 3 6 -5 -8 -6 -12 -11 -8 -11 3
0 14 -3 24 -7 12 -4 15 -3 10 5 -5 8 -2 10 8 6 12 -5 11 -10 -9 -32 -13 -14
-21 -30 -18 -35 3 -5 -1 -13 -8 -18 -10 -6 -11 -9 -1 -9 6 0 12 -7 12 -17 0
-27 15 -4 16 25 3 50 4 53 16 46 7 -4 8 -3 4 5 -4 6 -1 14 8 17 8 3 12 12 9
20 -3 8 -9 11 -14 9 -5 -3 -22 1 -38 10 -37 19 -38 19 -38 0z"/>
<path d="M167 1863 c-3 -8 -1 -200 4 -305 2 -26 6 -45 11 -42 4 3 8 0 8 -5 0
-6 -6 -11 -12 -11 -9 0 -9 -3 -2 -8 5 -4 10 -18 10 -31 0 -14 5 -26 12 -29 7
-2 12 1 12 8 0 6 -5 8 -12 4 -7 -4 -8 -3 -4 5 4 6 12 9 17 6 15 -10 10 12 -6
29 -11 10 -12 17 -4 22 8 5 6 10 -5 16 -21 12 -10 31 13 23 14 -4 17 3 17 45
1 39 -2 48 -11 40 -7 -6 -20 -7 -30 -4 -13 5 -14 9 -3 15 10 7 10 9 -1 9 -11
0 -9 4 5 15 18 14 18 16 2 29 -22 16 -23 42 -2 50 8 3 12 2 9 -4 -3 -6 -1 -10
4 -10 17 0 13 18 -8 39 -16 16 -17 21 -5 25 7 3 11 12 8 21 -3 8 -11 12 -17 8
-6 -3 -7 -1 -3 5 4 6 13 9 20 6 22 -9 28 14 7 25 -23 13 -29 13 -34 4z m43
-261 c0 -5 -7 -9 -15 -9 -8 0 -12 4 -9 9 3 4 9 8 15 8 5 0 9 -4 9 -8z m0 -30
c0 -5 -7 -9 -15 -9 -8 0 -12 4 -9 9 3 4 9 8 15 8 5 0 9 -4 9 -8z"/>
<path d="M3070 1839 c0 -5 5 -7 10 -4 6 3 10 8 10 11 0 2 -4 4 -10 4 -5 0 -10
-5 -10 -11z"/>
<path d="M3062 1766 c-8 -18 -17 -23 -39 -20 -27 3 -29 0 -29 -26 0 -17 4 -30
8 -30 5 0 6 10 3 23 -4 15 -3 18 3 9 8 -11 10 -11 15 1 3 7 16 13 29 12 17 -2
22 -7 21 -24 -2 -12 1 -20 6 -16 5 3 12 1 15 -4 4 -5 1 -13 -5 -17 -6 -3 -15
0 -20 7 -5 8 -9 12 -10 9 0 -3 -2 -16 -5 -29 -4 -20 -2 -22 10 -11 9 6 19 9
25 6 5 -3 11 0 14 6 3 7 4 3 4 -9 -1 -12 -4 -20 -8 -17 -4 2 -13 -4 -20 -13
-12 -14 -11 -15 10 -8 21 6 22 5 10 -8 -10 -11 -18 -12 -27 -5 -21 18 -23 2
-2 -17 11 -10 20 -13 20 -7 0 6 6 10 13 8 6 -1 9 -1 4 1 -4 3 -4 10 0 16 10
15 11 80 3 87 -4 3 -14 20 -23 39 -13 26 -14 37 -6 47 7 8 7 14 2 14 -5 0 -15
-11 -21 -24z"/>
<path d="M231 1754 c-12 -15 -21 -31 -21 -37 0 -5 -7 -4 -15 3 -20 17 -19 1 1
-21 10 -11 13 -23 8 -31 -12 -19 -14 -38 -4 -38 5 0 11 4 15 10 3 5 12 7 20 4
8 -4 12 -11 8 -17 -11 -18 -11 -47 0 -54 5 -3 3 -10 -4 -15 -11 -7 -11 -9 1
-7 27 3 55 -2 42 -8 -6 -2 -10 -9 -6 -14 11 -18 20 -9 19 19 0 16 -5 29 -12
29 -7 0 -9 -5 -6 -10 3 -6 2 -8 -3 -4 -5 3 -8 20 -8 39 1 27 -4 36 -30 50 -17
9 -25 17 -17 18 11 0 11 3 1 14 -9 11 -9 19 0 33 9 15 10 14 4 -7 -6 -24 -5
-24 12 -8 14 14 15 20 5 32 -9 11 -9 16 0 22 7 4 9 3 5 -4 -3 -6 -2 -13 3 -16
5 -3 11 1 14 8 3 8 1 17 -6 20 -7 3 -1 3 13 0 19 -4 22 -3 10 5 -22 15 -26 14
-49 -15z m23 -164 c-6 -6 -10 -3 -10 10 0 13 4 16 10 10 7 -7 7 -13 0 -20z"/>
<path d="M256 1717 c-26 -42 -26 -50 -1 -64 11 -6 21 -16 21 -22 1 -6 2 -18 3
-26 0 -8 6 -15 11 -15 7 0 7 6 2 18 -5 9 -8 27 -6 38 2 12 -3 27 -11 34 -18
15 -20 0 -2 -20 6 -8 2 -6 -11 5 -16 13 -19 21 -11 26 7 4 17 5 24 3 7 -3 11
7 11 26 0 38 -6 38 -30 -3z"/>
<path d="M3015 1697 c-24 -40 -26 -59 -9 -75 17 -15 18 -8 3 20 -9 16 -8 19 2
13 9 -6 11 -3 6 8 -4 11 -2 14 8 10 8 -3 12 -10 8 -17 -4 -6 -8 -23 -9 -39 -1
-22 1 -25 12 -16 8 6 11 15 8 20 -3 5 1 6 9 3 8 -3 20 2 27 11 8 9 8 15 2 15
-6 0 -13 -4 -17 -10 -3 -5 -12 -7 -21 -3 -10 4 -11 9 -4 17 6 9 6 17 -3 26 -9
10 -9 11 0 6 7 -4 17 2 22 13 14 25 14 42 0 19 -5 -10 -15 -18 -22 -18 -8 0
-8 3 2 9 7 5 9 11 4 14 -5 3 -17 -9 -28 -26z"/>
<path d="M2988 1608 c-7 -17 1 -32 20 -35 16 -4 15 9 -1 31 -12 16 -15 16 -19
4z"/>
<path d="M3036 1592 c-3 -5 6 -14 19 -20 18 -8 23 -16 18 -29 -6 -16 -5 -17
13 -3 18 14 18 13 -1 -9 l-20 -24 20 7 c15 5 17 4 8 -5 -6 -6 -17 -8 -24 -3
-19 11 -49 12 -55 2 -3 -4 1 -9 8 -10 7 0 18 -2 23 -3 6 -2 18 -3 28 -4 21 -1
23 -18 2 -18 -8 0 -15 4 -15 8 0 5 -7 6 -16 2 -15 -5 -15 -7 0 -15 9 -5 20 -7
25 -3 5 3 12 1 15 -4 4 -5 2 -12 -4 -16 -6 -4 -8 -11 -5 -16 4 -5 0 -12 -8
-15 -15 -5 -19 -34 -5 -34 5 0 6 -4 3 -10 -3 -5 -1 -10 4 -10 6 0 9 10 8 22
-2 12 2 33 9 47 18 36 26 143 11 138 -7 -3 -22 4 -33 15 -12 11 -24 15 -28 10z"/>
<path d="M2989 1560 c-6 -5 -9 -16 -5 -25 3 -9 1 -26 -5 -37 -10 -18 -8 -19
13 -13 18 5 20 4 8 -4 -8 -6 -10 -11 -5 -11 6 0 16 -4 24 -9 13 -8 13 -12 0
-27 -13 -15 -12 -16 11 -10 19 6 21 5 10 -3 -8 -6 -10 -11 -5 -11 12 0 43 20
31 20 -5 0 -2 8 5 17 9 11 10 14 2 9 -15 -8 -56 11 -48 24 3 5 -4 12 -16 15
-19 6 -19 8 -3 19 9 7 27 12 38 11 15 -2 22 3 22 16 0 11 -3 20 -6 21 -18 5
-61 4 -71 -2z m24 -26 c-4 -10 -9 -12 -15 -6 -12 12 -1 35 12 27 5 -3 6 -13 3
-21z"/>
<path d="M238 1539 c-7 -5 -22 -6 -33 -3 -16 4 -17 3 -5 -5 8 -6 15 -16 16
-23 3 -33 5 -38 25 -49 17 -9 20 -8 16 3 -2 7 -10 12 -17 10 -11 -3 -11 0 0
12 9 12 10 19 1 29 -8 10 -7 14 4 14 8 0 11 -5 8 -10 -3 -6 -1 -7 5 -3 8 5 10
2 6 -8 -4 -11 2 -19 17 -25 18 -7 19 -10 7 -10 -10 -1 -18 -6 -18 -12 0 -5 6
-7 13 -3 8 5 8 2 -2 -9 -8 -11 -9 -17 -3 -17 14 0 31 32 29 51 -4 25 -54 67
-69 58z"/>
<path d="M2970 1445 c0 -36 -1 -39 -11 -51 -5 -6 -6 -20 -2 -29 5 -14 3 -16
-7 -10 -8 5 -11 4 -6 -3 3 -6 2 -14 -4 -17 -6 -4 -8 -16 -4 -27 4 -15 3 -18
-6 -13 -8 5 -11 4 -6 -3 3 -6 -3 -27 -15 -46 -11 -20 -18 -36 -14 -36 4 0 1
-8 -6 -17 -10 -11 -10 -14 -1 -9 6 4 12 3 12 -3 0 -6 7 -8 15 -5 8 4 12 10 9
15 -3 5 -9 7 -13 5 -4 -3 -8 1 -8 8 0 8 6 12 14 9 7 -3 13 -9 13 -14 0 -5 5
-9 10 -9 6 0 9 6 8 13 -2 6 4 12 12 12 8 0 18 5 22 10 15 20 8 24 -18 10 -28
-14 -58 -10 -48 7 4 6 10 5 16 -3 7 -10 8 -9 4 5 -4 11 0 26 9 36 11 12 13 20
6 25 -6 3 -11 12 -11 18 0 8 3 8 9 -2 6 -9 11 -10 15 -2 4 6 1 11 -6 11 -9 0
-9 3 2 10 8 5 24 7 35 3 17 -5 18 -4 6 10 -7 9 -17 14 -22 11 -5 -3 -6 3 -2
12 5 13 3 15 -7 9 -8 -5 -11 -4 -6 3 5 8 15 8 32 2 32 -12 37 -12 29 0 -3 6 1
7 12 4 10 -3 7 2 -7 10 -27 16 -55 22 -30 6 8 -5 10 -10 4 -10 -6 0 -13 3 -17
6 -8 9 4 35 13 29 5 -3 11 -1 15 4 3 6 -3 15 -14 20 -28 15 -31 14 -31 -14z"/>
<path d="M208 1430 c-9 -10 -14 -21 -10 -24 5 -5 9 -27 11 -63 1 -7 6 -13 12
-13 5 0 7 4 4 10 -3 5 0 7 8 4 9 -3 13 2 12 18 -2 23 13 39 48 51 15 6 16 4 6
-15 -9 -17 -9 -20 3 -15 11 4 15 -1 14 -16 -1 -12 3 -25 9 -29 6 -5 6 -8 -2
-8 -8 0 -5 -8 7 -20 11 -11 20 -26 20 -32 0 -9 -4 -8 -10 2 -5 8 -10 13 -11
10 0 -3 -2 -13 -4 -22 -3 -15 0 -16 16 -7 15 7 18 16 13 32 -4 12 -9 24 -13
27 -3 3 -7 18 -9 35 -2 16 -7 34 -11 40 -4 5 -6 20 -5 33 1 21 0 22 -17 6 -16
-15 -45 -11 -35 5 10 16 -40 8 -56 -9z m45 -23 c-3 -4 -12 -6 -20 -3 -10 4
-13 1 -8 -13 3 -11 2 -22 -3 -25 -5 -3 -8 9 -7 25 2 33 25 56 37 36 3 -6 4
-15 1 -20z"/>
<path d="M260 1381 c-13 -25 -13 -31 1 -31 5 0 8 4 5 9 -7 11 13 9 32 -2 6 -5
12 -4 12 2 0 5 -10 13 -21 16 -17 6 -19 9 -8 16 10 6 10 9 2 9 -7 0 -17 -9
-23 -19z"/>
<path d="M3000 1365 c7 -9 15 -13 17 -11 7 7 -7 26 -19 26 -6 0 -6 -6 2 -15z"/>
<path d="M3030 1361 c0 -22 -22 -33 -47 -25 -17 5 -17 5 0 -6 9 -6 22 -8 27
-5 6 3 10 1 10 -5 0 -6 5 -8 10 -5 6 4 8 10 6 14 -3 4 1 8 9 8 10 0 12 -4 5
-12 -5 -7 -7 -15 -4 -18 4 -3 -6 -4 -22 0 -50 9 -59 8 -56 -6 1 -7 -5 -19 -15
-26 -14 -11 -15 -16 -6 -25 14 -15 36 -3 29 15 -7 20 21 40 37 26 8 -6 18 -7
22 -3 5 4 5 2 1 -5 -3 -6 -2 -14 4 -18 5 -3 10 3 10 14 0 11 4 22 9 25 13 8 7
51 -7 49 -6 -2 -9 4 -6 12 4 8 1 15 -5 15 -6 0 -11 -9 -11 -19z"/>
<path d="M245 1333 c-22 -12 -34 -23 -27 -23 7 0 11 -3 9 -7 -3 -5 0 -19 6
-33 5 -14 11 -29 12 -35 2 -5 4 -17 6 -25 4 -16 19 -30 33 -30 5 0 1 9 -8 19
-18 20 -8 35 16 26 17 -7 21 10 16 83 -3 45 -18 51 -63 25z m47 -17 c10 5 10
4 1 -6 -9 -10 -15 -10 -26 -1 -12 9 -14 7 -14 -15 0 -18 3 -22 10 -15 14 14
27 14 27 1 0 -5 -5 -9 -11 -7 -6 1 -14 -4 -16 -11 -3 -8 1 -10 11 -6 10 4 16
1 16 -7 0 -7 -3 -9 -7 -6 -3 4 -13 1 -22 -5 -9 -7 -13 -9 -9 -4 4 5 1 21 -8
37 -8 16 -15 32 -15 35 -1 14 26 22 38 13 7 -6 18 -7 25 -3z"/>
<path d="M315 1300 c-3 -5 -1 -10 4 -10 6 0 11 5 11 10 0 6 -2 10 -4 10 -3 0
-8 -4 -11 -10z"/>
<path d="M2986 1281 c-3 -5 3 -20 15 -32 l20 -24 -6 25 c-5 22 -4 23 5 7 9
-15 8 -22 -4 -36 -9 -10 -13 -21 -9 -26 5 -4 2 -5 -5 -1 -10 6 -10 11 -1 22 7
8 7 14 1 14 -14 0 -20 -19 -17 -57 1 -18 -2 -33 -6 -33 -5 0 -7 -6 -5 -12 1
-7 1 -10 -1 -5 -3 4 -9 4 -15 1 -6 -4 -5 -9 3 -15 11 -6 10 -12 -5 -28 -10
-11 -15 -25 -10 -32 4 -8 3 -10 -4 -5 -7 4 -12 3 -12 -3 0 -5 4 -12 9 -15 11
-7 23 22 15 35 -3 5 0 9 6 9 8 0 28 35 35 60 0 3 6 15 13 28 7 12 10 22 7 22
-3 0 2 14 10 31 15 28 15 33 0 55 -16 25 -30 30 -39 15z"/>
<path d="M350 1251 c0 -5 -3 -17 -7 -26 -5 -15 -3 -16 15 -6 13 7 19 17 16 26
-7 16 -24 21 -24 6z"/>
<path d="M321 1241 c-7 -5 -13 -12 -12 -17 0 -5 -9 -8 -20 -6 -19 2 -19 1 -5
-14 20 -20 20 -34 1 -34 -18 0 -20 -16 -3 -26 7 -5 8 -3 3 6 -5 8 -4 11 2 7 6
-4 8 -18 5 -32 -2 -15 0 -25 7 -25 7 0 10 4 7 8 -2 4 -1 14 4 22 5 9 5 19 -1
26 -13 16 9 30 23 16 8 -8 8 -15 -1 -26 -10 -12 -6 -14 32 -12 42 2 45 1 41
-21 -3 -13 -1 -23 3 -22 20 3 34 -2 28 -11 -3 -5 0 -10 7 -10 10 0 10 -2 -1
-9 -9 -6 -10 -10 -2 -16 9 -5 9 -10 0 -21 -7 -9 -8 -14 -1 -14 6 0 13 5 15 10
3 6 4 5 3 -2 -2 -7 -11 -12 -20 -11 -12 0 -15 -4 -12 -14 3 -8 1 -23 -4 -33
-8 -15 -6 -20 10 -25 11 -3 20 -12 21 -18 0 -7 2 -22 3 -34 2 -14 -2 -19 -11
-16 -10 4 -11 9 -4 16 8 8 5 15 -11 25 -19 11 -20 12 -3 8 19 -6 20 -6 1 9
-10 8 -22 12 -26 10 -5 -3 -10 2 -13 10 -4 9 -1 12 9 8 7 -3 14 0 14 7 0 6 -4
9 -8 6 -4 -2 -14 0 -22 6 -12 8 -11 9 3 4 15 -5 17 -2 12 17 -5 18 -4 19 5 7
9 -13 11 -12 8 4 -2 11 -13 21 -27 23 -20 3 -22 1 -11 -12 9 -11 10 -18 1 -29
-8 -10 -5 -22 15 -52 15 -21 30 -41 35 -42 5 -2 7 -8 3 -13 -3 -5 2 -12 10
-15 9 -3 16 -12 16 -20 0 -7 8 -19 19 -26 10 -7 19 -17 21 -23 1 -5 6 -9 11
-7 5 1 9 -4 9 -12 0 -8 15 -27 33 -42 17 -15 30 -30 27 -33 -3 -3 7 -6 23 -7
29 -1 32 3 18 24 -7 11 -9 11 -14 -2 -4 -9 -12 -16 -19 -16 -10 0 -10 2 0 9 8
4 12 17 10 27 -2 15 2 18 21 16 19 -2 22 0 12 12 -6 8 -10 19 -9 26 2 7 -2 14
-9 17 -6 2 -10 -4 -9 -14 2 -10 -6 -24 -16 -31 -15 -11 -17 -17 -7 -28 10 -12
9 -13 -4 -8 -18 7 -30 32 -21 46 3 5 13 7 21 4 9 -4 13 -1 10 6 -2 7 -10 12
-16 10 -6 -1 -11 3 -11 9 0 5 -5 7 -10 4 -6 -4 -8 -10 -6 -14 3 -4 0 -13 -5
-21 -9 -13 -10 -13 -6 0 2 8 -2 21 -9 28 -10 9 -11 20 -4 38 13 33 13 34 -4
28 -8 -3 -12 -12 -10 -19 7 -18 -15 -30 -29 -15 -9 9 -7 15 7 26 12 8 14 14 7
14 -7 0 -11 6 -8 14 3 7 1 18 -5 24 -8 8 -7 16 2 27 12 14 12 16 -1 15 -32 -5
-42 0 -30 13 6 8 9 16 6 18 -2 3 4 10 15 17 14 8 21 9 26 0 4 -7 3 -8 -4 -4
-6 3 -16 -2 -21 -13 -16 -29 -13 -38 5 -15 8 10 12 13 8 5 -5 -9 -3 -12 5 -7
7 5 10 2 9 -6 -2 -7 5 -12 14 -12 10 1 15 -2 12 -7 -3 -5 -13 -8 -21 -7 -9 2
-18 -2 -20 -9 -3 -8 3 -11 16 -8 11 2 22 -3 25 -11 3 -9 10 -13 14 -10 5 3 18
-1 28 -9 19 -15 19 -15 0 -8 -14 4 -17 3 -12 -6 5 -7 14 -10 22 -7 8 3 14 1
14 -4 0 -14 -24 -12 -38 2 -7 7 -12 8 -12 3 0 -16 14 -30 30 -30 8 0 19 5 23
10 5 6 5 -1 1 -15 -6 -22 -5 -23 10 -11 11 9 16 10 16 2 0 -7 4 -9 10 -6 6 3
0 16 -13 29 -39 41 -62 71 -59 79 1 4 -2 7 -6 7 -5 0 -14 12 -20 26 -7 15 -17
22 -24 18 -8 -5 -9 -2 -5 10 4 11 -2 24 -18 38 -13 11 -22 25 -19 30 3 5 -3
21 -13 36 -26 39 -49 88 -52 112 -2 16 -38 11 -38 -5 0 -8 4 -15 9 -15 5 0 6
-4 3 -10 -3 -5 0 -7 8 -4 8 3 18 1 21 -4 3 -5 -6 -9 -19 -9 -23 0 -31 12 -26
40 1 4 -6 10 -14 13 -12 5 -13 9 -4 20 14 17 8 26 -10 15z m3 -39 c3 -5 -1 -9
-9 -9 -8 0 -12 4 -9 9 3 4 7 8 9 8 2 0 6 -4 9 -8z m186 -242 c0 -5 -5 -10 -11
-10 -5 0 -7 5 -4 10 3 6 8 10 11 10 2 0 4 -4 4 -10z"/>
<path d="M2955 1201 c3 -6 -5 -15 -17 -22 -25 -13 -38 -28 -38 -44 1 -5 10 1
20 14 11 13 20 19 20 14 0 -5 -6 -15 -12 -22 -11 -11 -10 -13 5 -8 12 5 16 3
11 -5 -5 -7 -3 -8 5 -4 28 18 35 86 9 86 -5 0 -7 -4 -3 -9z m15 -21 c0 -5 -5
-10 -11 -10 -5 0 -7 5 -4 10 3 6 8 10 11 10 2 0 4 -4 4 -10z"/>
<path d="M315 1160 c3 -5 8 -10 11 -10 2 0 4 5 4 10 0 6 -5 10 -11 10 -5 0 -7
-4 -4 -10z"/>
<path d="M2870 1155 c-7 -8 -9 -15 -5 -15 5 0 0 -10 -11 -22 -10 -12 -13 -18
-6 -14 7 4 12 2 12 -5 0 -10 3 -10 11 -2 6 6 18 9 26 6 13 -5 13 -2 4 15 -6
11 -8 28 -5 36 8 20 -10 21 -26 1z m20 -29 c0 -2 -7 -7 -16 -10 -8 -3 -12 -2
-9 4 6 10 25 14 25 6z"/>
<path d="M341 1123 c-1 -7 -8 -10 -18 -6 -10 3 -15 3 -11 -2 4 -4 3 -14 -2
-21 -8 -8 -5 -17 7 -30 10 -10 16 -18 15 -18 -8 -2 22 -56 30 -56 11 0 10 18
-2 25 -6 4 -8 11 -5 16 7 10 33 8 53 -4 6 -5 17 -5 22 -2 15 9 1 27 -16 21 -7
-3 -16 -1 -20 5 -3 6 -13 8 -21 5 -8 -3 -11 -1 -8 4 3 6 1 10 -5 10 -7 0 -10
-6 -7 -13 3 -8 -1 -14 -8 -14 -11 0 -11 5 -4 19 6 12 17 17 25 14 12 -4 14 0
10 17 -5 19 -4 19 7 -3 13 -27 51 -42 41 -16 -3 9 -11 14 -17 13 -7 -1 -11 6
-11 15 1 10 -2 15 -7 12 -5 -3 -9 0 -9 7 0 9 -3 9 -14 0 -11 -9 -15 -9 -19 1
-4 9 -6 10 -6 1z m2 -38 c-19 -14 -37 -10 -27 6 3 5 10 7 15 4 5 -4 9 -1 9 5
0 6 5 8 11 5 6 -5 4 -12 -8 -20z"/>
<path d="M2913 1115 c0 -11 -3 -31 -7 -44 -6 -17 -5 -22 4 -16 9 6 9 3 1 -13
-14 -26 -14 -35 -1 -27 6 3 7 -1 4 -9 -4 -9 -1 -16 6 -16 8 0 11 10 7 27 -5
29 10 73 26 73 5 0 4 7 -3 15 -7 8 -16 13 -20 10 -5 -3 -10 1 -13 7 -3 7 -5 4
-4 -7z m20 -30 c-3 -9 -8 -14 -10 -11 -3 3 -2 9 2 15 9 16 15 13 8 -4z"/>
<path d="M2879 1100 c0 -3 -2 -13 -4 -22 -4 -20 10 -24 21 -7 3 6 1 16 -5 22
-6 6 -11 9 -12 7z"/>
<path d="M2820 1060 c-12 -16 -18 -30 -14 -30 4 0 0 -8 -10 -19 -9 -10 -14
-25 -10 -35 5 -13 2 -15 -12 -10 -11 4 -16 4 -13 0 4 -4 -4 -19 -18 -34 -42
-46 -49 -57 -47 -69 1 -7 2 -18 3 -23 1 -14 41 7 41 22 0 6 -6 5 -17 -3 -9 -8
-14 -9 -10 -2 4 6 4 13 0 16 -5 2 -2 2 5 0 8 -1 10 2 6 9 -5 7 -3 8 6 3 9 -5
11 -4 6 3 -4 7 -2 20 3 29 6 11 11 13 11 5 0 -7 4 -11 9 -8 5 3 11 -1 15 -9 3
-8 0 -17 -6 -21 -6 -4 -8 -3 -5 3 4 6 0 13 -7 16 -10 4 -14 -1 -13 -14 2 -22
29 -25 46 -5 9 10 9 16 1 21 -6 4 -9 14 -6 22 5 11 1 13 -17 8 -14 -4 -10 1
12 15 27 17 32 24 20 32 -10 7 -8 8 8 3 18 -5 22 -3 17 9 -3 9 -11 13 -17 9
-5 -3 -7 -1 -4 5 4 5 16 8 27 5 12 -3 20 0 20 6 0 7 -5 9 -12 5 -10 -6 -10 -4
0 8 10 13 10 17 0 21 -10 4 -10 7 -1 16 7 6 11 8 8 4 -8 -10 26 -43 38 -36 6
3 7 1 3 -6 -4 -6 -12 -9 -17 -6 -5 4 -9 3 -9 -2 0 -13 14 -29 35 -41 11 -6 14
-12 7 -12 -7 0 -10 -5 -6 -12 4 -6 3 -8 -4 -4 -6 3 -13 2 -17 -4 -3 -5 1 -10
9 -10 25 0 36 32 20 55 -8 10 -11 28 -8 38 5 16 3 19 -10 14 -9 -4 -17 -2 -17
3 -1 6 -2 15 -3 22 -2 23 -25 18 -46 -12z"/>
<path d="M2841 1003 c-10 -4 -8 -9 10 -20 20 -11 20 -13 3 -8 -37 10 -84 -51
-53 -70 7 -5 4 -14 -7 -26 -16 -18 -16 -20 2 -41 10 -12 13 -18 5 -13 -9 5
-12 4 -8 -2 4 -6 -7 -9 -30 -7 -33 2 -34 1 -20 -13 14 -14 18 -14 33 -2 16 13
16 12 3 -8 -12 -21 -15 -21 -31 -6 -17 15 -18 14 -15 -13 3 -26 1 -29 -22 -28
-16 1 -26 7 -25 16 1 10 -8 15 -27 15 -23 0 -26 -3 -18 -14 6 -7 15 -11 19 -8
6 4 13 -6 38 -58 3 -5 -5 -4 -18 3 -13 7 -19 17 -16 27 4 9 1 13 -6 11 -23 -8
-19 -27 9 -43 15 -9 21 -14 12 -11 -11 3 -21 -4 -28 -20 -6 -14 -15 -23 -20
-19 -5 3 -12 -4 -16 -15 -4 -11 -11 -18 -16 -15 -5 4 -9 2 -9 -3 0 -17 -55 -8
-70 11 -15 18 -17 18 -30 2 -12 -15 -12 -16 6 -13 13 2 19 -2 18 -13 -1 -13 7
-16 35 -15 40 1 40 1 112 67 31 29 49 54 47 64 -2 10 3 19 10 21 7 1 8 0 2 -3
-5 -2 -8 -9 -5 -13 9 -14 42 23 37 39 -3 8 -1 12 5 8 6 -4 24 11 42 33 31 39
37 67 16 82 -6 5 -4 8 5 8 13 0 13 1 0 10 -8 5 -10 10 -4 10 6 0 18 -8 25 -17
8 -9 9 -14 3 -10 -6 3 -11 0 -11 -8 0 -25 14 -17 29 15 7 17 17 30 23 30 11 0
-15 20 -27 20 -4 0 -5 -12 -2 -27 3 -20 2 -24 -5 -13 -5 8 -8 17 -5 21 2 4 0
10 -6 14 -5 3 -10 2 -10 -3 0 -5 -7 -9 -16 -9 -14 0 -15 2 -2 11 8 6 15 14 14
18 -1 3 3 10 8 15 5 4 6 3 2 -4 -3 -6 -2 -14 4 -18 5 -3 10 -1 10 5 0 6 4 9 9
6 5 -3 14 1 20 8 10 11 8 16 -9 21 -11 3 -18 11 -15 16 7 10 6 10 -14 2z m-36
-132 c-3 -5 -1 -12 5 -16 5 -3 10 -11 10 -18 0 -6 -6 -2 -14 8 -13 18 -13 35
0 35 3 0 3 -4 -1 -9z"/>
<path d="M484 892 c3 -18 42 -26 52 -10 3 4 2 7 -3 6 -4 -1 -18 3 -30 10 -18
10 -21 9 -19 -6z"/>
<path d="M2732 840 c-14 -11 -20 -24 -16 -31 5 -8 3 -9 -6 -4 -9 6 -11 4 -5
-5 5 -8 4 -11 -3 -6 -6 4 -9 12 -7 19 3 7 1 18 -4 26 -7 11 -12 10 -29 -7 -11
-11 -18 -22 -16 -24 2 -3 -7 -11 -21 -18 -24 -13 -24 -14 -8 -32 12 -14 14
-21 5 -30 -8 -8 -7 -15 6 -25 16 -12 16 -13 -1 -7 -13 5 -16 2 -11 -10 3 -9 1
-16 -6 -16 -6 0 -8 5 -5 10 3 6 2 10 -3 10 -8 0 -22 -22 -22 -34 0 -1 13 -2
30 -2 34 0 50 27 30 51 -10 12 -10 18 -1 29 7 8 8 15 2 18 -5 1 -11 9 -13 17
-2 10 8 15 35 17 35 3 38 1 32 -19 -4 -15 -3 -18 3 -9 5 8 13 13 18 13 4 -1 8
11 9 26 0 21 5 28 20 29 47 2 48 3 35 19 -16 19 -20 19 -48 -5z m33 0 c3 -5 1
-10 -4 -10 -6 0 -11 5 -11 10 0 6 2 10 4 10 3 0 8 -4 11 -10z m-83 -19 c-8 -4
-13 -12 -12 -17 1 -5 -4 -10 -12 -12 -9 -2 -8 0 2 7 8 6 11 11 7 11 -5 0 -5 5
-2 10 3 6 12 10 18 10 8 0 8 -3 -1 -9z"/>
<path d="M470 840 c0 -5 5 -10 10 -10 6 0 10 5 10 10 0 6 -4 10 -10 10 -5 0
-10 -4 -10 -10z"/>
<path d="M524 838 c3 -10 1 -18 -5 -18 -6 0 -7 -5 -3 -11 4 -7 10 -7 16 -1 7
7 6 16 -2 29 -10 16 -11 16 -6 1z"/>
<path d="M550 822 c0 -4 9 -13 20 -20 19 -12 20 -11 8 8 -13 20 -28 27 -28 12z"/>
<path d="M624 788 c1 -13 7 -22 14 -20 7 1 12 -2 12 -7 0 -13 -27 -21 -46 -14
-9 3 -5 -6 10 -22 20 -22 23 -30 14 -37 -7 -4 -11 -8 -8 -9 3 0 12 -2 21 -4
11 -2 16 5 16 26 0 21 -4 26 -12 19 -8 -7 -12 -5 -12 4 0 10 8 13 25 10 23 -5
24 -3 11 13 -13 16 -12 17 3 4 10 -7 15 -18 11 -24 -4 -6 -1 -7 7 -2 8 5 11 4
7 -2 -4 -6 1 -10 10 -9 12 1 18 -7 18 -24 1 -14 6 -34 13 -45 l13 -20 -2 20
c-2 36 1 46 13 39 7 -5 8 -3 4 5 -5 7 -10 10 -13 7 -3 -2 -21 13 -41 35 -20
21 -42 39 -49 39 -7 0 -12 3 -12 8 3 20 -2 32 -15 32 -8 0 -13 -9 -12 -22z
m26 -2 c0 -3 -4 -8 -10 -11 -5 -3 -10 -1 -10 4 0 6 5 11 10 11 6 0 10 -2 10
-4z"/>
<path d="M550 759 c0 -5 5 -7 10 -4 6 3 10 8 10 11 0 2 -4 4 -10 4 -5 0 -10
-5 -10 -11z"/>
<path d="M2588 749 c-10 -6 -18 -17 -18 -24 0 -8 -3 -14 -7 -14 -20 3 -34 -2
-28 -11 4 -7 13 -7 26 0 13 7 19 7 19 0 0 -5 -8 -10 -17 -10 -14 0 -15 -2 -4
-9 11 -7 11 -9 0 -14 -12 -5 -11 -8 1 -17 13 -10 13 -11 -2 -6 -10 3 -18 1
-18 -5 0 -6 -7 -4 -15 5 -19 19 -20 32 -1 16 12 -9 15 -8 13 9 -1 24 -10 26
-29 8 -7 -6 -30 -23 -50 -37 -21 -14 -38 -29 -38 -33 0 -5 -5 -5 -12 -1 -7 5
-8 3 -4 -5 6 -9 13 -8 29 6 19 16 20 16 8 1 -15 -21 -2 -24 19 -5 12 10 12 9
0 -6 -7 -10 -19 -16 -26 -13 -7 3 -16 -4 -19 -15 -4 -10 -11 -19 -17 -19 -6 0
-6 6 2 15 7 9 10 18 7 22 -8 7 -97 -39 -97 -50 0 -5 -4 -6 -8 -3 -5 3 -18 -3
-28 -12 -20 -19 -26 -22 -49 -22 -9 0 -12 -6 -8 -16 5 -15 7 -15 15 1 9 15 11
15 30 -2 20 -18 21 -18 13 6 -5 18 -4 22 5 16 9 -6 11 -4 5 5 -5 7 -4 11 1 7
5 -3 8 -20 8 -39 -1 -28 -5 -33 -24 -30 -18 2 -20 -1 -12 -11 12 -14 11 -42
-2 -54 -4 -4 -7 -3 -6 2 5 23 -1 24 -21 4 -11 -11 -27 -18 -37 -15 -12 4 -18
0 -19 -13 -2 -20 28 -23 35 -3 2 6 10 8 19 5 12 -5 14 -3 8 7 -5 8 -3 11 6 8
8 -3 25 3 39 12 14 10 27 18 30 18 13 0 80 37 80 44 0 4 8 8 19 8 19 0 48 26
39 35 -3 3 -13 2 -22 -1 -14 -5 -15 -9 -4 -15 9 -6 6 -8 -10 -6 -12 0 -25 9
-28 19 -3 10 -10 16 -15 12 -6 -3 -16 -1 -23 5 -11 9 -13 6 -13 -14 0 -21 2
-23 14 -13 11 9 16 9 23 -2 9 -15 2 -42 -10 -35 -5 3 -11 -1 -13 -7 -4 -10 -6
-10 -6 -1 -1 7 -8 10 -17 6 -13 -5 -13 -8 -2 -15 10 -8 10 -9 -2 -5 -8 2 -20
-3 -26 -11 -9 -13 -11 -13 -11 1 0 8 11 21 24 28 13 7 23 16 23 21 0 5 -4 7
-9 3 -14 -8 -25 15 -13 27 6 6 8 17 5 26 -5 11 -3 13 7 7 8 -5 11 -4 6 3 -3 6
3 16 15 22 15 8 19 9 15 1 -4 -6 -2 -11 3 -11 6 0 11 6 11 14 0 8 4 17 8 20 4
2 8 -4 8 -15 0 -10 -4 -19 -8 -19 -4 0 -5 -7 -2 -15 4 -8 10 -12 15 -9 5 3 7
10 4 15 -4 5 -1 9 4 9 10 0 15 -14 12 -34 -1 -5 5 -6 14 -2 9 3 19 6 21 6 2 0
4 5 4 11 0 5 -4 8 -9 5 -13 -8 -21 18 -11 34 7 11 11 11 26 -1 16 -12 17 -12
12 2 -8 20 6 46 16 30 4 -6 2 -11 -4 -11 -6 0 -8 -5 -5 -10 4 -6 12 -8 18 -4
7 3 4 -1 -5 -9 -19 -15 -25 -33 -9 -22 5 3 12 1 16 -4 3 -6 -3 -8 -14 -6 -20
4 -37 -20 -21 -30 6 -4 10 -2 10 3 0 5 10 12 21 15 14 4 20 11 16 21 -7 19 9
31 19 15 5 -8 3 -9 -6 -4 -9 5 -11 4 -6 -3 5 -9 14 -7 31 5 27 21 14 36 -24
26 -21 -5 -22 -3 -16 18 4 16 3 19 -3 11 -7 -10 -11 -10 -22 3 -11 13 -10 18
6 29 15 12 22 11 45 -6 24 -18 29 -19 54 -5 18 9 24 17 16 21 -6 4 -11 1 -11
-6 0 -8 -4 -6 -11 4 -11 20 4 58 23 58 6 0 8 3 5 7 -4 3 -2 12 5 20 15 19 -2
35 -24 22z m10 -23 c-7 -8 -15 -12 -17 -11 -5 6 10 25 20 25 5 0 4 -6 -3 -14z
m-48 -160 c0 -3 -4 -8 -10 -11 -5 -3 -10 -1 -10 4 0 6 5 11 10 11 6 0 10 -2
10 -4z"/>
<path d="M669 720 c-8 -27 -3 -90 6 -90 6 0 12 7 12 15 0 8 -3 15 -6 15 -3 0
-7 12 -8 27 -1 21 1 23 8 11 5 -9 10 -26 12 -39 2 -12 12 -26 23 -30 13 -5 14
-8 4 -8 -10 -1 -6 -7 10 -19 25 -17 34 -43 15 -41 -5 0 -9 7 -7 16 2 10 -1 12
-9 7 -7 -4 -10 -3 -6 3 4 6 0 13 -7 16 -8 3 -17 1 -20 -6 -3 -7 -4 -3 -1 9 4
16 1 20 -17 20 -13 -1 -22 4 -20 12 1 6 -3 12 -9 12 -5 0 -7 5 -3 12 4 6 3 8
-4 4 -6 -3 -17 0 -25 8 -8 8 -17 12 -20 9 -7 -6 59 -73 72 -73 5 0 12 -7 15
-16 3 -8 10 -13 15 -9 5 3 12 -4 16 -15 6 -19 16 -24 43 -21 7 1 11 -3 10 -9
-6 -23 29 -35 56 -20 23 12 24 14 9 25 -9 7 -13 17 -8 25 5 9 2 10 -14 5 -14
-4 -21 -2 -21 6 0 7 -2 10 -5 7 -8 -8 6 -39 15 -33 4 3 10 -2 14 -10 3 -8 0
-17 -6 -21 -6 -4 -8 -3 -4 4 3 6 -2 13 -13 17 -15 4 -19 13 -16 35 3 21 0 28
-10 24 -16 -7 -49 51 -48 84 0 15 -4 21 -12 18 -7 -2 -18 1 -24 7 -6 6 -12 9
-12 7z"/>
<path d="M777 646 c17 -14 30 -20 34 -14 4 7 9 6 13 -1 4 -6 2 -11 -4 -11 -6
0 -9 -4 -5 -9 3 -5 0 -13 -6 -17 -7 -4 -9 -3 -5 4 3 6 1 14 -5 17 -7 5 -10 0
-7 -11 2 -11 10 -19 18 -20 33 -2 38 -5 44 -20 5 -14 4 -15 -9 -4 -10 8 -15 9
-15 1 0 -12 0 -12 48 -16 27 -2 30 0 21 11 -6 8 -15 12 -19 9 -4 -3 -10 2 -14
10 -7 20 16 15 32 -8 7 -9 17 -15 22 -12 4 3 10 -2 14 -10 6 -17 -7 -27 -26
-20 -9 4 -15 0 -15 -10 0 -18 32 -11 60 13 17 15 23 8 18 -21 -1 -5 8 -6 19
-2 12 4 20 2 20 -5 0 -6 5 -8 12 -4 6 4 8 3 5 -2 -7 -12 8 -38 23 -40 5 -1 15
-2 21 -3 5 0 7 -5 4 -11 -3 -5 -2 -10 4 -10 5 0 13 10 16 21 6 17 9 18 16 8 4
-7 11 -10 16 -6 4 5 1 12 -7 17 -9 5 -19 5 -24 0 -10 -10 -36 -2 -36 12 0 6 6
5 15 -2 10 -9 15 -9 15 -1 0 6 -4 12 -10 12 -26 3 -59 18 -91 40 -14 10 -29
16 -32 12 -4 -3 -9 2 -13 11 -3 9 -12 16 -19 16 -7 0 -18 7 -25 15 -7 9 -15
14 -17 11 -2 -2 -21 11 -41 29 -20 19 -40 32 -44 29 -4 -3 -8 0 -8 5 0 6 -9
11 -21 11 -18 0 -18 -2 8 -24z m78 -46 c-3 -5 -12 -10 -18 -10 -7 0 -6 4 3 10
19 12 23 12 15 0z"/>
<path d="M756 634 c-8 -22 -1 -28 19 -17 14 8 14 11 2 22 -12 9 -16 8 -21 -5z"/>
<path d="M1579 627 c-54 -20 -104 -54 -138 -93 -33 -37 -71 -105 -71 -127 0
-7 -11 -13 -25 -13 -14 0 -25 4 -25 8 0 4 -4 8 -8 8 -5 0 -9 -13 -9 -29 0 -20
5 -28 16 -27 11 1 15 -6 13 -24 -3 -23 -3 -24 10 -7 13 18 14 17 14 -2 0 -11
-5 -17 -10 -14 -5 4 -7 -1 -3 -11 4 -10 3 -15 -3 -11 -6 3 -10 1 -10 -4 0 -6
7 -11 15 -11 8 0 18 -16 24 -35 36 -133 151 -225 291 -233 102 -6 175 22 246
92 47 48 94 137 94 181 0 14 12 20 34 16 4 -1 14 3 20 8 11 9 39 17 69 20 11
1 8 31 -4 31 -5 0 -8 -4 -4 -9 3 -5 0 -13 -6 -17 -8 -5 -9 -3 -5 5 11 18 -26
10 -42 -9 -9 -12 -12 -12 -10 -1 2 7 -3 16 -10 18 -11 4 -12 1 -3 -16 8 -14 8
-21 1 -21 -5 0 -10 7 -10 16 0 8 -5 12 -10 9 -6 -4 -7 -11 -4 -17 5 -7 2 -8
-5 -3 -9 5 -10 10 -2 18 13 13 15 31 3 23 -5 -3 -9 1 -9 8 0 11 5 11 26 0 33
-18 38 -17 38 1 0 10 -6 13 -18 10 -24 -8 -31 8 -14 31 18 24 19 38 3 27 -31
-18 -44 -11 -72 42 -32 62 -85 114 -148 146 -54 28 -184 36 -239 16z m432
-240 c-10 -9 -11 -8 -5 6 3 10 9 15 12 12 3 -3 0 -11 -7 -18z m-662 -13 c4 3
8 -1 8 -8 0 -11 -4 -12 -18 -3 -10 6 -15 16 -12 21 4 6 8 5 11 -2 2 -7 7 -10
11 -8z"/>
<path d="M2436 551 c-3 -5 1 -11 9 -15 8 -3 15 -1 15 4 0 13 -18 22 -24 11z"/>
<path d="M841 519 l-34 -20 36 -25 c20 -13 45 -23 56 -21 23 4 41 17 23 17 -7
0 -12 5 -12 11 0 8 5 7 15 -1 9 -7 18 -11 20 -8 3 3 -2 11 -10 18 -13 11 -19
9 -37 -10 -20 -22 -22 -22 -35 -4 -7 10 -19 22 -25 27 -8 5 -4 6 11 2 15 -5
21 -3 17 3 -4 6 2 15 11 21 10 6 14 11 8 11 -5 0 -25 -9 -44 -21z"/>
<path d="M2343 523 c9 -9 20 -13 24 -9 4 4 1 11 -7 16 -25 16 -35 11 -17 -7z"/>
<path d="M944 509 c-3 -6 -1 -16 5 -22 6 -6 11 -7 11 -2 0 4 9 0 19 -9 23 -21
49 -12 30 10 -6 7 -15 12 -19 9 -5 -3 -16 -2 -25 1 -13 5 -14 8 -3 15 9 6 9 9
1 9 -6 0 -15 -5 -19 -11z"/>
<path d="M2397 513 c-10 -9 -9 -23 1 -23 5 0 9 7 9 15 0 17 -1 18 -10 8z"/>
<path d="M870 484 c0 -8 5 -12 10 -9 6 3 10 10 10 16 0 5 -4 9 -10 9 -5 0 -10
-7 -10 -16z"/>
<path d="M2315 489 c-4 -6 -5 -12 -2 -15 2 -3 7 2 10 11 7 17 1 20 -8 4z"/>
<path d="M2190 480 c0 -6 -4 -9 -9 -5 -5 3 -12 1 -16 -5 -4 -6 -11 -8 -16 -5
-5 4 -12 0 -15 -8 -3 -8 -13 -14 -22 -12 -22 3 -54 -13 -47 -24 3 -5 -2 -12
-11 -15 -8 -3 -13 -10 -10 -15 4 -5 0 -12 -6 -15 -7 -2 -2 -4 12 -3 13 1 25
-4 26 -10 1 -7 2 -15 3 -18 0 -3 11 0 23 6 18 9 24 8 34 -6 12 -15 13 -15 24
4 7 14 7 21 0 21 -5 0 -10 -5 -10 -10 0 -6 -6 -5 -14 2 -8 7 -12 21 -11 30 2
10 0 20 -6 23 -9 6 -13 -7 -10 -32 1 -6 -3 -14 -9 -18 -6 -4 -7 1 -4 12 4 14
3 15 -4 4 -7 -9 -12 -10 -16 -2 -4 6 -2 11 3 11 13 0 10 22 -3 32 -5 3 2 6 15
5 13 0 31 2 39 4 11 3 15 -4 13 -29 -2 -28 0 -31 17 -22 10 5 26 7 34 4 18 -7
22 11 4 22 -7 5 -8 3 -3 -7 7 -12 6 -12 -7 -1 -13 10 -17 10 -21 0 -3 -7 -4
-3 -4 10 1 12 5 22 9 22 4 0 8 5 8 11 0 6 -7 9 -15 6 -8 -4 -17 -1 -21 5 -4 6
-3 8 4 4 6 -3 14 -1 18 5 10 17 25 -12 18 -36 -6 -19 -5 -19 12 -3 15 15 15
20 4 35 -13 17 -13 17 5 1 16 -15 16 -19 4 -34 -12 -16 -12 -17 3 -11 13 4 16
2 12 -11 -3 -9 1 -6 9 7 9 15 16 20 20 12 4 -8 5 -7 3 1 -2 7 -9 12 -15 11
-17 -4 -13 14 4 21 8 3 23 3 33 -1 11 -4 8 1 -8 14 -21 18 -26 19 -35 6 -10
-13 -13 -13 -28 2 -9 9 -17 11 -17 5z"/>
<path d="M940 460 c-13 -10 -29 -16 -35 -13 -5 2 1 -5 15 -16 29 -24 36 -25
46 -9 4 7 3 8 -4 4 -7 -4 -12 -2 -12 4 0 6 -5 8 -12 4 -7 -4 -8 -3 -4 4 4 6
14 9 24 6 14 -5 15 -4 2 5 -22 16 -3 13 31 -5 17 -8 33 -13 36 -10 3 3 19 -4
34 -15 26 -18 30 -19 35 -4 5 12 14 15 31 10 19 -4 23 -3 17 7 -6 11 -5 11 8
0 13 -10 17 -10 20 0 3 9 6 9 12 0 4 -7 2 -12 -4 -12 -8 0 -8 -6 0 -20 6 -11
15 -20 21 -20 6 0 6 7 -1 20 -7 14 -7 20 0 20 5 0 10 -8 10 -17 0 -15 2 -14
16 3 15 18 15 18 5 -3 -14 -29 -14 -33 3 -27 8 3 12 12 9 20 -3 8 0 14 7 14 6
0 8 -4 5 -10 -3 -5 -2 -10 4 -10 5 0 11 3 14 8 2 4 2 1 0 -6 -1 -7 2 -10 7 -7
6 3 10 1 10 -5 0 -7 -8 -9 -20 -5 -15 5 -18 3 -14 -9 3 -9 11 -13 17 -9 6 3 7
1 3 -5 -4 -6 -13 -9 -21 -6 -8 4 -12 10 -9 15 3 5 1 9 -4 9 -6 0 -13 -7 -16
-16 -8 -20 -8 -24 2 -23 24 4 33 -3 27 -21 -4 -11 -3 -19 2 -18 4 1 19 -2 32
-6 31 -11 46 5 32 33 -9 16 -9 21 0 21 7 0 10 3 6 6 -9 10 -32 -10 -34 -29 -1
-13 4 -17 15 -12 13 5 14 3 5 -5 -8 -9 -16 -9 -30 -1 -10 6 -12 11 -5 11 6 0
12 5 12 11 0 5 -4 8 -9 4 -5 -3 -3 8 5 24 11 22 12 35 5 49 -10 18 -60 37 -88
33 -7 -1 -13 3 -13 10 0 6 -7 9 -15 5 -8 -3 -15 -1 -15 5 0 6 -8 6 -21 -1 -11
-7 -23 -9 -26 -6 -3 3 -12 -2 -20 -12 -12 -16 -14 -16 -28 2 -8 11 -15 16 -15
12 0 -5 -7 -3 -15 4 -8 6 -19 9 -25 5 -6 -4 -19 0 -28 8 -16 14 -20 14 -42 -3z"/>
<path d="M2345 469 c-9 -14 -2 -20 14 -10 8 6 9 11 3 15 -6 3 -14 1 -17 -5z"/>
<path d="M973 420 c-1 -11 7 -25 18 -30 18 -10 23 -6 20 13 -1 5 3 5 9 2 6 -4
9 -14 5 -22 -4 -13 -3 -14 10 -3 8 7 12 17 9 24 -3 6 3 1 15 -12 13 -15 22
-19 27 -11 7 12 24 -6 24 -26 0 -5 -4 -4 -9 4 -5 7 -13 11 -19 7 -6 -3 -15 1
-20 10 -8 15 -10 15 -15 0 -4 -10 -3 -15 3 -11 6 3 10 1 10 -5 0 -6 6 -10 13
-8 6 1 27 -6 45 -15 17 -10 32 -15 32 -11 0 4 7 1 15 -6 8 -7 15 -10 15 -6 0
4 14 -1 31 -10 17 -8 28 -11 25 -6 -3 6 -1 12 6 14 9 3 9 6 0 12 -7 4 -12 2
-12 -3 0 -6 -4 -11 -9 -11 -5 0 -8 14 -6 30 3 21 0 30 -10 30 -7 0 -22 12 -33
26 -16 23 -20 24 -25 10 -4 -10 -3 -15 3 -11 5 3 15 -5 21 -19 8 -16 17 -23
28 -19 14 4 14 3 1 -6 -13 -10 -13 -12 0 -21 12 -7 10 -9 -7 -8 -13 2 -19 7
-15 16 4 12 1 12 -16 3 -20 -11 -21 -10 -12 14 6 15 10 27 10 29 0 1 -9 2 -21
3 -17 2 -18 -1 -8 -13 10 -12 9 -17 -1 -27 -10 -9 -11 -9 -6 1 4 6 4 18 -1 25
-14 22 -12 36 5 30 14 -5 15 -3 4 8 -10 11 -15 10 -29 -3 -15 -15 -18 -15 -41
0 -13 9 -32 17 -41 18 -9 1 -23 4 -31 8 -11 5 -16 0 -17 -14z m34 -15 c0 -8
-4 -12 -9 -9 -4 3 -8 9 -8 15 0 5 4 9 8 9 5 0 9 -7 9 -15z"/>
</g>
</svg>
