<svg width="117" height="40" viewBox="0 0 117 40" fill="none" xmlns="http://www.w3.org/2000/svg">
<path d="M19.9985 23.1498C21.8413 23.1498 23.3353 21.656 23.3353 19.8133C23.3353 17.9706 21.8413 16.4768 19.9985 16.4768C18.1557 16.4768 16.6617 17.9706 16.6617 19.8133C16.6617 21.656 18.1557 23.1498 19.9985 23.1498Z" fill="#B84297"/>
<path d="M58.6999 8.82219C56.9432 8.80672 55.2096 9.22224 53.6509 10.0323C52.0922 10.8424 50.756 12.0224 49.7595 13.4687C48.763 14.9151 48.1365 16.5837 47.935 18.3284C47.7335 20.0731 47.9631 21.8405 48.6038 23.4759C49.2444 25.1112 50.2764 26.5645 51.6094 27.7084C52.9425 28.8523 54.5358 29.6518 56.2498 30.037C57.9637 30.4221 59.7461 30.3811 61.4405 29.9175C63.1349 29.4539 64.6897 28.5819 65.9687 27.3779V29.3229H69.3364V20.0699C69.3449 19.8709 69.3501 19.6702 69.3484 19.4679C69.315 16.6548 68.1824 13.9664 66.1926 11.9772C64.2028 9.9879 61.5137 8.85558 58.6999 8.82219ZM58.7462 26.9577C57.2708 26.9855 55.8207 26.5717 54.5823 25.7694C53.3438 24.9671 52.3736 23.813 51.7961 22.4554C51.2186 21.0977 51.0603 19.5984 51.3416 18.1501C51.6228 16.7019 52.3306 15.3707 53.3742 14.3276C54.4178 13.2845 55.7495 12.5771 57.1983 12.2964C58.647 12.0156 60.1466 12.1742 61.5045 12.7518C62.8624 13.3294 64.0166 14.2997 64.8188 15.538C65.621 16.7763 66.0346 18.2261 66.0065 19.7011C66.0065 19.7749 66.0065 19.8469 65.9962 19.9189H65.9704V20.2808C65.7876 22.0833 64.9522 23.7568 63.6214 24.9865C62.2906 26.2161 60.5562 26.9172 58.7445 26.9577H58.7462Z" fill="#292D33"/>
<path d="M82.1623 8.82224C79.3807 8.79404 76.6973 9.84963 74.6807 11.7654V2.40088H71.3148V19.919H71.3337C71.404 22.0224 72.0911 24.0588 73.3095 25.775C74.5278 27.4913 76.2238 28.8118 78.1866 29.5725C80.1494 30.3332 82.2925 30.5004 84.3497 30.0535C86.4068 29.6066 88.2872 28.5653 89.7572 27.0588C91.2273 25.5524 92.2221 23.6473 92.6182 21.5803C93.0142 19.5133 92.7939 17.3755 91.9848 15.4326C91.1756 13.4897 89.8133 11.8274 88.0669 10.6521C86.3206 9.47688 84.2674 8.84056 82.1623 8.82224ZM82.2035 26.9578C80.2801 26.9945 78.418 26.2808 77.0121 24.9681C75.6061 23.6553 74.7668 21.8468 74.6722 19.9259V19.1729C74.7479 17.7345 75.2421 16.3495 76.0941 15.1879C76.946 14.0262 78.1187 13.1386 79.4681 12.6338C80.8175 12.129 82.285 12.029 83.6904 12.3462C85.0959 12.6634 86.3781 13.3839 87.3798 14.4193C88.3814 15.4546 89.0589 16.7599 89.3291 18.1747C89.5993 19.5896 89.4504 21.0525 88.9007 22.384C88.3511 23.7155 87.4245 24.8575 86.2348 25.67C85.0451 26.4825 83.644 26.9301 82.2035 26.9578Z" fill="#292D33"/>
<path d="M105.625 8.82254C104.199 8.80996 102.785 9.08151 101.465 9.62136C100.145 10.1612 98.9453 10.9585 97.9367 11.9668C96.9282 12.975 96.1307 14.174 95.5907 15.4938C95.0507 16.8135 94.779 18.2276 94.7916 19.6534C94.7916 19.7426 94.7916 19.825 94.7916 19.9193H94.7728V37.4391H98.1387V27.3371C99.4084 28.5401 100.953 29.4146 102.638 29.8847C104.323 30.3548 106.097 30.4062 107.806 30.0344C109.515 29.6627 111.108 28.8789 112.445 27.7515C113.782 26.624 114.824 25.187 115.479 23.5654C116.134 21.9438 116.382 20.1868 116.203 18.4472C116.024 16.7076 115.422 15.0381 114.451 13.584C113.479 12.1299 112.166 10.9352 110.627 10.1038C109.088 9.27249 107.369 8.8297 105.62 8.81396L105.625 8.82254ZM105.673 26.9581C103.754 26.9945 101.896 26.2839 100.491 24.9764C99.0862 23.6688 98.2445 21.8665 98.1438 19.9502V19.9193C98.1438 19.7478 98.1318 19.5883 98.1438 19.4202C98.173 17.9694 98.6283 16.5593 99.453 15.3652C100.278 14.1711 101.435 13.2457 102.782 12.7043C104.129 12.1629 105.605 12.0294 107.027 12.3202C108.449 12.611 109.754 13.3135 110.78 14.3401C111.805 15.3668 112.506 16.6723 112.796 18.0942C113.085 19.5162 112.95 20.9918 112.407 22.3374C111.864 23.6831 110.937 24.8394 109.741 25.6625C108.546 26.4856 107.135 26.9391 105.684 26.9667L105.673 26.9581Z" fill="#292D33"/>
<path d="M19.9977 8.7911e-06C16.9662 -0.00283686 13.974 0.685199 11.2484 2.01183V6.30817C13.6768 4.75828 16.4734 3.881 19.3522 3.76603C22.231 3.65107 25.0887 4.30255 27.6331 5.65386C30.1775 7.00517 32.3172 9.00781 33.8335 11.457C35.3497 13.9062 36.1881 16.714 36.263 19.5934V31.678C38.4092 28.6875 39.6889 25.1632 39.9613 21.4926C40.2337 17.8221 39.4883 14.1475 37.807 10.8731C36.1258 7.59867 33.5738 4.85122 30.4317 2.93292C27.2897 1.01461 23.6793 -0.000229797 19.9977 8.7911e-06Z" fill="#292D33"/>
<path d="M19.998 36.2694C15.8193 36.2692 11.801 34.6607 8.77698 31.7777C5.7529 28.8946 3.95517 24.9583 3.75677 20.7854H3.7379V8.3457C0.813726 12.4313 -0.466249 17.4671 0.152236 22.4527C0.770721 27.4382 3.24241 32.0089 7.07631 35.2565C10.9102 38.5042 15.8258 40.1913 20.8466 39.9827C25.8674 39.7741 30.626 37.6851 34.1771 34.1306V27.9734C32.7634 30.4904 30.7048 32.5855 28.2128 34.0436C25.7208 35.5016 22.8854 36.2698 19.998 36.2694Z" fill="#292D33"/>
<path d="M19.9981 25.1329C18.7891 25.134 17.6147 24.7293 16.6631 23.9838V27.8085C18.3979 28.5218 20.3162 28.6589 22.1349 28.1994C23.9536 27.74 25.5764 26.7083 26.764 25.2566C27.9516 23.8049 28.641 22.01 28.7306 20.1368C28.8202 18.2636 28.3053 16.4111 27.2617 14.8528C26.2181 13.2944 24.7011 12.1126 22.9346 11.4817C21.168 10.8508 19.2455 10.8043 17.4504 11.3489C15.6554 11.8935 14.083 13.0004 12.9651 14.5065C11.8472 16.0125 11.2431 17.8378 11.2419 19.7132V30.9591C12.2592 31.7598 13.3813 32.4177 14.5769 32.9143V19.708C14.5769 18.6361 14.8949 17.5882 15.4906 16.697C16.0863 15.8057 16.9329 15.111 17.9235 14.7008C18.9141 14.2906 20.0041 14.1833 21.0557 14.3924C22.1073 14.6015 23.0733 15.1177 23.8315 15.8757C24.5896 16.6336 25.1059 17.5993 25.3151 18.6507C25.5243 19.702 25.4169 20.7917 25.0066 21.7821C24.5963 22.7724 23.9015 23.6188 23.01 24.2144C22.1184 24.8099 21.0703 25.1277 19.9981 25.1277V25.1329Z" fill="#292D33"/>
<path d="M9.1571 28.9464V19.8135C9.15815 17.5265 9.88308 15.2985 11.2281 13.4485C12.573 11.5986 14.4691 10.2216 16.6447 9.51468C18.8203 8.8078 21.1638 8.80732 23.3397 9.5133C25.5156 10.2193 27.4122 11.5955 28.7579 13.4449C30.1037 15.2943 30.8295 17.522 30.8315 19.809C30.8335 22.096 30.1115 24.325 28.769 26.1768C27.4265 28.0285 25.5323 29.4081 23.3577 30.1178C21.183 30.8276 18.8395 30.8312 16.6627 30.1282V33.5927C19.1173 34.1869 21.6861 34.1148 24.1036 33.384C26.5211 32.6532 28.6994 31.2901 30.4134 29.4357C32.1274 27.5812 33.3148 25.3028 33.853 22.8359C34.3911 20.369 34.2604 17.8031 33.4744 15.4036C32.6884 13.0041 31.2755 10.8581 29.382 9.18732C27.4884 7.51657 25.1828 6.38177 22.7036 5.90024C20.2244 5.41871 17.6615 5.60793 15.28 6.44834C12.8984 7.28874 10.7846 8.74983 9.1571 10.6806V6.04976V3.18896C7.94981 3.96616 6.82942 4.87062 5.81519 5.88683V20.2388C5.90984 23.4361 7.0882 26.5064 9.1571 28.9464Z" fill="#292D33"/>
</svg>
