<svg xmlns="http://www.w3.org/2000/svg" viewBox="0 0 215.79 122.91"><defs><style>.cls-1{fill:#fff;}</style></defs><g id="Layer_2" data-name="Layer 2"><g id="Layer_1-2" data-name="Layer 1"><path class="cls-1" d="M0,0H28.05V16.16H16.46V54.61H28.05V70.47H16.46v35.45H28.05v16H0Z"/><path class="cls-1" d="M30.37,0H47.2l5.95,70.39L58.05,0H74.81L60,122.91H46.38Z"/><path class="cls-1" d="M79.82,0h28.05V16.16H96.27V54.61h11.6V70.47H96.27v35.45h11.6v16H79.82Z"/><path class="cls-1" d="M113.63,0h15l10.21,63.66h1L138,0h16.3V121.93H139.89L128.7,54.23h-.63l1.79,67.7H113.63Z"/><path class="cls-1" d="M160.46,0H200V15.93H188.51v106H172.05v-106H160.46Z"/><path class="cls-1" d="M198.14,117.43c0-3.83,2.48-5.14,8.83-5.14s8.82,1.31,8.82,5.14-2.47,5.13-8.82,5.13S198.14,121.25,198.14,117.43Zm14.66,0c0-1.15-1.24-1.27-5.83-1.27s-5.83.12-5.83,1.27,1.24,1.26,5.83,1.26S212.8,118.57,212.8,117.43Z"/><path class="cls-1" d="M198.48,110.44v-5.86c0-2.86,1.9-4,4.52-4,2.26,0,3.73.75,4,2.46h.05c.19-1.81,1.54-2.36,3.8-2.36h1.45a8.24,8.24,0,0,0,2.36-.18,1.08,1.08,0,0,0,.52-.42h.24v4a10.49,10.49,0,0,1-3.23.36h-1.15c-1.92,0-2.42.32-2.42,1.23v1h6.8v3.75Zm7.18-3.75V106c0-1.07-.81-1.57-2-1.57-1.38,0-2,.46-2,1.59v.72Z"/><path class="cls-1" d="M206.23,93.55V88.71h9.23v2.54l-1.5.08v0a2.94,2.94,0,0,1,1.83,3.1c0,3.81-3.21,4.15-8.82,4.15s-8.83-.93-8.83-5.36c0-2.66,1.6-4.55,5.71-4.55v3.63a7.16,7.16,0,0,0-2,.2.87.87,0,0,0-.74.86c0,1.23,1.24,1.35,5.83,1.35s5.83-.12,5.83-1.27c0-.78-.6-1.24-3.57-1.26v1.33Z"/><path class="cls-1" d="M198.48,84.32V79.61l17-3.5v4l-3,.39v3l3,.38v4ZM202,82v0l7.21,1v-2.1Z"/><path class="cls-1" d="M198.48,75V70.79l10.46-2.41v0H198.48V64.83h17v4.11L205,71.44v0h10.49V75Z"/><path class="cls-1" d="M198.48,62.7V59h17V62.7Z"/><path class="cls-1" d="M212.27,57.3l-10.18-4.51V57h-3.61V48.42h3.18L211.85,53V48.42h3.61V57.3Z"/><path class="cls-1" d="M198.48,46.63V38.11h3.61v4.78H205V38.42h3.48v4.47h3.38v-5h3.61v8.7Z"/><path class="cls-1" d="M198.48,36.06V30.2c0-2.86,1.9-3.95,4.52-3.95,2.26,0,3.73.75,4,2.46h.05c.19-1.81,1.54-2.36,3.8-2.36h1.45a8.24,8.24,0,0,0,2.36-.18,1.08,1.08,0,0,0,.52-.42h.24v4a10.49,10.49,0,0,1-3.23.36h-1.15c-1.92,0-2.42.32-2.42,1.23v1h6.8v3.74Zm7.18-3.74v-.75c0-1.07-.81-1.57-2-1.57-1.38,0-2,.46-2,1.59v.73Z"/><rect class="cls-1" x="188.14" width="27" height="16"/></g></g></svg>