<svg width="288" height="60" viewBox="0 0 288 60" fill="none" xmlns="http://www.w3.org/2000/svg">
<g clip-path="url(#clip0_4110_33586)">
<path d="M27.8085 4.46724e-06C25.7577 -0.00166072 23.7332 0.462223 21.8877 1.3567C20.0422 2.25117 18.4237 3.55291 17.1543 5.1638C19.4768 5.66906 21.6679 6.65463 23.5868 8.05717C25.5058 9.45971 27.1102 11.2482 28.2969 13.3078C29.4835 15.3673 30.2263 17.6523 30.4774 20.016C30.7285 22.3797 30.4824 24.7698 29.755 27.0328C33.1537 26.5408 36.2401 24.7797 38.393 22.104C40.5459 19.4282 41.6057 16.0362 41.359 12.6106C41.1124 9.18501 39.5776 5.97993 37.0635 3.64025C34.5495 1.30057 31.2427 -7.93615e-05 27.8085 4.46724e-06V4.46724e-06Z" fill="#B5179E"/>
<path d="M53.8183 14.8759C52.7823 13.1045 51.358 11.5914 49.6526 10.4503C47.9471 9.30917 46.0051 8.56989 43.9726 8.28809C44.7104 10.5474 44.9674 12.936 44.7273 15.3005C44.4872 17.665 43.7553 19.9532 42.5784 22.018C41.4016 24.0829 39.8059 25.8787 37.8939 27.2901C35.9819 28.7016 33.7958 29.6975 31.4761 30.2139C33.6183 32.8971 36.697 34.6696 40.0929 35.175C43.4888 35.6803 46.9501 34.881 49.7807 32.9378C52.6113 30.9946 54.6012 28.0516 55.3503 24.7007C56.0994 21.3498 55.552 17.8396 53.8183 14.8759Z" fill="#7209B7"/>
<path d="M53.7918 45.0483C54.8244 43.2763 55.4414 41.2931 55.5966 39.248C55.7517 37.203 55.4408 35.1493 54.6873 33.2418C53.0828 34.9954 51.1292 36.3939 48.952 37.3474C46.7749 38.301 44.4224 38.7885 42.0456 38.7787C39.6689 38.7689 37.3205 38.262 35.1513 37.2905C32.9821 36.319 31.0401 34.9044 29.45 33.1377C28.1689 36.3225 28.1408 39.8743 29.3713 43.079C30.6019 46.2838 32.9998 48.9038 36.0831 50.4125C39.1665 51.9212 42.7066 52.2067 45.9918 51.2116C49.2769 50.2164 52.0637 48.0145 53.7918 45.0483V45.0483Z" fill="#4361EE"/>
<path d="M12.5892 38.8052C8.11856 38.5529 3.92856 36.5445 0.931499 33.2173C0.190494 35.1133 -0.114814 37.1517 0.038157 39.1817C0.191128 41.2117 0.798463 43.1813 1.81524 44.9449C2.83202 46.7084 4.23223 48.2208 5.9123 49.3702C7.59237 50.5196 9.50932 51.2765 11.5214 51.585C10.1999 47.3485 10.5831 42.7636 12.5892 38.8052V38.8052Z" fill="#4CC9F0"/>
<path d="M13.5928 35.357C21.0957 35.357 27.178 29.2741 27.178 21.7705C27.178 14.2669 21.0957 8.18408 13.5928 8.18408C6.08988 8.18408 0.00756836 14.2669 0.00756836 21.7705C0.00756836 29.2741 6.08988 35.357 13.5928 35.357Z" fill="#F72585"/>
<path d="M25.0612 38.1763C25.0711 36.6918 25.2748 35.215 25.667 33.7832C23.2335 36.247 20.1055 37.9086 16.7017 38.5456C14.6012 41.4244 13.7161 45.0135 14.2373 48.539C14.7586 52.0645 16.6445 55.2439 19.4883 57.3915C22.332 59.5391 25.9059 60.483 29.4391 60.0194C32.9724 59.5559 36.1819 57.7222 38.3756 54.9137C34.5783 54.0649 31.1861 51.9411 28.7636 48.8959C26.3412 45.8507 25.0345 42.0676 25.0612 38.1763V38.1763Z" fill="#4895EF"/>
</g>
<path d="M73.5824 43V16.8182H83.4006C85.4119 16.8182 87.0994 17.1932 88.4631 17.9432C89.8352 18.6932 90.8707 19.7244 91.5696 21.0369C92.277 22.3409 92.6307 23.8239 92.6307 25.4858C92.6307 27.1648 92.277 28.6562 91.5696 29.9602C90.8622 31.2642 89.8182 32.2912 88.4375 33.0412C87.0568 33.7827 85.3565 34.1534 83.3366 34.1534H76.8295V30.2543H82.6974C83.8736 30.2543 84.8366 30.0497 85.5866 29.6406C86.3366 29.2315 86.8906 28.669 87.2486 27.9531C87.6151 27.2372 87.7983 26.4148 87.7983 25.4858C87.7983 24.5568 87.6151 23.7386 87.2486 23.0312C86.8906 22.3239 86.3324 21.7741 85.5739 21.3821C84.8239 20.9815 83.8565 20.7812 82.6719 20.7812H78.3253V43H73.5824ZM95.8258 43V23.3636H100.313V26.6364H100.518C100.876 25.5028 101.489 24.6293 102.358 24.0156C103.236 23.3935 104.238 23.0824 105.363 23.0824C105.618 23.0824 105.904 23.0952 106.219 23.1207C106.543 23.1378 106.812 23.1676 107.025 23.2102V27.4673C106.829 27.3991 106.518 27.3395 106.091 27.2884C105.674 27.2287 105.269 27.1989 104.877 27.1989C104.033 27.1989 103.275 27.3821 102.601 27.7486C101.937 28.1065 101.412 28.6051 101.029 29.2443C100.645 29.8835 100.454 30.6207 100.454 31.456V43H95.8258ZM117.136 43.3835C115.218 43.3835 113.556 42.9616 112.15 42.1179C110.744 41.2741 109.653 40.0937 108.877 38.5767C108.11 37.0597 107.727 35.2869 107.727 33.2585C107.727 31.2301 108.11 29.4531 108.877 27.9276C109.653 26.402 110.744 25.2173 112.15 24.3736C113.556 23.5298 115.218 23.108 117.136 23.108C119.054 23.108 120.716 23.5298 122.122 24.3736C123.528 25.2173 124.615 26.402 125.382 27.9276C126.157 29.4531 126.545 31.2301 126.545 33.2585C126.545 35.2869 126.157 37.0597 125.382 38.5767C124.615 40.0937 123.528 41.2741 122.122 42.1179C120.716 42.9616 119.054 43.3835 117.136 43.3835ZM117.162 39.6761C118.201 39.6761 119.071 39.3906 119.77 38.8196C120.468 38.2401 120.988 37.4645 121.329 36.4929C121.679 35.5213 121.853 34.4389 121.853 33.2457C121.853 32.044 121.679 30.9574 121.329 29.9858C120.988 29.0057 120.468 28.2259 119.77 27.6463C119.071 27.0668 118.201 26.777 117.162 26.777C116.096 26.777 115.21 27.0668 114.502 27.6463C113.804 28.2259 113.279 29.0057 112.93 29.9858C112.589 30.9574 112.419 32.044 112.419 33.2457C112.419 34.4389 112.589 35.5213 112.93 36.4929C113.279 37.4645 113.804 38.2401 114.502 38.8196C115.21 39.3906 116.096 39.6761 117.162 39.6761ZM129.753 23.3636H134.381V44.125C134.381 45.5398 134.112 46.7074 133.575 47.6278C133.039 48.5483 132.263 49.2344 131.249 49.6861C130.235 50.1378 129.003 50.3636 127.554 50.3636C127.384 50.3636 127.226 50.3594 127.081 50.3509C126.936 50.3509 126.779 50.3466 126.608 50.3381V46.5668C126.736 46.5753 126.851 46.5795 126.953 46.5795C127.056 46.5881 127.162 46.5923 127.273 46.5923C128.159 46.5923 128.794 46.375 129.178 45.9403C129.561 45.5142 129.753 44.8878 129.753 44.0611V23.3636ZM132.054 20.5767C131.313 20.5767 130.678 20.3338 130.149 19.848C129.629 19.3537 129.369 18.7614 129.369 18.071C129.369 17.3722 129.629 16.7798 130.149 16.294C130.678 15.7997 131.313 15.5526 132.054 15.5526C132.787 15.5526 133.414 15.7997 133.933 16.294C134.462 16.7798 134.726 17.3722 134.726 18.071C134.726 18.7614 134.462 19.3537 133.933 19.848C133.414 20.3338 132.787 20.5767 132.054 20.5767ZM147.113 43.3835C145.144 43.3835 143.444 42.9744 142.012 42.1562C140.589 41.3295 139.494 40.1619 138.727 38.6534C137.959 37.1364 137.576 35.3509 137.576 33.2969C137.576 31.277 137.959 29.5043 138.727 27.9787C139.502 26.4446 140.584 25.2514 141.974 24.3991C143.363 23.5384 144.995 23.108 146.87 23.108C148.08 23.108 149.222 23.304 150.296 23.696C151.379 24.0795 152.333 24.6761 153.16 25.4858C153.995 26.2955 154.651 27.3267 155.129 28.5795C155.606 29.8239 155.844 31.3068 155.844 33.0284V34.4474H139.749V31.3281H151.408C151.4 30.4418 151.208 29.6534 150.833 28.9631C150.458 28.2642 149.934 27.7145 149.261 27.3139C148.596 26.9134 147.82 26.7131 146.934 26.7131C145.988 26.7131 145.157 26.9432 144.441 27.4034C143.725 27.8551 143.167 28.4517 142.766 29.1932C142.374 29.9261 142.174 30.7315 142.165 31.6094V34.3324C142.165 35.4744 142.374 36.4545 142.792 37.2727C143.209 38.0824 143.793 38.7045 144.543 39.1392C145.293 39.5653 146.171 39.7784 147.177 39.7784C147.85 39.7784 148.459 39.6847 149.005 39.4972C149.55 39.3011 150.023 39.0156 150.424 38.6406C150.825 38.2656 151.127 37.8011 151.332 37.2472L155.653 37.733C155.38 38.875 154.86 39.8722 154.093 40.7244C153.334 41.5682 152.363 42.2244 151.178 42.6932C149.994 43.1534 148.638 43.3835 147.113 43.3835ZM167.605 43.3835C165.645 43.3835 163.961 42.9531 162.555 42.0923C161.157 41.2315 160.079 40.0426 159.321 38.5256C158.571 37 158.196 35.2443 158.196 33.2585C158.196 31.2642 158.579 29.5043 159.346 27.9787C160.113 26.4446 161.196 25.2514 162.594 24.3991C164 23.5384 165.662 23.108 167.579 23.108C169.173 23.108 170.584 23.402 171.811 23.9901C173.047 24.5696 174.031 25.392 174.764 26.4574C175.497 27.5142 175.915 28.75 176.017 30.1648H171.594C171.415 29.2187 170.988 28.4304 170.315 27.7997C169.65 27.1605 168.76 26.8409 167.643 26.8409C166.697 26.8409 165.866 27.0966 165.15 27.608C164.434 28.1108 163.876 28.8352 163.476 29.7812C163.084 30.7273 162.888 31.8608 162.888 33.1818C162.888 34.5199 163.084 35.6705 163.476 36.6335C163.868 37.5881 164.417 38.3253 165.125 38.8452C165.841 39.3565 166.68 39.6122 167.643 39.6122C168.325 39.6122 168.934 39.4844 169.471 39.2287C170.017 38.9645 170.473 38.5852 170.839 38.0909C171.206 37.5966 171.457 36.9957 171.594 36.2884H176.017C175.906 37.6776 175.497 38.9091 174.79 39.983C174.082 41.0483 173.119 41.8835 171.9 42.4886C170.682 43.0852 169.25 43.3835 167.605 43.3835ZM188.902 23.3636V26.9432H177.614V23.3636H188.902ZM180.401 18.6591H185.029V37.0938C185.029 37.7159 185.122 38.1932 185.31 38.5256C185.506 38.8494 185.762 39.071 186.077 39.1903C186.392 39.3097 186.742 39.3693 187.125 39.3693C187.415 39.3693 187.679 39.348 187.918 39.3054C188.165 39.2628 188.353 39.2244 188.48 39.1903L189.26 42.8082C189.013 42.8935 188.659 42.9872 188.199 43.0895C187.747 43.1918 187.193 43.2514 186.537 43.2685C185.378 43.3026 184.334 43.1278 183.405 42.7443C182.476 42.3523 181.739 41.7472 181.193 40.929C180.657 40.1108 180.392 39.0881 180.401 37.8608V18.6591ZM213.607 16.8182V43H210.538L196.271 22.4432H196.016V43H192.845V16.8182H195.913L210.232 37.4261H210.487V16.8182H213.607ZM224.6 43.4602C223.356 43.4602 222.227 43.2259 221.212 42.7571C220.198 42.2798 219.393 41.5938 218.796 40.6989C218.2 39.7955 217.901 38.7045 217.901 37.4261C217.901 36.3011 218.123 35.3892 218.566 34.6903C219.009 33.983 219.602 33.429 220.343 33.0284C221.084 32.6278 221.903 32.3295 222.798 32.1335C223.701 31.929 224.609 31.767 225.521 31.6477C226.714 31.4943 227.681 31.3793 228.423 31.3026C229.173 31.2173 229.718 31.0767 230.059 30.8807C230.408 30.6847 230.583 30.3437 230.583 29.858V29.7557C230.583 28.4943 230.238 27.5142 229.548 26.8153C228.866 26.1165 227.83 25.767 226.441 25.767C225.001 25.767 223.871 26.0824 223.053 26.7131C222.235 27.3437 221.66 28.017 221.327 28.733L218.464 27.7102C218.975 26.517 219.657 25.5881 220.509 24.9233C221.37 24.25 222.307 23.7812 223.322 23.517C224.344 23.2443 225.35 23.108 226.339 23.108C226.969 23.108 227.694 23.1847 228.512 23.3381C229.339 23.483 230.136 23.7855 230.903 24.2457C231.678 24.706 232.322 25.4006 232.833 26.3295C233.344 27.2585 233.6 28.5028 233.6 30.0625V43H230.583V40.3409H230.43C230.225 40.767 229.884 41.223 229.407 41.7088C228.93 42.1946 228.295 42.608 227.502 42.9489C226.709 43.2898 225.742 43.4602 224.6 43.4602ZM225.06 40.75C226.253 40.75 227.259 40.5156 228.077 40.0469C228.904 39.5781 229.526 38.973 229.944 38.2315C230.37 37.4901 230.583 36.7102 230.583 35.892V33.1307C230.455 33.2841 230.174 33.4247 229.739 33.5526C229.313 33.6719 228.819 33.7784 228.256 33.8722C227.702 33.9574 227.161 34.0341 226.633 34.1023C226.113 34.1619 225.691 34.2131 225.367 34.2557C224.583 34.358 223.85 34.5241 223.168 34.7543C222.495 34.9759 221.95 35.3125 221.532 35.7642C221.123 36.2074 220.918 36.8125 220.918 37.5795C220.918 38.6278 221.306 39.4205 222.082 39.9574C222.866 40.4858 223.859 40.75 225.06 40.75ZM238.387 43V23.3636H241.302V26.4318H241.557C241.966 25.3835 242.627 24.5696 243.539 23.9901C244.451 23.402 245.546 23.108 246.824 23.108C248.12 23.108 249.198 23.402 250.059 23.9901C250.928 24.5696 251.606 25.3835 252.091 26.4318H252.296C252.799 25.4176 253.553 24.6122 254.559 24.0156C255.564 23.4105 256.77 23.108 258.177 23.108C259.932 23.108 261.368 23.6577 262.485 24.7571C263.601 25.848 264.16 27.5483 264.16 29.858V43H261.143V29.858C261.143 28.4091 260.746 27.3736 259.954 26.7514C259.161 26.1293 258.228 25.8182 257.154 25.8182C255.773 25.8182 254.704 26.2358 253.945 27.071C253.187 27.8977 252.807 28.946 252.807 30.2159V43H249.739V29.5511C249.739 28.4347 249.377 27.5355 248.652 26.8537C247.928 26.1634 246.995 25.8182 245.853 25.8182C245.069 25.8182 244.336 26.027 243.654 26.4446C242.981 26.8622 242.435 27.4418 242.018 28.1832C241.608 28.9162 241.404 29.7642 241.404 30.7273V43H238.387ZM277.189 43.4091C275.297 43.4091 273.665 42.9915 272.293 42.1562C270.929 41.3125 269.876 40.1364 269.135 38.6278C268.402 37.1108 268.035 35.3466 268.035 33.3352C268.035 31.3239 268.402 29.5511 269.135 28.017C269.876 26.4744 270.908 25.2727 272.229 24.4119C273.558 23.5426 275.109 23.108 276.882 23.108C277.905 23.108 278.915 23.2784 279.912 23.6193C280.909 23.9602 281.817 24.5142 282.635 25.2812C283.453 26.0398 284.105 27.0455 284.591 28.2983C285.077 29.5511 285.32 31.0937 285.32 32.9261V34.2045H270.183V31.5966H282.251C282.251 30.4886 282.03 29.5 281.587 28.6307C281.152 27.7614 280.53 27.0753 279.72 26.5724C278.919 26.0696 277.973 25.8182 276.882 25.8182C275.68 25.8182 274.641 26.1165 273.763 26.7131C272.893 27.3011 272.224 28.0682 271.756 29.0142C271.287 29.9602 271.052 30.9744 271.052 32.0568V33.7955C271.052 35.2784 271.308 36.5355 271.82 37.5668C272.339 38.5895 273.06 39.3693 273.98 39.9062C274.901 40.4347 275.97 40.6989 277.189 40.6989C277.981 40.6989 278.697 40.5881 279.337 40.3665C279.984 40.1364 280.543 39.7955 281.011 39.3438C281.48 38.8835 281.842 38.3125 282.098 37.6307L285.013 38.4489C284.706 39.4375 284.19 40.3068 283.466 41.0568C282.741 41.7983 281.847 42.3778 280.781 42.7955C279.716 43.2045 278.518 43.4091 277.189 43.4091Z" fill="white"/>
<defs>
<clipPath id="clip0_4110_33586">
<rect width="55.6815" height="60" fill="white"/>
</clipPath>
</defs>
</svg>
