<svg width="60" height="60" viewBox="0 0 60 60" fill="none" xmlns="http://www.w3.org/2000/svg">
<path opacity="0.9" d="M29.7475 4.45721e-06C27.7013 -0.00165699 25.6813 0.461185 23.84 1.35365C21.9986 2.24612 20.3838 3.54493 19.1172 5.1522C21.4345 5.65633 23.6206 6.63968 25.5353 8.03908C27.4499 9.43847 29.0507 11.2229 30.2347 13.2779C31.4187 15.3328 32.1598 17.6127 32.4104 19.9711C32.6609 22.3295 32.4154 24.7142 31.6896 26.9721C35.0807 26.4812 38.1601 24.7241 40.3082 22.0543C42.4563 19.3845 43.5136 16.0002 43.2675 12.5823C43.0214 9.16438 41.4901 5.9665 38.9817 3.63207C36.4733 1.29765 33.174 -7.91833e-05 29.7475 4.45721e-06V4.45721e-06Z" fill="white"/>
<path opacity="0.8" d="M55.6983 14.8425C54.6646 13.0752 53.2435 11.5654 51.5419 10.4269C49.8403 9.28832 47.9026 8.5507 45.8747 8.26953C46.6108 10.5237 46.8673 12.907 46.6278 15.2662C46.3882 17.6254 45.6579 19.9085 44.4837 21.9686C43.3095 24.0288 41.7174 25.8206 39.8097 27.2289C37.9019 28.6372 35.7208 29.6309 33.4062 30.1461C35.5437 32.8233 38.6154 34.5918 42.0037 35.096C45.392 35.6002 48.8456 34.8027 51.6698 32.8639C54.494 30.925 56.4795 27.9887 57.2269 24.6453C57.9742 21.3019 57.4281 17.7995 55.6983 14.8425Z" fill="white"/>
<path opacity="0.7" d="M55.6718 44.9471C56.7021 43.1791 57.3178 41.2003 57.4725 39.1599C57.6273 37.1194 57.3171 35.0704 56.5654 33.1671C54.9644 34.9168 53.0152 36.3121 50.8429 37.2635C48.6707 38.2149 46.3234 38.7014 43.952 38.6916C41.5806 38.6818 39.2375 38.176 37.0732 37.2067C34.9088 36.2374 32.9712 34.826 31.3847 33.0632C30.1065 36.2409 30.0784 39.7847 31.3062 42.9823C32.534 46.1798 34.9265 48.794 38.0029 50.2993C41.0793 51.8046 44.6115 52.0894 47.8893 51.0965C51.1671 50.1036 53.9476 47.9066 55.6718 44.9471V44.9471Z" fill="white"/>
<path opacity="0.5" d="M14.5612 38.7179C10.1006 38.4661 5.91998 36.4622 2.92965 33.1425C2.19031 35.0343 1.88569 37.0681 2.03831 39.0935C2.19094 41.119 2.79691 43.0841 3.81141 44.8438C4.8259 46.6034 6.22297 48.1124 7.89926 49.2592C9.57556 50.4059 11.4882 51.1612 13.4957 51.469C12.1773 47.242 12.5595 42.6674 14.5612 38.7179V38.7179Z" fill="white"/>
<path d="M15.5635 35.2775C23.0496 35.2775 29.1182 29.2083 29.1182 21.7216C29.1182 14.2348 23.0496 8.16565 15.5635 8.16565C8.07744 8.16565 2.00879 14.2348 2.00879 21.7216C2.00879 29.2083 8.07744 35.2775 15.5635 35.2775Z" fill="white"/>
<path opacity="0.6" d="M27.0059 38.0908C27.0158 36.6096 27.2191 35.1361 27.6104 33.7075C25.1824 36.1658 22.0614 37.8237 18.6652 38.4592C16.5694 41.3315 15.6863 44.9126 16.2064 48.4302C16.7265 51.9478 18.6081 55.12 21.4455 57.2628C24.2829 59.4056 27.8487 60.3473 31.374 59.8848C34.8993 59.4223 38.1017 57.5927 40.2904 54.7905C36.5016 53.9436 33.1171 51.8247 30.7 48.7863C28.283 45.7479 26.9793 41.9733 27.0059 38.0908V38.0908Z" fill="white"/>
</svg>
