<svg viewBox="-0.23294661979148623 0 125.23294661979149 79.04777140278348" xmlns="http://www.w3.org/2000/svg" width="2500" height="1575"><g fill="#621ee5"><path d="M6.02 40.25c-.32-.34-.71-.61-1.14-.8s-.89-.28-1.36-.28c-.47-.01-.93.09-1.36.27-.43.19-.82.46-1.14.8-.33.33-.59.72-.76 1.15-.17.44-.26.9-.26 1.36-.01.47.08.93.26 1.36s.44.82.77 1.15a3.339 3.339 0 0 0 2.5 1.05 3.456 3.456 0 0 0 2.5-1.05c.34-.32.6-.71.78-1.14s.27-.89.27-1.36-.09-.93-.27-1.36c-.19-.44-.45-.83-.79-1.15zM47.87 32.13c-.05 2.24.06 4.49.32 6.72h-.12c-.28-.55-.9-1.57-1.85-3.06L23.42 0H16.5v45.69h5.32V12.66c.06-2.09-.03-4.18-.25-6.27h.2c.38 1 .87 1.96 1.45 2.86l23.42 36.44h6.55V0h-5.32zM89.26 40.67h-18.8V24.84h16.45v-4.82H70.46V4.84h17.65V0h-23.1v45.69h24.22zM93.33 0v4.84h13.1v40.85h5.32V4.84H125V0zM41.19 57.05a10.04 10.04 0 0 0-3.52 2.37c-1.02 1.09-1.82 2.37-2.34 3.78s-.75 2.9-.69 4.39c-.1 2.76.86 5.46 2.7 7.52.92.97 2.04 1.72 3.28 2.22s2.57.72 3.9.66c2 .07 3.99-.35 5.8-1.23l.02-2.33c-1.66.97-3.55 1.45-5.47 1.4-1.03.04-2.06-.14-3.01-.53s-1.81-.99-2.51-1.75a8.72 8.72 0 0 1-2.1-6.14c-.12-2.37.69-4.69 2.25-6.47.74-.82 1.65-1.46 2.66-1.9a7.68 7.68 0 0 1 3.21-.61c1.75-.03 3.47.4 5 1.25v-2.51a12.23 12.23 0 0 0-5-.88c-1.43-.02-2.86.23-4.18.76zM66.12 64.21a6.719 6.719 0 0 0-5.22-2.08c-1.03-.05-2.05.12-3.01.49s-1.83.93-2.57 1.64c-.72.8-1.27 1.73-1.63 2.75s-.51 2.09-.44 3.17c-.1 2.05.61 4.06 1.97 5.59.68.73 1.5 1.31 2.42 1.7.92.38 1.91.57 2.9.53 1.01.03 2.02-.16 2.96-.55s1.78-.98 2.47-1.73a8.06 8.06 0 0 0 2.02-5.76c.12-2.1-.55-4.15-1.87-5.75zm-1.83 10.27a4.394 4.394 0 0 1-3.57 1.51c-.69.03-1.37-.1-2-.36-.63-.27-1.19-.67-1.65-1.19a6.126 6.126 0 0 1-1.35-4.21c-.09-1.57.39-3.12 1.35-4.36.45-.52 1.01-.93 1.64-1.21.63-.27 1.32-.4 2-.37.68-.04 1.35.09 1.97.36s1.17.68 1.61 1.2a6.668 6.668 0 0 1 1.25 4.34c.1 1.52-.34 3.05-1.25 4.29zM75.88 63.23c-.75.67-1.3 1.54-1.57 2.51V62.6h-2.5v15.04h2.5v-7.67c-.08-1.39.28-2.78 1.02-3.96.27-.43.63-.79 1.07-1.04s.93-.4 1.43-.41c.64-.05 1.28.12 1.82.48v-2.48c-.46-.15-.94-.22-1.42-.2-.86-.01-1.69.3-2.35.87zM94.28 69.44c.12-1.91-.45-3.79-1.6-5.31-.57-.64-1.27-1.15-2.06-1.48s-1.64-.48-2.49-.43c-.94-.03-1.88.16-2.75.54-.86.38-1.63.95-2.25 1.67a8.217 8.217 0 0 0-1.97 5.71c-.13 2.08.52 4.14 1.82 5.76.63.69 1.41 1.23 2.27 1.59s1.8.51 2.73.47c1.85.09 3.68-.41 5.22-1.43v-2.26a7.506 7.506 0 0 1-4.65 1.68c-.65.04-1.31-.06-1.92-.3s-1.17-.59-1.63-1.06a5.58 5.58 0 0 1-1.27-3.86H94.3zm-10.57-.7c.13-1.19.65-2.31 1.47-3.18a3.86 3.86 0 0 1 2.88-1.23c.52-.03 1.03.06 1.51.26s.9.5 1.24.89c.7.93 1.05 2.07 1 3.23z"/></g></svg>